<svg id="egCOryAumX01" xmlns="http://www.w3.org/2000/svg" xmlns:xlink="http://www.w3.org/1999/xlink" viewBox="0 0 300 300" shape-rendering="geometricPrecision" text-rendering="geometricPrecision" width="300" height="300"><rect width="300" height="300" rx="0" ry="0" fill="#00893a" stroke-width="0"/><rect width="120" height="15" rx="0" ry="0" transform="translate(165 255)" fill="#00305d" stroke-width="0"/><rect width="120" height="15" rx="0" ry="0" transform="translate(15 255)" fill="#00305d" stroke-width="0"/><rect width="120" height="15" rx="0" ry="0" transform="translate(165 165)" fill="#00305d" stroke-width="0"/><rect width="120" height="15" rx="0" ry="0" transform="translate(15 165)" fill="#00305d" stroke-width="0"/><rect width="270" height="15" rx="0" ry="0" transform="translate(15 120)" fill="#00305d" stroke-width="0"/><rect width="270" height="15" rx="0" ry="0" transform="translate(15 210)" fill="#00305d" stroke-width="0"/><rect width="120" height="15" rx="0" ry="0" transform="translate(165 75)" fill="#00305d" stroke-width="0"/><rect width="120" height="15" rx="0" ry="0" transform="translate(15 75)" fill="#00305d" stroke-width="0"/><rect width="120" height="15" rx="0" ry="0" transform="translate(165 30)" fill="#00305d" stroke-width="0"/><rect width="120" height="15" rx="0" ry="0" transform="translate(15 30)" fill="#00305d" stroke-width="0"/></svg>
