<svg width="3848" height="1561" xmlns="http://www.w3.org/2000/svg" xmlns:xlink="http://www.w3.org/1999/xlink" xml:space="preserve" overflow="hidden"><g transform="translate(-183 -147)"><path d="M0 0 439.203 1.32664" stroke="#00305E" stroke-width="9.16667" stroke-miterlimit="8" stroke-dasharray="36.6667 27.5" fill="none" fill-rule="evenodd" transform="matrix(1 0 0 -1 2860.5 486.827)"/><path d="M0 0 439.203 1.04623" stroke="#00305E" stroke-width="9.16667" stroke-miterlimit="8" stroke-dasharray="36.6667 27.5" fill="none" fill-rule="evenodd" transform="matrix(1 0 0 -1 2860.5 899.546)"/><text fill="#00305E" font-family="Open Sans,Open Sans_MSFontService,sans-serif" font-weight="400" font-size="74" transform="matrix(1 0 0 1 2913.47 460)">C</text><text fill="#00305E" font-family="Open Sans,Open Sans_MSFontService,sans-serif" font-weight="400" font-size="74" transform="matrix(1 0 0 1 2960.45 460)">ondition</text><rect x="2132.5" y="260.5" width="780" height="1442" stroke="#007D40" stroke-width="6.875" stroke-miterlimit="8" stroke-dasharray="27.5 20.625" fill="none"/><text fill="#007D40" font-family="Open Sans,Open Sans_MSFontService,sans-serif" font-weight="400" font-size="74" transform="matrix(1 0 0 1 2499.3 240)">R</text><rect x="2184.5" y="292.5" width="676" height="390" stroke="#007D40" stroke-width="6.875" stroke-miterlimit="8" fill="#E6FFED"/><text fill="#00305E" font-family="Open Sans,Open Sans_MSFontService,sans-serif" font-weight="700" font-size="64" transform="matrix(1 0 0 1 2197.41 354)">if</text><text fill="#00305E" font-family="Open Sans Light,Open Sans Light_MSFontService,sans-serif" font-weight="300" font-size="64" transform="matrix(1 0 0 1 2258.14 354)">(</text><text fill="#00305E" font-family="Open Sans Light,Open Sans Light_MSFontService,sans-serif" font-weight="300" font-size="64" transform="matrix(1 0 0 1 2275.33 354)">condition</text><text fill="#00305E" font-family="Open Sans Light,Open Sans Light_MSFontService,sans-serif" font-weight="300" font-size="64" transform="matrix(1 0 0 1 2545.17 354)">) { </text><text fill="#00305E" font-family="Open Sans Light,Open Sans Light_MSFontService,sans-serif" font-weight="300" font-size="64" transform="matrix(1 0 0 1 2214.03 431)">true_action</text><text fill="#00305E" font-family="Open Sans Light,Open Sans Light_MSFontService,sans-serif" font-weight="300" font-size="64" transform="matrix(1 0 0 1 2197.41 508)">} </text><text fill="#00305E" font-family="Open Sans,Open Sans_MSFontService,sans-serif" font-weight="700" font-size="64" transform="matrix(1 0 0 1 2236.94 508)">elese</text><text fill="#00305E" font-family="Open Sans Light,Open Sans Light_MSFontService,sans-serif" font-weight="300" font-size="64" transform="matrix(1 0 0 1 2418.56 508)">{</text><text fill="#00305E" font-family="Open Sans Light,Open Sans Light_MSFontService,sans-serif" font-weight="300" font-size="64" transform="matrix(1 0 0 1 2214.03 585)">false_action</text><text fill="#00305E" font-family="Open Sans Light,Open Sans Light_MSFontService,sans-serif" font-weight="300" font-size="64" transform="matrix(1 0 0 1 2197.41 662)">}</text><rect x="2184.5" y="710.5" width="676" height="377" stroke="#007D40" stroke-width="6.875" stroke-miterlimit="8" fill="#E6FFED"/><text fill="#00305E" font-family="Open Sans,Open Sans_MSFontService,sans-serif" font-weight="700" font-size="64" transform="matrix(1 0 0 1 2214.03 766)">switch</text><text fill="#00305E" font-family="Open Sans Light,Open Sans Light_MSFontService,sans-serif" font-weight="300" font-size="64" transform="matrix(1 0 0 1 2424.29 766)">(x,</text><text fill="#00305E" font-family="Open Sans Light,Open Sans Light_MSFontService,sans-serif" font-weight="300" font-size="64" transform="matrix(1 0 0 1 2263.87 843)">a = " action_1 ",</text><text fill="#00305E" font-family="Open Sans Light,Open Sans Light_MSFontService,sans-serif" font-weight="300" font-size="64" transform="matrix(1 0 0 1 2263.87 920)">b = " action_1 ",</text><text fill="#00305E" font-family="Open Sans,Open Sans_MSFontService,sans-serif" font-weight="700" font-size="64" transform="matrix(1 0 0 1 2197.41 997)">stop</text><text fill="#00305E" font-family="Open Sans Light,Open Sans Light_MSFontService,sans-serif" font-weight="300" font-size="64" transform="matrix(1 0 0 1 2337.78 997)">("</text><text fill="#00305E" font-family="Open Sans Light,Open Sans Light_MSFontService,sans-serif" font-weight="300" font-size="64" transform="matrix(1 0 0 1 2377.88 997)">act_wildcard</text><text fill="#00305E" font-family="Open Sans Light,Open Sans Light_MSFontService,sans-serif" font-weight="300" font-size="64" transform="matrix(1 0 0 1 2730.8 997)">")</text><text fill="#00305E" font-family="Open Sans Light,Open Sans Light_MSFontService,sans-serif" font-weight="300" font-size="64" transform="matrix(1 0 0 1 2230.64 1074)">)</text><rect x="2184.5" y="1437.5" width="676" height="233" stroke="#007D40" stroke-width="6.875" stroke-miterlimit="8" fill="#E6FFED"/><text fill="#00305E" font-family="Open Sans,Open Sans_MSFontService,sans-serif" font-weight="700" font-size="64" transform="matrix(1 0 0 1 2197.41 1498)">while</text><text fill="#00305E" font-family="Open Sans Light,Open Sans Light_MSFontService,sans-serif" font-weight="300" font-size="64" transform="matrix(1 0 0 1 2388.19 1498)">(</text><text fill="#00305E" font-family="Open Sans Light,Open Sans Light_MSFontService,sans-serif" font-weight="300" font-size="64" transform="matrix(1 0 0 1 2405.38 1498)">condition</text><text fill="#00305E" font-family="Open Sans Light,Open Sans Light_MSFontService,sans-serif" font-weight="300" font-size="64" transform="matrix(1 0 0 1 2675.22 1498)">) {</text><text fill="#00305E" font-family="Open Sans Light,Open Sans Light_MSFontService,sans-serif" font-weight="300" font-size="64" transform="matrix(1 0 0 1 2214.03 1575)">perform_action</text><text fill="#00305E" font-family="Open Sans Light,Open Sans Light_MSFontService,sans-serif" font-weight="300" font-size="64" transform="matrix(1 0 0 1 2197.41 1652)">}</text><rect x="3247.5" y="260.5" width="780" height="1442" stroke="#F07D00" stroke-width="6.875" stroke-miterlimit="8" stroke-dasharray="27.5 20.625" fill="none"/><text fill="#F07D00" font-family="Open Sans,Open Sans_MSFontService,sans-serif" font-weight="400" font-size="74" transform="matrix(1 0 0 1 3515.26 240)">Python</text><rect x="3299.5" y="291.5" width="676" height="389" stroke="#F07D00" stroke-width="6.875" stroke-miterlimit="8" fill="#FFF9E0"/><text fill="#00305E" font-family="Open Sans,Open Sans_MSFontService,sans-serif" font-weight="700" font-size="64" transform="matrix(1 0 0 1 3312.21 391)">if</text><text fill="#00305E" font-family="Open Sans Light,Open Sans Light_MSFontService,sans-serif" font-weight="300" font-size="64" transform="matrix(1 0 0 1 3372.93 391)">condition: </text><text fill="#00305E" font-family="Open Sans Light,Open Sans Light_MSFontService,sans-serif" font-weight="300" font-size="64" transform="matrix(1 0 0 1 3345.43 468)">true_action</text><text fill="#00305E" font-family="Open Sans,Open Sans_MSFontService,sans-serif" font-weight="700" font-size="64" transform="matrix(1 0 0 1 3312.21 545)">else</text><text fill="#00305E" font-family="Open Sans Light,Open Sans Light_MSFontService,sans-serif" font-weight="300" font-size="64" transform="matrix(1 0 0 1 3439.39 545)">: </text><text fill="#00305E" font-family="Open Sans Light,Open Sans Light_MSFontService,sans-serif" font-weight="300" font-size="64" transform="matrix(1 0 0 1 3345.43 622)">false_action</text><rect x="3299.5" y="709.5" width="676" height="377" stroke="#F07D00" stroke-width="6.875" stroke-miterlimit="8" fill="#FFF9E0"/><text fill="#00305E" font-family="Open Sans,Open Sans_MSFontService,sans-serif" font-weight="700" font-size="64" transform="matrix(1 0 0 1 3312.21 765)">match</text><text fill="#00305E" font-family="Open Sans Light,Open Sans Light_MSFontService,sans-serif" font-weight="300" font-size="64" transform="matrix(1 0 0 1 3534.5 765)">subject:</text><text fill="#00305E" font-family="Open Sans Light,Open Sans Light_MSFontService,sans-serif" font-weight="300" font-size="64" transform="matrix(1 0 0 1 3378.66 842)">case &lt;a&gt;: &lt;act_1&gt;</text><text fill="#00305E" font-family="Open Sans Light,Open Sans Light_MSFontService,sans-serif" font-weight="300" font-size="64" transform="matrix(1 0 0 1 3378.66 919)">case &lt;b&gt;: &lt;act_2&gt;</text><text fill="#00305E" font-family="Open Sans Light,Open Sans Light_MSFontService,sans-serif" font-weight="300" font-size="64" transform="matrix(1 0 0 1 3312.21 996)">case _:</text><text fill="#00305E" font-family="Open Sans Light,Open Sans Light_MSFontService,sans-serif" font-weight="300" font-size="64" transform="matrix(1 0 0 1 3445.12 1073)">&lt;</text><text fill="#00305E" font-family="Open Sans Light,Open Sans Light_MSFontService,sans-serif" font-weight="300" font-size="64" transform="matrix(1 0 0 1 3481.79 1073)">action_wildcard</text><text fill="#00305E" font-family="Open Sans Light,Open Sans Light_MSFontService,sans-serif" font-weight="300" font-size="64" transform="matrix(1 0 0 1 3924.65 1073)">&gt;</text><rect x="3299.5" y="1436.5" width="676" height="234" stroke="#F07D00" stroke-width="6.875" stroke-miterlimit="8" fill="#FFF9E0"/><text fill="#00305E" font-family="Open Sans,Open Sans_MSFontService,sans-serif" font-weight="700" font-size="64" transform="matrix(1 0 0 1 3312.21 1536)">while</text><text fill="#00305E" font-family="Open Sans Light,Open Sans Light_MSFontService,sans-serif" font-weight="300" font-size="64" transform="matrix(1 0 0 1 3502.99 1536)">condition:</text><text fill="#00305E" font-family="Open Sans Light,Open Sans Light_MSFontService,sans-serif" font-weight="300" font-size="64" transform="matrix(1 0 0 1 3345.43 1613)">perform_action</text><path d="M0 0 439.203 0.4854" stroke="#00305E" stroke-width="9.16667" stroke-miterlimit="8" stroke-dasharray="36.6667 27.5" fill="none" fill-rule="evenodd" transform="matrix(1 0 0 -1 2860.5 1553.99)"/><rect x="2184.5" y="1174.5" width="676" height="234" stroke="#007D40" stroke-width="6.875" stroke-miterlimit="8" fill="#E6FFED"/><text fill="#00305E" font-family="Open Sans,Open Sans_MSFontService,sans-serif" font-weight="700" font-size="64" transform="matrix(1 0 0 1 2197.41 1235)">for</text><text fill="#00305E" font-family="Open Sans Light,Open Sans Light_MSFontService,sans-serif" font-weight="300" font-size="64" transform="matrix(1 0 0 1 2307.41 1235)">(item </text><text fill="#00305E" font-family="Open Sans,Open Sans_MSFontService,sans-serif" font-weight="700" font-size="64" transform="matrix(1 0 0 1 2468.97 1235)">in</text><text fill="#00305E" font-family="Open Sans Light,Open Sans Light_MSFontService,sans-serif" font-weight="300" font-size="64" transform="matrix(1 0 0 1 2547.46 1235)">vector) {</text><text fill="#00305E" font-family="Open Sans Light,Open Sans Light_MSFontService,sans-serif" font-weight="300" font-size="64" transform="matrix(1 0 0 1 2214.03 1312)">perform_action</text><text fill="#00305E" font-family="Open Sans Light,Open Sans Light_MSFontService,sans-serif" font-weight="300" font-size="64" transform="matrix(1 0 0 1 2197.41 1389)">}</text><rect x="3299.5" y="1173.5" width="676" height="234" stroke="#F07D00" stroke-width="6.875" stroke-miterlimit="8" fill="#FFF9E0"/><text fill="#00305E" font-family="Open Sans,Open Sans_MSFontService,sans-serif" font-weight="700" font-size="64" transform="matrix(1 0 0 1 3312.21 1273)">for</text><text fill="#00305E" font-family="Open Sans Light,Open Sans Light_MSFontService,sans-serif" font-weight="300" font-size="64" transform="matrix(1 0 0 1 3422.21 1273)">item </text><text fill="#00305E" font-family="Open Sans,Open Sans_MSFontService,sans-serif" font-weight="700" font-size="64" transform="matrix(1 0 0 1 3566.58 1273)">in</text><text fill="#00305E" font-family="Open Sans Light,Open Sans Light_MSFontService,sans-serif" font-weight="300" font-size="64" transform="matrix(1 0 0 1 3645.07 1273)">vector: </text><text fill="#00305E" font-family="Open Sans Light,Open Sans Light_MSFontService,sans-serif" font-weight="300" font-size="64" transform="matrix(1 0 0 1 3345.43 1350)">perform_action</text><path d="M0 0 439.203 0.765814" stroke="#00305E" stroke-width="9.16667" stroke-miterlimit="8" stroke-dasharray="36.6667 27.5" fill="none" fill-rule="evenodd" transform="matrix(1 0 0 -1 2860.5 1291.27)"/><text fill="#00305E" font-family="Open Sans Light,Open Sans Light_MSFontService,sans-serif" font-weight="300" font-size="74" transform="matrix(1 0 0 1 2981.89 557)">if</text><text fill="#00305E" font-family="Open Sans Light,Open Sans Light_MSFontService,sans-serif" font-weight="300" font-size="74" transform="matrix(1 0 0 1 3020.85 557)">-</text><text fill="#00305E" font-family="Open Sans Light,Open Sans Light_MSFontService,sans-serif" font-weight="300" font-size="74" transform="matrix(1 0 0 1 3044.92 557)">else</text><text fill="#00305E" font-family="Open Sans Light,Open Sans Light_MSFontService,sans-serif" font-weight="300" font-size="74" transform="matrix(1 0 0 1 2977.06 873)">switch</text><text fill="#00305E" font-family="Open Sans Light,Open Sans Light_MSFontService,sans-serif" font-weight="300" font-size="74" transform="matrix(1 0 0 1 3032.31 1358)">for</text><text fill="#00305E" font-family="Open Sans Light,Open Sans Light_MSFontService,sans-serif" font-weight="300" font-size="74" transform="matrix(1 0 0 1 2995.68 1533)">w</text><text fill="#00305E" font-family="Open Sans Light,Open Sans Light_MSFontService,sans-serif" font-weight="300" font-size="74" transform="matrix(1 0 0 1 3049.53 1533)">hile</text><text fill="#00305E" font-family="Open Sans,Open Sans_MSFontService,sans-serif" font-weight="400" font-size="74" transform="matrix(1 0 0 1 2988.39 1264)">Loop</text><path d="M0 0 441.313 1.60705" stroke="#00305E" stroke-width="9.16667" stroke-miterlimit="8" stroke-dasharray="36.6667 27.5" fill="none" fill-rule="evenodd" transform="matrix(1 0 0 -1 914.5 449.107)"/><path d="M0 0 441.313 1.32664" stroke="#00305E" stroke-width="9.16667" stroke-miterlimit="8" stroke-dasharray="36.6667 27.5" fill="none" fill-rule="evenodd" transform="matrix(1 0 0 -1 914.5 1049.83)"/><path d="M0 0 441.313 1.04623" stroke="#00305E" stroke-width="9.16667" stroke-miterlimit="8" stroke-dasharray="36.6667 27.5" fill="none" fill-rule="evenodd" transform="matrix(1 0 0 -1 914.5 1428.55)"/><text fill="#00305E" font-family="Open Sans,Open Sans_MSFontService,sans-serif" font-weight="400" font-size="74" transform="matrix(1 0 0 1 1043.34 424)">Math</text><text fill="#00305E" font-family="Open Sans,Open Sans_MSFontService,sans-serif" font-weight="400" font-size="74" transform="matrix(1 0 0 1 988.197 1029)">Function</text><rect x="186.5" y="260.5" width="780" height="1442" stroke="#007D40" stroke-width="6.875" stroke-miterlimit="8" stroke-dasharray="27.5 20.625" fill="none"/><text fill="#007D40" font-family="Open Sans,Open Sans_MSFontService,sans-serif" font-weight="400" font-size="74" transform="matrix(1 0 0 1 553.009 240)">R</text><rect x="238.5" y="293.5" width="676" height="312" stroke="#007D40" stroke-width="6.875" stroke-miterlimit="8" fill="#E6FFED"/><text fill="#00305E" font-family="Symbol,Symbol_MSFontService,sans-serif" font-weight="400" font-size="64" transform="matrix(1 0 0 1 251.054 355)"></text><text fill="#00305E" font-family="Open Sans Light,Open Sans Light_MSFontService,sans-serif" font-weight="300" font-size="64" transform="matrix(1 0 0 1 354.179 355)">‘+’ ‘</text><text fill="#00305E" font-family="Open Sans Light,Open Sans Light_MSFontService,sans-serif" font-weight="300" font-size="64" transform="matrix(1 0 0 1 434.96 355)">-</text><text fill="#00305E" font-family="Open Sans Light,Open Sans Light_MSFontService,sans-serif" font-weight="300" font-size="64" transform="matrix(1 0 0 1 455.585 355)">’ ’*’ ‘/’</text><text fill="#00305E" font-family="Symbol,Symbol_MSFontService,sans-serif" font-weight="400" font-size="64" transform="matrix(1 0 0 1 251.054 432)"></text><text fill="#00305E" font-family="Open Sans Light,Open Sans Light_MSFontService,sans-serif" font-weight="300" font-size="64" transform="matrix(1 0 0 1 354.179 432)">3^2, </text><text fill="#00305E" font-family="Open Sans Light,Open Sans Light_MSFontService,sans-serif" font-weight="300" font-size="64" transform="matrix(1 0 0 1 494.543 432)">exp</text><text fill="#00305E" font-family="Open Sans Light,Open Sans Light_MSFontService,sans-serif" font-weight="300" font-size="64" transform="matrix(1 0 0 1 600.533 432)">(),        </text><text fill="#00305E" font-family="Open Sans Light,Open Sans Light_MSFontService,sans-serif" font-weight="300" font-size="64" transform="matrix(1 0 0 1 354.179 509)">log()</text><text fill="#00305E" font-family="Symbol,Symbol_MSFontService,sans-serif" font-weight="400" font-size="64" transform="matrix(1 0 0 1 251.054 586)"></text><text fill="#00305E" font-family="Open Sans Light,Open Sans Light_MSFontService,sans-serif" font-weight="300" font-size="64" transform="matrix(1 0 0 1 354.179 586)">sin(), </text><text fill="#00305E" font-family="Open Sans Light,Open Sans Light_MSFontService,sans-serif" font-weight="300" font-size="64" transform="matrix(1 0 0 1 500.845 586)">atan</text><text fill="#00305E" font-family="Open Sans Light,Open Sans Light_MSFontService,sans-serif" font-weight="300" font-size="64" transform="matrix(1 0 0 1 627.46 586)">()</text><rect x="238.5" y="958.5" width="676" height="182" stroke="#007D40" stroke-width="6.875" stroke-miterlimit="8" fill="#E6FFED"/><text fill="#00305E" font-family="Open Sans Light,Open Sans Light_MSFontService,sans-serif" font-weight="300" font-size="64" transform="matrix(1 0 0 1 251.054 1032)">fct_name</text><text fill="#00305E" font-family="Open Sans Light,Open Sans Light_MSFontService,sans-serif" font-weight="300" font-size="64" transform="matrix(1 0 0 1 512.304 1032)">(v1</text><text fill="#00305E" font-family="Open Sans Light,Open Sans Light_MSFontService,sans-serif" font-weight="300" font-size="64" transform="matrix(1 0 0 1 595.377 1032)">, </text><text fill="#00305E" font-family="Open Sans Light,Open Sans Light_MSFontService,sans-serif" font-weight="300" font-size="64" transform="matrix(1 0 0 1 251.054 1109)">argument2 = </text><text fill="#00305E" font-family="Open Sans Light,Open Sans Light_MSFontService,sans-serif" font-weight="300" font-size="64" transform="matrix(1 0 0 1 638.918 1109)">v2</text><text fill="#00305E" font-family="Open Sans Light,Open Sans Light_MSFontService,sans-serif" font-weight="300" font-size="64" transform="matrix(1 0 0 1 704.804 1109)">, ...)</text><rect x="238.5" y="1188.5" width="676" height="480" stroke="#007D40" stroke-width="6.875" stroke-miterlimit="8" fill="#E6FFED"/><text fill="#00305E" font-family="Open Sans Light,Open Sans Light_MSFontService,sans-serif" font-weight="300" font-size="64" transform="matrix(1 0 0 1 251.054 1257)">fct_add1 &lt;</text><text fill="#00305E" font-family="Open Sans Light,Open Sans Light_MSFontService,sans-serif" font-weight="300" font-size="64" transform="matrix(1 0 0 1 548.97 1257)">-</text><text fill="#00305E" font-family="Open Sans,Open Sans_MSFontService,sans-serif" font-weight="700" font-size="64" transform="matrix(1 0 0 1 251.054 1334)">function</text><text fill="#00305E" font-family="Open Sans Light,Open Sans Light_MSFontService,sans-serif" font-weight="300" font-size="64" transform="matrix(1 0 0 1 523.189 1334)">(arg_1, </text><text fill="#00305E" font-family="Open Sans Light,Open Sans Light_MSFontService,sans-serif" font-weight="300" font-size="64" transform="matrix(1 0 0 1 251.054 1411)">arg_2 = 1, </text><text fill="#00305E" font-family="Open Sans Light,Open Sans Light_MSFontService,sans-serif" font-weight="300" font-size="64" transform="matrix(1 0 0 1 251.054 1488)">...) {</text><text fill="#00305E" font-family="Open Sans,Open Sans_MSFontService,sans-serif" font-weight="700" font-size="64" transform="matrix(1 0 0 1 267.668 1565)">return</text><text fill="#00305E" font-family="Open Sans Light,Open Sans Light_MSFontService,sans-serif" font-weight="300" font-size="64" transform="matrix(1 0 0 1 476.783 1565)">(arg_1 + arg_2)</text><text fill="#00305E" font-family="Open Sans Light,Open Sans Light_MSFontService,sans-serif" font-weight="300" font-size="64" transform="matrix(1 0 0 1 251.054 1642)">}</text><rect x="1301.5" y="260.5" width="779" height="1442" stroke="#F07D00" stroke-width="6.875" stroke-miterlimit="8" stroke-dasharray="27.5 20.625" fill="none"/><text fill="#F07D00" font-family="Open Sans,Open Sans_MSFontService,sans-serif" font-weight="400" font-size="74" transform="matrix(1 0 0 1 1568.97 240)">Python</text><rect x="1355.5" y="291.5" width="676" height="312" stroke="#F07D00" stroke-width="6.875" stroke-miterlimit="8" fill="#FFF9E0"/><text fill="#00305E" font-family="Symbol,Symbol_MSFontService,sans-serif" font-weight="400" font-size="64" transform="matrix(1 0 0 1 1367.96 360)"></text><text fill="#00305E" font-family="Open Sans Light,Open Sans Light_MSFontService,sans-serif" font-weight="300" font-size="64" transform="matrix(1 0 0 1 1471.08 360)">‘+’ ‘</text><text fill="#00305E" font-family="Open Sans Light,Open Sans Light_MSFontService,sans-serif" font-weight="300" font-size="64" transform="matrix(1 0 0 1 1551.86 360)">-</text><text fill="#00305E" font-family="Open Sans Light,Open Sans Light_MSFontService,sans-serif" font-weight="300" font-size="64" transform="matrix(1 0 0 1 1572.49 360)">’ ’*’ ‘/’</text><text fill="#00305E" font-family="Symbol,Symbol_MSFontService,sans-serif" font-weight="400" font-size="64" transform="matrix(1 0 0 1 1367.96 437)"></text><text fill="#00305E" font-family="Open Sans Light,Open Sans Light_MSFontService,sans-serif" font-weight="300" font-size="64" transform="matrix(1 0 0 1 1471.08 437)">3**2, </text><text fill="#00305E" font-family="Open Sans Light,Open Sans Light_MSFontService,sans-serif" font-weight="300" font-size="64" transform="matrix(1 0 0 1 1645.82 437)">math.exp</text><text fill="#00305E" font-family="Open Sans Light,Open Sans Light_MSFontService,sans-serif" font-weight="300" font-size="64" transform="matrix(1 0 0 1 1916.81 437)">(), </text><text fill="#00305E" font-family="Open Sans Light,Open Sans Light_MSFontService,sans-serif" font-weight="300" font-size="64" transform="matrix(1 0 0 1 1471.08 514)">math.log()</text><text fill="#00305E" font-family="Symbol,Symbol_MSFontService,sans-serif" font-weight="400" font-size="53" transform="matrix(1 0 0 1 1367.96 581)"></text><text fill="#00305E" font-family="Open Sans Light,Open Sans Light_MSFontService,sans-serif" font-weight="300" font-size="53" transform="matrix(1 0 0 1 1471.08 581)">math.sin</text><text fill="#00305E" font-family="Open Sans Light,Open Sans Light_MSFontService,sans-serif" font-weight="300" font-size="53" transform="matrix(1 0 0 1 1674.47 581)">(), </text><text fill="#00305E" font-family="Open Sans Light,Open Sans Light_MSFontService,sans-serif" font-weight="300" font-size="53" transform="matrix(1 0 0 1 1728.32 581)">math.atan</text><text fill="#00305E" font-family="Open Sans Light,Open Sans Light_MSFontService,sans-serif" font-weight="300" font-size="53" transform="matrix(1 0 0 1 1968.95 581)">()</text><rect x="1355.5" y="957.5" width="676" height="182" stroke="#F07D00" stroke-width="6.875" stroke-miterlimit="8" fill="#FFF9E0"/><text fill="#00305E" font-family="Open Sans Light,Open Sans Light_MSFontService,sans-serif" font-weight="300" font-size="64" transform="matrix(1 0 0 1 1367.96 1031)">fct_name</text><text fill="#00305E" font-family="Open Sans Light,Open Sans Light_MSFontService,sans-serif" font-weight="300" font-size="64" transform="matrix(1 0 0 1 1629.21 1031)">(v1, </text><text fill="#00305E" font-family="Open Sans Light,Open Sans Light_MSFontService,sans-serif" font-weight="300" font-size="64" transform="matrix(1 0 0 1 1367.96 1108)">argument2 = v2)</text><rect x="1355.5" y="1187.5" width="676" height="480" stroke="#F07D00" stroke-width="6.875" stroke-miterlimit="8" fill="#FFF9E0"/><text fill="#00305E" font-family="Open Sans,Open Sans_MSFontService,sans-serif" font-weight="700" font-size="64" transform="matrix(1 0 0 1 1367.96 1333)">def</text><text fill="#00305E" font-family="Open Sans Light,Open Sans Light_MSFontService,sans-serif" font-weight="300" font-size="64" transform="matrix(1 0 0 1 1487.7 1333)">fct_add1(arg_1,</text><text fill="#00305E" font-family="Open Sans Light,Open Sans Light_MSFontService,sans-serif" font-weight="300" font-size="64" transform="matrix(1 0 0 1 1384.57 1410)">arg_2 = 1, </text><text fill="#00305E" font-family="Open Sans Light,Open Sans Light_MSFontService,sans-serif" font-weight="300" font-size="64" transform="matrix(1 0 0 1 1367.96 1487)">*</text><text fill="#00305E" font-family="Open Sans Light,Open Sans Light_MSFontService,sans-serif" font-weight="300" font-size="64" transform="matrix(1 0 0 1 1403.48 1487)">args</text><text fill="#00305E" font-family="Open Sans Light,Open Sans Light_MSFontService,sans-serif" font-weight="300" font-size="64" transform="matrix(1 0 0 1 1525.51 1487)">, **</text><text fill="#00305E" font-family="Open Sans Light,Open Sans Light_MSFontService,sans-serif" font-weight="300" font-size="64" transform="matrix(1 0 0 1 1626.92 1487)">kwargs</text><text fill="#00305E" font-family="Open Sans Light,Open Sans Light_MSFontService,sans-serif" font-weight="300" font-size="64" transform="matrix(1 0 0 1 1826.29 1487)">):</text><text fill="#00305E" font-family="Open Sans,Open Sans_MSFontService,sans-serif" font-weight="700" font-size="64" transform="matrix(1 0 0 1 1401.19 1564)">return</text><text fill="#00305E" font-family="Open Sans Light,Open Sans Light_MSFontService,sans-serif" font-weight="300" font-size="64" transform="matrix(1 0 0 1 1626.92 1564)">arg_1 + arg_2</text><text fill="#00305E" font-family="Open Sans Light,Open Sans Light_MSFontService,sans-serif" font-weight="300" font-size="74" transform="matrix(1 0 0 1 1083.87 1120)">call</text><text fill="#00305E" font-family="Open Sans Light,Open Sans Light_MSFontService,sans-serif" font-weight="300" font-size="74" transform="matrix(1 0 0 1 1027.07 1408)">define</text><path d="M0 0 441.313 1.32664" stroke="#00305E" stroke-width="9.16667" stroke-miterlimit="8" stroke-dasharray="36.6667 27.5" fill="none" fill-rule="evenodd" transform="matrix(1 0 0 -1 914.5 781.827)"/><text fill="#00305E" font-family="Open Sans,Open Sans_MSFontService,sans-serif" font-weight="400" font-size="74" transform="matrix(1 0 0 1 1010.83 757)">Library</text><rect x="238.5" y="690.5" width="676" height="182" stroke="#007D40" stroke-width="6.875" stroke-miterlimit="8" fill="#E6FFED"/><text fill="#00305E" font-family="Open Sans,Open Sans_MSFontService,sans-serif" font-weight="700" font-size="64" transform="matrix(1 0 0 1 251.054 803)">library</text><text fill="#00305E" font-family="Open Sans Light,Open Sans Light_MSFontService,sans-serif" font-weight="300" font-size="64" transform="matrix(1 0 0 1 464.752 803)">(LIB)</text><rect x="1355.5" y="689.5" width="676" height="182" stroke="#F07D00" stroke-width="6.875" stroke-miterlimit="8" fill="#FFF9E0"/><text fill="#00305E" font-family="Open Sans,Open Sans_MSFontService,sans-serif" font-weight="700" font-size="64" transform="matrix(1 0 0 1 1367.96 763)">import</text><text fill="#00305E" font-family="Open Sans Light,Open Sans Light_MSFontService,sans-serif" font-weight="300" font-size="64" transform="matrix(1 0 0 1 1604.57 763)">LIB</text><text fill="#00305E" font-family="Open Sans,Open Sans_MSFontService,sans-serif" font-weight="700" font-size="64" transform="matrix(1 0 0 1 1367.96 840)">import</text><text fill="#00305E" font-family="Open Sans Light,Open Sans Light_MSFontService,sans-serif" font-weight="300" font-size="64" transform="matrix(1 0 0 1 1604.57 840)">LIB</text><text fill="#00305E" font-family="Open Sans,Open Sans_MSFontService,sans-serif" font-weight="700" font-size="64" transform="matrix(1 0 0 1 1709.99 840)">as</text><text fill="#00305E" font-family="Open Sans Light,Open Sans Light_MSFontService,sans-serif" font-weight="300" font-size="64" transform="matrix(1 0 0 1 1797.64 840)">L</text></g></svg>