<svg width="2798" height="1889" xmlns="http://www.w3.org/2000/svg" xmlns:xlink="http://www.w3.org/1999/xlink" xml:space="preserve" overflow="hidden"><g transform="translate(-428 -251)"><rect x="1788.5" y="1538.5" width="130" height="129" stroke="#003F20" stroke-width="4.58333" stroke-miterlimit="8" fill="#004588"/><rect x="1788.5" y="1667.5" width="130" height="130" stroke="#003F20" stroke-width="4.58333" stroke-miterlimit="8" fill="#E1F5CD"/><rect x="1788.5" y="1797.5" width="130" height="130" stroke="#003F20" stroke-width="4.58333" stroke-miterlimit="8" fill="#E1F5CD"/><rect x="1788.5" y="1927.5" width="130" height="130" stroke="#003F20" stroke-width="4.58333" stroke-miterlimit="8" fill="#E1F5CD"/><rect x="1916.5" y="1538.5" width="130" height="129" stroke="#003F20" stroke-width="4.58333" stroke-miterlimit="8" fill="#E1F5CD"/><rect x="1916.5" y="1667.5" width="130" height="130" stroke="#003F20" stroke-width="4.58333" stroke-miterlimit="8" fill="#BCCF02"/><rect x="1916.5" y="1797.5" width="130" height="130" stroke="#003F20" stroke-width="4.58333" stroke-miterlimit="8" fill="#E1F5CD"/><rect x="1916.5" y="1927.5" width="130" height="130" stroke="#003F20" stroke-width="4.58333" stroke-miterlimit="8" fill="#E1F5CD"/><rect x="2046.5" y="1538.5" width="130" height="129" stroke="#003F20" stroke-width="4.58333" stroke-miterlimit="8" fill="#E1F5CD"/><rect x="2046.5" y="1667.5" width="130" height="130" stroke="#003F20" stroke-width="4.58333" stroke-miterlimit="8" fill="#E1F5CD"/><rect x="2046.5" y="1797.5" width="130" height="130" stroke="#003F20" stroke-width="4.58333" stroke-miterlimit="8" fill="#97CCFF"/><rect x="2046.5" y="1927.5" width="130" height="130" stroke="#003F20" stroke-width="4.58333" stroke-miterlimit="8" fill="#E1F5CD"/><rect x="2176.5" y="1538.5" width="130" height="129" stroke="#003F20" stroke-width="4.58333" stroke-miterlimit="8" fill="#E1F5CD"/><rect x="2176.5" y="1667.5" width="130" height="130" stroke="#003F20" stroke-width="4.58333" stroke-miterlimit="8" fill="#FF0000"/><rect x="2176.5" y="1797.5" width="130" height="130" stroke="#003F20" stroke-width="4.58333" stroke-miterlimit="8" fill="#F07D00"/><rect x="2176.5" y="1927.5" width="130" height="130" stroke="#003F20" stroke-width="4.58333" stroke-miterlimit="8" fill="#E1F5CD"/><rect x="2304.5" y="1538.5" width="130" height="129" stroke="#003F20" stroke-width="4.58333" stroke-miterlimit="8" fill="#7BC9FF"/><rect x="2304.5" y="1667.5" width="130" height="130" stroke="#003F20" stroke-width="4.58333" stroke-miterlimit="8" fill="#F182DF"/><rect x="2304.5" y="1797.5" width="130" height="130" stroke="#003F20" stroke-width="4.58333" stroke-miterlimit="8" fill="#65FFB4"/><rect x="2304.5" y="1927.5" width="130" height="130" stroke="#003F20" stroke-width="4.58333" stroke-miterlimit="8" fill="#28618C"/><rect x="2434.5" y="1538.5" width="130" height="129" stroke="#003F20" stroke-width="4.58333" stroke-miterlimit="8" fill="#DBD2ED"/><rect x="2434.5" y="1667.5" width="130" height="130" stroke="#003F20" stroke-width="4.58333" stroke-miterlimit="8" fill="#93C356"/><rect x="2434.5" y="1797.5" width="130" height="130" stroke="#003F20" stroke-width="4.58333" stroke-miterlimit="8" fill="#003F20"/><rect x="2434.5" y="1927.5" width="130" height="130" stroke="#003F20" stroke-width="4.58333" stroke-miterlimit="8" fill="#E02D8A"/><path d="M3.4375-2.22061e-06 3.43786 551.579-3.43714 551.579-3.4375 2.22061e-06ZM25.9219 512 0.000359817 558.658-25.9213 512C-26.8432 510.34-26.2453 508.247-24.5857 507.325-22.9262 506.403-20.8334 507.001-19.9114 508.661L3.00527 549.911-3.00456 549.911 19.9121 508.661C20.8341 507.001 22.9268 506.403 24.5864 507.325 26.246 508.247 26.8439 510.34 25.9219 512Z" fill="#E02D8A" transform="matrix(1 0 0 -1 1743.5 2097.16)"/><path d="M1743.5 2093.06 2554.92 2093.06 2554.92 2099.94 1743.5 2099.94ZM2515.34 2070.58 2562 2096.5 2515.34 2122.42C2513.68 2123.34 2511.59 2122.75 2510.67 2121.09 2509.75 2119.43 2510.34 2117.33 2512 2116.41L2553.25 2093.5 2553.25 2099.51 2512 2076.59C2510.34 2075.67 2509.75 2073.57 2510.67 2071.91 2511.59 2070.25 2513.68 2069.66 2515.34 2070.58Z" fill="#E02D8A"/><text fill="#54378A" font-family="Open Sans,Open Sans_MSFontService,sans-serif" font-weight="700" font-size="74" transform="matrix(1 0 0 1 1775.89 1436)">Raster </text><text fill="#54378A" font-family="Open Sans,Open Sans_MSFontService,sans-serif" font-weight="700" font-size="74" transform="matrix(1 0 0 1 2036 1436)">based</text><text fill="#54378A" font-family="Open Sans,Open Sans_MSFontService,sans-serif" font-weight="700" font-size="74" transform="matrix(1 0 0 1 517.583 1436)">Vector </text><text fill="#54378A" font-family="Open Sans,Open Sans_MSFontService,sans-serif" font-weight="700" font-size="74" transform="matrix(1 0 0 1 779.406 1436)">based</text><text fill="#00305E" font-family="Open Sans,Open Sans_MSFontService,sans-serif" font-weight="400" font-size="74" transform="matrix(1 0 0 1 523.837 1596)">Point</text><text fill="#00305E" font-family="Open Sans,Open Sans_MSFontService,sans-serif" font-weight="400" font-size="74" transform="matrix(1 0 0 1 526.071 1817)">Line</text><text fill="#00305E" font-family="Open Sans,Open Sans_MSFontService,sans-serif" font-weight="400" font-size="74" transform="matrix(1 0 0 1 525.264 2038)">Polygon</text><rect x="563.5" y="568.5" width="130" height="130" stroke="#003F20" stroke-width="4.58333" stroke-miterlimit="8" fill="#E1F5CD"/><rect x="563.5" y="698.5" width="130" height="129" stroke="#003F20" stroke-width="4.58333" stroke-miterlimit="8" fill="#E1F5CD"/><rect x="563.5" y="827.5" width="130" height="130" stroke="#003F20" stroke-width="4.58333" stroke-miterlimit="8" fill="#E1F5CD"/><rect x="563.5" y="957.5" width="130" height="130" stroke="#003F20" stroke-width="4.58333" stroke-miterlimit="8" fill="#E1F5CD"/><rect x="1021.5" y="568.5" width="130" height="130" stroke="#003F20" stroke-width="4.58333" stroke-miterlimit="8" fill="#E1F5CD"/><rect x="1021.5" y="698.5" width="130" height="129" stroke="#003F20" stroke-width="4.58333" stroke-miterlimit="8" fill="#E1F5CD"/><rect x="1021.5" y="827.5" width="130" height="130" stroke="#003F20" stroke-width="4.58333" stroke-miterlimit="8" fill="#E1F5CD"/><rect x="1021.5" y="957.5" width="130" height="130" stroke="#003F20" stroke-width="4.58333" stroke-miterlimit="8" fill="#E1F5CD"/><rect x="1149.5" y="568.5" width="130" height="130" stroke="#003F20" stroke-width="4.58333" stroke-miterlimit="8" fill="#E1F5CD"/><rect x="1149.5" y="698.5" width="130" height="129" stroke="#003F20" stroke-width="4.58333" stroke-miterlimit="8" fill="#E1F5CD"/><rect x="1149.5" y="827.5" width="130" height="130" stroke="#003F20" stroke-width="4.58333" stroke-miterlimit="8" fill="#E1F5CD"/><rect x="1149.5" y="957.5" width="130" height="130" stroke="#003F20" stroke-width="4.58333" stroke-miterlimit="8" fill="#E1F5CD"/><rect x="1279.5" y="568.5" width="130" height="130" stroke="#003F20" stroke-width="4.58333" stroke-miterlimit="8" fill="#E1F5CD"/><rect x="1279.5" y="698.5" width="130" height="129" stroke="#003F20" stroke-width="4.58333" stroke-miterlimit="8" fill="#E1F5CD"/><rect x="1279.5" y="827.5" width="130" height="130" stroke="#003F20" stroke-width="4.58333" stroke-miterlimit="8" fill="#E1F5CD"/><rect x="1279.5" y="957.5" width="130" height="130" stroke="#003F20" stroke-width="4.58333" stroke-miterlimit="8" fill="#E1F5CD"/><path d="M984.937 529.5 984.938 1081.08 978.063 1081.08 978.062 529.5ZM1007.42 1041.5 981.5 1088.16 955.579 1041.5C954.657 1039.84 955.255 1037.75 956.914 1036.83 958.574 1035.9 960.666 1036.5 961.588 1038.16L984.505 1079.41 978.495 1079.41 1001.41 1038.16C1002.33 1036.5 1004.43 1035.9 1006.09 1036.83 1007.75 1037.75 1008.34 1039.84 1007.42 1041.5Z" fill="#54378A"/><path d="M979.5 528.062 1401.16 528.063 1401.16 534.938 979.5 534.937ZM1361.58 505.579 1408.24 531.5 1361.58 557.422C1359.92 558.344 1357.83 557.746 1356.9 556.086 1355.98 554.427 1356.58 552.334 1358.24 551.412L1399.49 528.495 1399.49 534.505 1358.24 511.589C1356.58 510.667 1355.98 508.574 1356.9 506.914 1357.83 505.255 1359.92 504.657 1361.58 505.579Z" fill="#E02D8A"/><path d="M1696.94 531.5 1696.94 1083.08 1690.06 1083.08 1690.06 531.5ZM1719.42 1043.5 1693.5 1090.16 1667.58 1043.5C1666.66 1041.84 1667.25 1039.75 1668.91 1038.83 1670.57 1037.9 1672.67 1038.5 1673.59 1040.16L1696.51 1081.41 1690.5 1081.41 1713.41 1040.16C1714.33 1038.5 1716.43 1037.9 1718.09 1038.83 1719.75 1039.75 1720.34 1041.84 1719.42 1043.5Z" fill="#54378A"/><path d="M2.43068-2.43068 127.345 122.483 122.483 127.345-2.43068 2.43068ZM115.256 78.597 129.919 129.919 78.597 115.256C76.7716 114.734 75.7146 112.832 76.2361 111.006 76.7577 109.181 78.6603 108.124 80.4857 108.645L125.858 121.609 121.609 125.858 108.645 80.4857C108.124 78.6603 109.181 76.7577 111.006 76.2361 112.832 75.7146 114.734 76.7716 115.256 78.597Z" fill="#E02D8A" transform="matrix(1 0 0 -1 1692.5 532.421)"/><rect x="1859.5" y="447.5" width="130" height="129" stroke="#003F20" stroke-width="4.58333" stroke-miterlimit="8" fill="#E1F5CD"/><rect x="1859.5" y="576.5" width="130" height="130" stroke="#003F20" stroke-width="4.58333" stroke-miterlimit="8" fill="#E1F5CD"/><rect x="1859.5" y="706.5" width="130" height="130" stroke="#003F20" stroke-width="4.58333" stroke-miterlimit="8" fill="#E1F5CD"/><rect x="1859.5" y="836.5" width="130" height="130" stroke="#003F20" stroke-width="4.58333" stroke-miterlimit="8" fill="#E1F5CD"/><rect x="1987.5" y="447.5" width="130" height="129" stroke="#003F20" stroke-width="4.58333" stroke-miterlimit="8" fill="#E1F5CD"/><rect x="1987.5" y="576.5" width="130" height="130" stroke="#003F20" stroke-width="4.58333" stroke-miterlimit="8" fill="#E1F5CD"/><rect x="1987.5" y="706.5" width="130" height="130" stroke="#003F20" stroke-width="4.58333" stroke-miterlimit="8" fill="#E1F5CD"/><rect x="1987.5" y="836.5" width="130" height="130" stroke="#003F20" stroke-width="4.58333" stroke-miterlimit="8" fill="#E1F5CD"/><rect x="2117.5" y="447.5" width="130" height="129" stroke="#003F20" stroke-width="4.58333" stroke-miterlimit="8" fill="#E1F5CD"/><rect x="2117.5" y="576.5" width="130" height="130" stroke="#003F20" stroke-width="4.58333" stroke-miterlimit="8" fill="#E1F5CD"/><rect x="2117.5" y="706.5" width="130" height="130" stroke="#003F20" stroke-width="4.58333" stroke-miterlimit="8" fill="#E1F5CD"/><rect x="2117.5" y="836.5" width="130" height="130" stroke="#003F20" stroke-width="4.58333" stroke-miterlimit="8" fill="#E1F5CD"/><rect x="1796.5" y="505.5" width="130" height="130" stroke="#003F20" stroke-width="4.58333" stroke-miterlimit="8" fill="#E1F5CD"/><rect x="1796.5" y="635.5" width="130" height="130" stroke="#003F20" stroke-width="4.58333" stroke-miterlimit="8" fill="#E1F5CD"/><rect x="1796.5" y="765.5" width="130" height="130" stroke="#003F20" stroke-width="4.58333" stroke-miterlimit="8" fill="#E1F5CD"/><rect x="1796.5" y="895.5" width="130" height="130" stroke="#003F20" stroke-width="4.58333" stroke-miterlimit="8" fill="#E1F5CD"/><rect x="1925.5" y="505.5" width="130" height="130" stroke="#003F20" stroke-width="4.58333" stroke-miterlimit="8" fill="#E1F5CD"/><rect x="1925.5" y="635.5" width="130" height="130" stroke="#003F20" stroke-width="4.58333" stroke-miterlimit="8" fill="#E1F5CD"/><rect x="1925.5" y="765.5" width="130" height="130" stroke="#003F20" stroke-width="4.58333" stroke-miterlimit="8" fill="#E1F5CD"/><rect x="1925.5" y="895.5" width="130" height="130" stroke="#003F20" stroke-width="4.58333" stroke-miterlimit="8" fill="#E1F5CD"/><rect x="2055.5" y="505.5" width="129" height="130" stroke="#003F20" stroke-width="4.58333" stroke-miterlimit="8" fill="#E1F5CD"/><rect x="2055.5" y="635.5" width="129" height="130" stroke="#003F20" stroke-width="4.58333" stroke-miterlimit="8" fill="#E1F5CD"/><rect x="2055.5" y="765.5" width="129" height="130" stroke="#003F20" stroke-width="4.58333" stroke-miterlimit="8" fill="#E1F5CD"/><rect x="2055.5" y="895.5" width="129" height="130" stroke="#003F20" stroke-width="4.58333" stroke-miterlimit="8" fill="#E1F5CD"/><rect x="1731.5" y="570.5" width="130" height="130" stroke="#003F20" stroke-width="4.58333" stroke-miterlimit="8" fill="#E1F5CD"/><rect x="1731.5" y="700.5" width="130" height="130" stroke="#003F20" stroke-width="4.58333" stroke-miterlimit="8" fill="#E1F5CD"/><rect x="1731.5" y="830.5" width="130" height="130" stroke="#003F20" stroke-width="4.58333" stroke-miterlimit="8" fill="#E1F5CD"/><rect x="1731.5" y="960.5" width="130" height="130" stroke="#003F20" stroke-width="4.58333" stroke-miterlimit="8" fill="#E1F5CD"/><rect x="1860.5" y="570.5" width="130" height="130" stroke="#003F20" stroke-width="4.58333" stroke-miterlimit="8" fill="#E1F5CD"/><rect x="1860.5" y="700.5" width="130" height="130" stroke="#003F20" stroke-width="4.58333" stroke-miterlimit="8" fill="#E1F5CD"/><rect x="1860.5" y="830.5" width="130" height="130" stroke="#003F20" stroke-width="4.58333" stroke-miterlimit="8" fill="#E1F5CD"/><rect x="1860.5" y="960.5" width="130" height="130" stroke="#003F20" stroke-width="4.58333" stroke-miterlimit="8" fill="#E1F5CD"/><rect x="1990.5" y="570.5" width="130" height="130" stroke="#003F20" stroke-width="4.58333" stroke-miterlimit="8" fill="#E1F5CD"/><rect x="1990.5" y="700.5" width="130" height="130" stroke="#003F20" stroke-width="4.58333" stroke-miterlimit="8" fill="#E1F5CD"/><rect x="1990.5" y="830.5" width="130" height="130" stroke="#003F20" stroke-width="4.58333" stroke-miterlimit="8" fill="#E1F5CD"/><rect x="1990.5" y="960.5" width="130" height="130" stroke="#003F20" stroke-width="4.58333" stroke-miterlimit="8" fill="#E1F5CD"/><path d="M1693.5 531.063 2115.16 531.063 2115.16 537.938 1693.5 537.938ZM2075.58 508.579 2122.24 534.5 2075.58 560.422C2073.92 561.344 2071.83 560.746 2070.9 559.086 2069.98 557.427 2070.58 555.334 2072.24 554.412L2113.49 531.495 2113.49 537.505 2072.24 514.589C2070.58 513.667 2069.98 511.574 2070.9 509.914 2071.83 508.255 2073.92 507.657 2075.58 508.579Z" fill="#E02D8A"/><text fill="#00305E" font-family="Open Sans,Open Sans_MSFontService,sans-serif" font-weight="700" font-size="74" transform="matrix(1 0 0 1 476.645 344)">Timeserise</text><text fill="#00305E" font-family="Open Sans,Open Sans_MSFontService,sans-serif" font-weight="700" font-size="74" transform="matrix(1 0 0 1 897.166 344)">Array</text><text fill="#00305E" font-family="Open Sans,Open Sans_MSFontService,sans-serif" font-weight="400" font-size="74" transform="matrix(1 0 0 1 472.737 428)">1D</text><text fill="#00305E" font-family="Open Sans,Open Sans_MSFontService,sans-serif" font-weight="400" font-size="74" transform="matrix(1 0 0 1 967.946 428)">2D</text><text fill="#00305E" font-family="Open Sans,Open Sans_MSFontService,sans-serif" font-weight="400" font-size="74" transform="matrix(1 0 0 1 1673.34 430)">3D</text><path d="M526.938 564.5 526.938 1077.1 520.063 1077.1 520.063 564.5ZM549.422 1037.52 523.5 1084.18 497.579 1037.52C496.657 1035.86 497.255 1033.77 498.914 1032.85 500.574 1031.93 502.667 1032.52 503.589 1034.18L526.505 1075.43 520.495 1075.43 543.412 1034.18C544.334 1032.52 546.427 1031.93 548.086 1032.85 549.746 1033.77 550.344 1035.86 549.422 1037.52Z" fill="#54378A"/><path d="M490.5 623.5 555.461 623.5" stroke="#54378A" stroke-width="6.875" stroke-miterlimit="8" fill="none" fill-rule="evenodd"/><path d="M490.5 753.5 555.461 753.5" stroke="#54378A" stroke-width="6.875" stroke-miterlimit="8" fill="none" fill-rule="evenodd"/><path d="M490.5 883.5 555.461 883.5" stroke="#54378A" stroke-width="6.875" stroke-miterlimit="8" fill="none" fill-rule="evenodd"/><path d="M490.5 1013.5 555.461 1013.5" stroke="#54378A" stroke-width="6.875" stroke-miterlimit="8" fill="none" fill-rule="evenodd"/><path d="M949.5 633.5 1014.46 633.5" stroke="#54378A" stroke-width="6.875" stroke-miterlimit="8" fill="none" fill-rule="evenodd"/><path d="M949.5 763.5 1014.46 763.5" stroke="#54378A" stroke-width="6.875" stroke-miterlimit="8" fill="none" fill-rule="evenodd"/><path d="M949.5 892.5 1014.46 892.5" stroke="#54378A" stroke-width="6.875" stroke-miterlimit="8" fill="none" fill-rule="evenodd"/><path d="M949.5 1022.5 1014.46 1022.5" stroke="#54378A" stroke-width="6.875" stroke-miterlimit="8" fill="none" fill-rule="evenodd"/><path d="M1659.5 635.5 1724.46 635.5" stroke="#54378A" stroke-width="6.875" stroke-miterlimit="8" fill="none" fill-rule="evenodd"/><path d="M1659.5 765.5 1724.46 765.5" stroke="#54378A" stroke-width="6.875" stroke-miterlimit="8" fill="none" fill-rule="evenodd"/><path d="M1659.5 895.5 1724.46 895.5" stroke="#54378A" stroke-width="6.875" stroke-miterlimit="8" fill="none" fill-rule="evenodd"/><path d="M1659.5 1025.5 1724.46 1025.5" stroke="#54378A" stroke-width="6.875" stroke-miterlimit="8" fill="none" fill-rule="evenodd"/><rect x="2574.5" y="568.5" width="129" height="130" stroke="#003F20" stroke-width="4.58333" stroke-miterlimit="8" fill="#E1F5CD"/><rect x="2574.5" y="698.5" width="129" height="129" stroke="#003F20" stroke-width="4.58333" stroke-miterlimit="8" fill="#E1F5CD"/><rect x="2574.5" y="827.5" width="129" height="130" stroke="#003F20" stroke-width="4.58333" stroke-miterlimit="8" fill="#E1F5CD"/><rect x="2574.5" y="957.5" width="129" height="130" stroke="#003F20" stroke-width="4.58333" stroke-miterlimit="8" fill="#E1F5CD"/><rect x="2703.5" y="568.5" width="130" height="130" stroke="#003F20" stroke-width="4.58333" stroke-miterlimit="8" fill="#8DDDFF"/><rect x="2703.5" y="698.5" width="130" height="129" stroke="#003F20" stroke-width="4.58333" stroke-miterlimit="8" fill="#8DDDFF"/><rect x="2703.5" y="827.5" width="130" height="130" stroke="#003F20" stroke-width="4.58333" stroke-miterlimit="8" fill="#8DDDFF"/><rect x="2703.5" y="957.5" width="130" height="130" stroke="#003F20" stroke-width="4.58333" stroke-miterlimit="8" fill="#8DDDFF"/><rect x="2833.5" y="568.5" width="130" height="130" stroke="#003F20" stroke-width="4.58333" stroke-miterlimit="8" fill="#F182DF"/><rect x="2833.5" y="698.5" width="130" height="129" stroke="#003F20" stroke-width="4.58333" stroke-miterlimit="8" fill="#F182DF"/><rect x="2833.5" y="827.5" width="130" height="130" stroke="#003F20" stroke-width="4.58333" stroke-miterlimit="8" fill="#F182DF"/><rect x="2833.5" y="957.5" width="130" height="130" stroke="#003F20" stroke-width="4.58333" stroke-miterlimit="8" fill="#F182DF"/><path d="M2643.94 453.5 2643.94 543.86 2637.06 543.86 2637.06 453.5ZM2666.42 504.279 2640.5 550.938 2614.58 504.279C2613.66 502.62 2614.25 500.527 2615.91 499.605 2617.57 498.683 2619.67 499.281 2620.59 500.94L2643.5 542.19 2637.5 542.19 2660.41 500.94C2661.33 499.281 2663.43 498.683 2665.09 499.605 2666.75 500.527 2667.34 502.619 2666.42 504.279Z" fill="#50841A"/><path d="M2772.94 453.5 2772.94 543.86 2766.06 543.86 2766.06 453.5ZM2795.42 504.279 2769.5 550.938 2743.58 504.279C2742.66 502.62 2743.25 500.527 2744.91 499.605 2746.57 498.683 2748.67 499.281 2749.59 500.94L2772.51 542.19 2766.5 542.19 2789.41 500.94C2790.33 499.281 2792.43 498.683 2794.09 499.605 2795.75 500.527 2796.34 502.619 2795.42 504.279Z" fill="#38AEFF"/><path d="M2901.94 453.5 2901.94 543.86 2895.06 543.86 2895.06 453.5ZM2924.42 504.279 2898.5 550.938 2872.58 504.279C2871.66 502.62 2872.25 500.527 2873.91 499.605 2875.57 498.683 2877.67 499.281 2878.59 500.94L2901.51 542.19 2895.5 542.19 2918.41 500.94C2919.33 499.281 2921.43 498.683 2923.09 499.605 2924.75 500.527 2925.34 502.619 2924.42 504.279Z" fill="#EB43D0"/><rect x="2963.5" y="568.5" width="130" height="130" stroke="#003F20" stroke-width="4.58333" stroke-miterlimit="8" fill="#F07D00"/><rect x="2963.5" y="698.5" width="130" height="129" stroke="#003F20" stroke-width="4.58333" stroke-miterlimit="8" fill="#F07D00"/><rect x="2963.5" y="827.5" width="130" height="130" stroke="#003F20" stroke-width="4.58333" stroke-miterlimit="8" fill="#F07D00"/><rect x="2963.5" y="957.5" width="130" height="130" stroke="#003F20" stroke-width="4.58333" stroke-miterlimit="8" fill="#F07D00"/><rect x="3093.5" y="568.5" width="130" height="130" stroke="#003F20" stroke-width="4.58333" stroke-miterlimit="8" fill="#28618C"/><rect x="3093.5" y="698.5" width="130" height="129" stroke="#003F20" stroke-width="4.58333" stroke-miterlimit="8" fill="#28618C"/><rect x="3093.5" y="827.5" width="130" height="130" stroke="#003F20" stroke-width="4.58333" stroke-miterlimit="8" fill="#28618C"/><rect x="3093.5" y="957.5" width="130" height="130" stroke="#003F20" stroke-width="4.58333" stroke-miterlimit="8" fill="#28618C"/><path d="M3032.94 453.5 3032.94 543.86 3026.06 543.86 3026.06 453.5ZM3055.42 504.279 3029.5 550.938 3003.58 504.279C3002.66 502.62 3003.25 500.527 3004.91 499.605 3006.57 498.683 3008.67 499.281 3009.59 500.94L3032.51 542.19 3026.5 542.19 3049.41 500.94C3050.33 499.281 3052.43 498.683 3054.09 499.605 3055.75 500.527 3056.34 502.619 3055.42 504.279Z" fill="#F07D00"/><path d="M3161.94 453.5 3161.94 543.86 3155.06 543.86 3155.06 453.5ZM3184.42 504.279 3158.5 550.938 3132.58 504.279C3131.66 502.62 3132.25 500.527 3133.91 499.605 3135.57 498.683 3137.67 499.281 3138.59 500.94L3161.5 542.19 3155.5 542.19 3178.41 500.94C3179.33 499.281 3181.43 498.683 3183.09 499.605 3184.75 500.527 3185.34 502.619 3184.42 504.279Z" fill="#28618C"/><text fill="#00305E" font-family="Open Sans,Open Sans_MSFontService,sans-serif" font-weight="700" font-size="74" transform="matrix(1 0 0 1 2509.85 344)">Timeserise</text><text fill="#00305E" font-family="Open Sans,Open Sans_MSFontService,sans-serif" font-weight="700" font-size="74" transform="matrix(1 0 0 1 2930.37 344)">Table</text><path d="M2523.94 568.5 2523.94 1081.1 2517.06 1081.1 2517.06 568.5ZM2546.42 1041.52 2520.5 1088.18 2494.58 1041.52C2493.66 1039.86 2494.25 1037.77 2495.91 1036.85 2497.57 1035.93 2499.67 1036.52 2500.59 1038.18L2523.51 1079.43 2517.5 1079.43 2540.41 1038.18C2541.33 1036.52 2543.43 1035.93 2545.09 1036.85 2546.75 1037.77 2547.34 1039.86 2546.42 1041.52Z" fill="#54378A"/><path d="M2488.5 627.5 2553.46 627.5" stroke="#54378A" stroke-width="6.875" stroke-miterlimit="8" fill="none" fill-rule="evenodd"/><path d="M2488.5 756.5 2553.46 756.5" stroke="#54378A" stroke-width="6.875" stroke-miterlimit="8" fill="none" fill-rule="evenodd"/><path d="M2488.5 886.5 2553.46 886.5" stroke="#54378A" stroke-width="6.875" stroke-miterlimit="8" fill="none" fill-rule="evenodd"/><path d="M2488.5 1016.5 2553.46 1016.5" stroke="#54378A" stroke-width="6.875" stroke-miterlimit="8" fill="none" fill-rule="evenodd"/><path d="M756.916 1349.44 756.916 1213.89 1214.98 1213.89 1210.4 1218.47 1210.4 1110.42 1219.56 1110.42 1219.56 1223.06 761.5 1223.06 766.083 1218.47 766.083 1349.44ZM1201.23 1115 1214.98 1087.5 1228.73 1115Z" fill="#54378A"/><path d="M820.5 1632.06 1631.92 1632.06 1631.92 1638.94 820.5 1638.94ZM1592.34 1609.58 1639 1635.5 1592.34 1661.42C1590.68 1662.34 1588.59 1661.75 1587.67 1660.09 1586.75 1658.43 1587.34 1656.33 1589 1655.41L1630.25 1632.5 1630.25 1638.51 1589 1615.59C1587.34 1614.67 1586.75 1612.57 1587.67 1610.91 1588.59 1609.25 1590.68 1608.66 1592.34 1609.58Z" fill="#E02D8A"/><path d="M953.5 1541.5C953.5 1534.32 959.32 1528.5 966.5 1528.5 973.68 1528.5 979.5 1534.32 979.5 1541.5 979.5 1548.68 973.68 1554.5 966.5 1554.5 959.32 1554.5 953.5 1548.68 953.5 1541.5Z" stroke="#003F20" stroke-width="4.58333" stroke-miterlimit="8" fill="#F182DF" fill-rule="evenodd"/><path d="M918.5 1541.5C918.5 1534.32 924.32 1528.5 931.5 1528.5 938.68 1528.5 944.5 1534.32 944.5 1541.5 944.5 1548.68 938.68 1554.5 931.5 1554.5 924.32 1554.5 918.5 1548.68 918.5 1541.5Z" stroke="#003F20" stroke-width="4.58333" stroke-miterlimit="8" fill="#FF0000" fill-rule="evenodd"/><path d="M1057.5 1541.5C1057.5 1534.32 1063.32 1528.5 1070.5 1528.5 1077.68 1528.5 1083.5 1534.32 1083.5 1541.5 1083.5 1548.68 1077.68 1554.5 1070.5 1554.5 1063.32 1554.5 1057.5 1548.68 1057.5 1541.5Z" stroke="#003F20" stroke-width="4.58333" stroke-miterlimit="8" fill="#F07D00" fill-rule="evenodd"/><path d="M1092.5 1541.5C1092.5 1534.32 1098.32 1528.5 1105.5 1528.5 1112.68 1528.5 1118.5 1534.32 1118.5 1541.5 1118.5 1548.68 1112.68 1554.5 1105.5 1554.5 1098.32 1554.5 1092.5 1548.68 1092.5 1541.5Z" stroke="#003F20" stroke-width="4.58333" stroke-miterlimit="8" fill="#C3EB9B" fill-rule="evenodd"/><path d="M1473.5 1541.5C1473.5 1534.32 1479.32 1528.5 1486.5 1528.5 1493.68 1528.5 1499.5 1534.32 1499.5 1541.5 1499.5 1548.68 1493.68 1554.5 1486.5 1554.5 1479.32 1554.5 1473.5 1548.68 1473.5 1541.5Z" stroke="#003F20" stroke-width="4.58333" stroke-miterlimit="8" fill="#F182DF" fill-rule="evenodd"/><path d="M1230.5 1541.5C1230.5 1534.32 1236.32 1528.5 1243.5 1528.5 1250.68 1528.5 1256.5 1534.32 1256.5 1541.5 1256.5 1548.68 1250.68 1554.5 1243.5 1554.5 1236.32 1554.5 1230.5 1548.68 1230.5 1541.5Z" stroke="#003F20" stroke-width="4.58333" stroke-miterlimit="8" fill="#3F2968" fill-rule="evenodd"/><path d="M1335.5 1541.5C1335.5 1534.32 1341.32 1528.5 1348.5 1528.5 1355.68 1528.5 1361.5 1534.32 1361.5 1541.5 1361.5 1548.68 1355.68 1554.5 1348.5 1554.5 1341.32 1554.5 1335.5 1548.68 1335.5 1541.5Z" stroke="#003F20" stroke-width="4.58333" stroke-miterlimit="8" fill="#C3EB9B" fill-rule="evenodd"/><path d="M988.5 1541.5C988.5 1534.32 994.32 1528.5 1001.5 1528.5 1008.68 1528.5 1014.5 1534.32 1014.5 1541.5 1014.5 1548.68 1008.68 1554.5 1001.5 1554.5 994.32 1554.5 988.5 1548.68 988.5 1541.5Z" stroke="#003F20" stroke-width="4.58333" stroke-miterlimit="8" fill="#28618C" fill-rule="evenodd"/><path d="M1126.5 1541.5C1126.5 1534.32 1132.32 1528.5 1139.5 1528.5 1146.68 1528.5 1152.5 1534.32 1152.5 1541.5 1152.5 1548.68 1146.68 1554.5 1139.5 1554.5 1132.32 1554.5 1126.5 1548.68 1126.5 1541.5Z" stroke="#003F20" stroke-width="4.58333" stroke-miterlimit="8" fill="#92D050" fill-rule="evenodd"/><path d="M1369.5 1541.5C1369.5 1534.32 1375.32 1528.5 1382.5 1528.5 1389.68 1528.5 1395.5 1534.32 1395.5 1541.5 1395.5 1548.68 1389.68 1554.5 1382.5 1554.5 1375.32 1554.5 1369.5 1548.68 1369.5 1541.5Z" stroke="#003F20" stroke-width="4.58333" stroke-miterlimit="8" fill="#28618C" fill-rule="evenodd"/><path d="M1196.5 1541.5C1196.5 1534.32 1202.32 1528.5 1209.5 1528.5 1216.68 1528.5 1222.5 1534.32 1222.5 1541.5 1222.5 1548.68 1216.68 1554.5 1209.5 1554.5 1202.32 1554.5 1196.5 1548.68 1196.5 1541.5Z" stroke="#003F20" stroke-width="4.58333" stroke-miterlimit="8" fill="#F07D00" fill-rule="evenodd"/><path d="M1265.5 1541.5C1265.5 1534.32 1271.32 1528.5 1278.5 1528.5 1285.68 1528.5 1291.5 1534.32 1291.5 1541.5 1291.5 1548.68 1285.68 1554.5 1278.5 1554.5 1271.32 1554.5 1265.5 1548.68 1265.5 1541.5Z" stroke="#003F20" stroke-width="4.58333" stroke-miterlimit="8" fill="#F182DF" fill-rule="evenodd"/><path d="M883.5 1541.5C883.5 1534.32 889.32 1528.5 896.5 1528.5 903.68 1528.5 909.5 1534.32 909.5 1541.5 909.5 1548.68 903.68 1554.5 896.5 1554.5 889.32 1554.5 883.5 1548.68 883.5 1541.5Z" stroke="#003F20" stroke-width="4.58333" stroke-miterlimit="8" fill="#F07D00" fill-rule="evenodd"/><path d="M1404.5 1541.5C1404.5 1534.32 1410.32 1528.5 1417.5 1528.5 1424.68 1528.5 1430.5 1534.32 1430.5 1541.5 1430.5 1548.68 1424.68 1554.5 1417.5 1554.5 1410.32 1554.5 1404.5 1548.68 1404.5 1541.5Z" stroke="#003F20" stroke-width="4.58333" stroke-miterlimit="8" fill="#C3EB9B" fill-rule="evenodd"/><path d="M849.5 1541.5C849.5 1534.32 855.32 1528.5 862.5 1528.5 869.68 1528.5 875.5 1534.32 875.5 1541.5 875.5 1548.68 869.68 1554.5 862.5 1554.5 855.32 1554.5 849.5 1548.68 849.5 1541.5Z" stroke="#003F20" stroke-width="4.58333" stroke-miterlimit="8" fill="#FF0000" fill-rule="evenodd"/><path d="M1022.5 1541.5C1022.5 1534.32 1028.32 1528.5 1035.5 1528.5 1042.68 1528.5 1048.5 1534.32 1048.5 1541.5 1048.5 1548.68 1042.68 1554.5 1035.5 1554.5 1028.32 1554.5 1022.5 1548.68 1022.5 1541.5Z" stroke="#003F20" stroke-width="4.58333" stroke-miterlimit="8" fill="#FF0000" fill-rule="evenodd"/><path d="M1161.5 1541.5C1161.5 1534.32 1167.32 1528.5 1174.5 1528.5 1181.68 1528.5 1187.5 1534.32 1187.5 1541.5 1187.5 1548.68 1181.68 1554.5 1174.5 1554.5 1167.32 1554.5 1161.5 1548.68 1161.5 1541.5Z" stroke="#003F20" stroke-width="4.58333" stroke-miterlimit="8" fill="#3F2968" fill-rule="evenodd"/><path d="M1543.5 1541.5C1543.5 1534.32 1549.32 1528.5 1556.5 1528.5 1563.68 1528.5 1569.5 1534.32 1569.5 1541.5 1569.5 1548.68 1563.68 1554.5 1556.5 1554.5 1549.32 1554.5 1543.5 1548.68 1543.5 1541.5Z" stroke="#003F20" stroke-width="4.58333" stroke-miterlimit="8" fill="#92D050" fill-rule="evenodd"/><path d="M1300.5 1541.5C1300.5 1534.32 1306.32 1528.5 1313.5 1528.5 1320.68 1528.5 1326.5 1534.32 1326.5 1541.5 1326.5 1548.68 1320.68 1554.5 1313.5 1554.5 1306.32 1554.5 1300.5 1548.68 1300.5 1541.5Z" stroke="#003F20" stroke-width="4.58333" stroke-miterlimit="8" fill="#28618C" fill-rule="evenodd"/><path d="M1439.5 1541.5C1439.5 1534.32 1445.32 1528.5 1452.5 1528.5 1459.68 1528.5 1465.5 1534.32 1465.5 1541.5 1465.5 1548.68 1459.68 1554.5 1452.5 1554.5 1445.32 1554.5 1439.5 1548.68 1439.5 1541.5Z" stroke="#003F20" stroke-width="4.58333" stroke-miterlimit="8" fill="#3F2968" fill-rule="evenodd"/><path d="M1508.5 1541.5C1508.5 1534.32 1514.32 1528.5 1521.5 1528.5 1528.68 1528.5 1534.5 1534.32 1534.5 1541.5 1534.5 1548.68 1528.68 1554.5 1521.5 1554.5 1514.32 1554.5 1508.5 1548.68 1508.5 1541.5Z" stroke="#003F20" stroke-width="4.58333" stroke-miterlimit="8" fill="#FF0000" fill-rule="evenodd"/><path d="M1535.9 1839 1563.2 1811.76 1571 1747.38 1529.4 1709 1441 1709 1441 1709" stroke="#93107E" stroke-width="8.02083" stroke-miterlimit="8" fill="none" fill-rule="evenodd"/><path d="M894.595 1698 893 1752.6 937.663 1770.8 971.957 1815 1023 1828 1023 1828" stroke="#003F20" stroke-width="8.02083" stroke-miterlimit="8" fill="none" fill-rule="evenodd"/><path d="M1184 1832.66 1252.33 1839 1260.67 1759.73 1314 1709" stroke="#28618C" stroke-width="8.02083" stroke-miterlimit="8" fill="none" fill-rule="evenodd"/><path d="M1338 1709 1387.27 1769.13 1440.74 1761 1451.23 1809.75 1468 1839" stroke="#F07D00" stroke-width="8.02083" stroke-miterlimit="8" fill="none" fill-rule="evenodd"/><path d="M1030 1709 1071.49 1819.98 1160 1839 1160 1839 1160 1839" stroke="#02ACA8" stroke-width="8.02083" stroke-miterlimit="8" fill="none" fill-rule="evenodd"/><path d="M913.678 1928.5 874.5 1972.79 879.843 2031.36 945.733 2058.5 1004.5 2019.93 956.418 1978.5 959.98 1932.79 913.678 1928.5Z" stroke="#003F20" stroke-width="4.58333" stroke-miterlimit="8" fill="#EB43D0" fill-rule="evenodd"/><path d="M1172.53 1954.16 1215.86 1928.5 1284.93 1945.61 1300.5 1997.78 1243.62 1980.67 1230.76 2021.72 1205.71 2058.5 1170.5 2008.04 1172.53 1954.16Z" stroke="#003F20" stroke-width="4.58333" stroke-miterlimit="8" fill="#F07D00" fill-rule="evenodd"/><path d="M1033.64 2023.83 1015.5 2039.83 1039.69 2058.5 1076.47 2043.83 1102.17 2011.83 1145.5 2016.5 1137.44 1943.17 1095.11 1928.5 1084.53 1961.83 1066.9 1989.17 1033.64 2023.83Z" stroke="#003F20" stroke-width="4.58333" stroke-miterlimit="8" fill="#C3EB9B" fill-rule="evenodd"/><path d="M1297.5 2037.59 1388.9 2058.5 1422.96 2033.05 1427.5 1932.14 1369.03 1928.5 1374.71 1999.41 1326.45 1991.23 1297.5 2037.59Z" stroke="#003F20" stroke-width="4.58333" stroke-miterlimit="8" fill="#28618C" fill-rule="evenodd"/><path d="M1482.58 2018.59 1465.28 1952.52 1438.5 1944 1450.22 1930.5 1550.65 1943.29 1568.5 1995.86 1538.37 2060.5 1540.6 2023.56 1482.58 2018.59Z" stroke="#003F20" stroke-width="4.58333" stroke-miterlimit="8" fill="#13A983" fill-rule="evenodd"/><path d="M824.5 1854.06 1635.92 1854.06 1635.92 1860.94 824.5 1860.94ZM1596.34 1831.58 1643 1857.5 1596.34 1883.42C1594.68 1884.34 1592.59 1883.75 1591.67 1882.09 1590.75 1880.43 1591.34 1878.33 1593 1877.41L1634.25 1854.5 1634.25 1860.51 1593 1837.59C1591.34 1836.67 1590.75 1834.57 1591.67 1832.91 1592.59 1831.25 1594.68 1830.66 1596.34 1831.58Z" fill="#E02D8A"/><path d="M815.5 2075.06 1626.92 2075.06 1626.92 2081.94 815.5 2081.94ZM1587.34 2052.58 1634 2078.5 1587.34 2104.42C1585.68 2105.34 1583.59 2104.75 1582.67 2103.09 1581.75 2101.43 1582.34 2099.33 1584 2098.41L1625.25 2075.5 1625.25 2081.51 1584 2058.59C1582.34 2057.67 1581.75 2055.57 1582.67 2053.91 1583.59 2052.25 1585.68 2051.66 1587.34 2052.58Z" fill="#E02D8A"/><path d="M1985.92 1349.75 1985.92 1107.42 1995.08 1107.42 1995.08 1349.75ZM1976.75 1112 1990.5 1084.5 2004.25 1112Z" fill="#54378A"/></g></svg>