<svg width="862" height="690" xmlns="http://www.w3.org/2000/svg" xmlns:xlink="http://www.w3.org/1999/xlink" xml:space="preserve" overflow="hidden"><g transform="translate(-2680 -153)"><rect x="2889.5" y="320.5" width="130" height="130" stroke="#003F20" stroke-width="4.58333" stroke-miterlimit="8" fill="#E1F5CD"/><rect x="2889.5" y="450.5" width="130" height="130" stroke="#003F20" stroke-width="4.58333" stroke-miterlimit="8" fill="#E1F5CD" fill-opacity="0.301961"/><rect x="2889.5" y="580.5" width="130" height="130" stroke="#003F20" stroke-width="4.58333" stroke-miterlimit="8" fill="#E1F5CD" fill-opacity="0.8"/><rect x="2889.5" y="710.5" width="130" height="130" stroke="#003F20" stroke-width="4.58333" stroke-miterlimit="8" fill="#E1F5CD" fill-opacity="0.501961"/><rect x="3019.5" y="320.5" width="130" height="130" stroke="#003F20" stroke-width="4.58333" stroke-miterlimit="8" fill="#8DDDFF"/><rect x="3019.5" y="450.5" width="130" height="130" stroke="#003F20" stroke-width="4.58333" stroke-miterlimit="8" fill="#8DDDFF" fill-opacity="0.301961"/><rect x="3019.5" y="580.5" width="130" height="130" stroke="#003F20" stroke-width="4.58333" stroke-miterlimit="8" fill="#8DDDFF" fill-opacity="0.8"/><rect x="3019.5" y="710.5" width="130" height="130" stroke="#003F20" stroke-width="4.58333" stroke-miterlimit="8" fill="#8DDDFF" fill-opacity="0.501961"/><rect x="3149.5" y="320.5" width="130" height="130" stroke="#003F20" stroke-width="4.58333" stroke-miterlimit="8" fill="#F182DF"/><rect x="3149.5" y="450.5" width="130" height="130" stroke="#003F20" stroke-width="4.58333" stroke-miterlimit="8" fill="#F182DF" fill-opacity="0.301961"/><rect x="3149.5" y="580.5" width="130" height="130" stroke="#003F20" stroke-width="4.58333" stroke-miterlimit="8" fill="#F182DF" fill-opacity="0.8"/><rect x="3149.5" y="710.5" width="130" height="130" stroke="#003F20" stroke-width="4.58333" stroke-miterlimit="8" fill="#F182DF" fill-opacity="0.501961"/><path d="M2959.94 205.5 2959.94 295.86 2953.06 295.86 2953.06 205.5ZM2982.42 256.279 2956.5 302.938 2930.58 256.279C2929.66 254.62 2930.25 252.527 2931.91 251.605 2933.57 250.683 2935.67 251.281 2936.59 252.94L2959.51 294.19 2953.5 294.19 2976.41 252.94C2977.33 251.281 2979.43 250.683 2981.09 251.605 2982.75 252.527 2983.34 254.619 2982.42 256.279Z" fill="#E1F5CD"/><path d="M3088.94 205.5 3088.94 295.86 3082.06 295.86 3082.06 205.5ZM3111.42 256.279 3085.5 302.938 3059.58 256.279C3058.66 254.62 3059.25 252.527 3060.91 251.605 3062.57 250.683 3064.67 251.281 3065.59 252.94L3088.51 294.19 3082.5 294.19 3105.41 252.94C3106.33 251.281 3108.43 250.683 3110.09 251.605 3111.75 252.527 3112.34 254.619 3111.42 256.279Z" fill="#38AEFF"/><path d="M3217.94 205.5 3217.94 295.86 3211.06 295.86 3211.06 205.5ZM3240.42 256.279 3214.5 302.938 3188.58 256.279C3187.66 254.62 3188.25 252.527 3189.91 251.605 3191.57 250.683 3193.67 251.281 3194.59 252.94L3217.51 294.19 3211.5 294.19 3234.41 252.94C3235.33 251.281 3237.43 250.683 3239.09 251.605 3240.75 252.527 3241.34 254.619 3240.42 256.279Z" fill="#F182DF"/><path d="M2764.5 382.062 2854.86 382.063 2854.86 388.938 2764.5 388.937ZM2815.28 359.578 2861.94 385.5 2815.28 411.422C2813.62 412.344 2811.53 411.746 2810.6 410.086 2809.68 408.427 2810.28 406.334 2811.94 405.412L2853.19 382.495 2853.19 388.505 2811.94 365.588C2810.28 364.666 2809.68 362.574 2810.6 360.914 2811.53 359.254 2813.62 358.656 2815.28 359.578Z" fill="#E02D8A"/><path d="M2764.5 512.063 2854.86 512.063 2854.86 518.938 2764.5 518.938ZM2815.28 489.579 2861.94 515.5 2815.28 541.422C2813.62 542.344 2811.53 541.746 2810.6 540.086 2809.68 538.427 2810.28 536.334 2811.94 535.412L2853.19 512.496 2853.19 518.505 2811.94 495.589C2810.28 494.667 2809.68 492.574 2810.6 490.914 2811.53 489.255 2813.62 488.657 2815.28 489.579Z" fill="#E02D8A" fill-opacity="0.301961"/><path d="M2764.5 642.063 2854.86 642.063 2854.86 648.938 2764.5 648.938ZM2815.28 619.579 2861.94 645.5 2815.28 671.422C2813.62 672.344 2811.53 671.746 2810.6 670.086 2809.68 668.427 2810.28 666.334 2811.94 665.412L2853.19 642.495 2853.19 648.505 2811.94 625.589C2810.28 624.667 2809.68 622.574 2810.6 620.914 2811.53 619.255 2813.62 618.657 2815.28 619.579Z" fill="#E02D8A" fill-opacity="0.8"/><path d="M2764.5 772.062 2854.86 772.063 2854.86 778.938 2764.5 778.938ZM2815.28 749.579 2861.94 775.5 2815.28 801.422C2813.62 802.344 2811.53 801.746 2810.6 800.086 2809.68 798.427 2810.28 796.334 2811.94 795.412L2853.19 772.495 2853.19 778.505 2811.94 755.588C2810.28 754.666 2809.68 752.574 2810.6 750.914 2811.53 749.255 2813.62 748.657 2815.28 749.579Z" fill="#E02D8A" fill-opacity="0.501961"/><rect x="3279.5" y="320.5" width="130" height="130" stroke="#003F20" stroke-width="4.58333" stroke-miterlimit="8" fill="#F07D00"/><rect x="3279.5" y="450.5" width="130" height="130" stroke="#003F20" stroke-width="4.58333" stroke-miterlimit="8" fill="#F07D00" fill-opacity="0.301961"/><rect x="3279.5" y="580.5" width="130" height="130" stroke="#003F20" stroke-width="4.58333" stroke-miterlimit="8" fill="#F07D00" fill-opacity="0.8"/><rect x="3279.5" y="710.5" width="130" height="130" stroke="#003F20" stroke-width="4.58333" stroke-miterlimit="8" fill="#F07D00" fill-opacity="0.501961"/><rect x="3409.5" y="320.5" width="130" height="130" stroke="#003F20" stroke-width="4.58333" stroke-miterlimit="8" fill="#28618C"/><rect x="3409.5" y="450.5" width="130" height="130" stroke="#003F20" stroke-width="4.58333" stroke-miterlimit="8" fill="#28618C" fill-opacity="0.301961"/><rect x="3409.5" y="580.5" width="130" height="130" stroke="#003F20" stroke-width="4.58333" stroke-miterlimit="8" fill="#28618C" fill-opacity="0.8"/><rect x="3409.5" y="710.5" width="130" height="130" stroke="#003F20" stroke-width="4.58333" stroke-miterlimit="8" fill="#28618C" fill-opacity="0.501961"/><path d="M3348.94 205.5 3348.94 295.86 3342.06 295.86 3342.06 205.5ZM3371.42 256.279 3345.5 302.938 3319.58 256.279C3318.66 254.62 3319.25 252.527 3320.91 251.605 3322.57 250.683 3324.67 251.281 3325.59 252.94L3348.5 294.19 3342.5 294.19 3365.41 252.94C3366.33 251.281 3368.43 250.683 3370.09 251.605 3371.75 252.527 3372.34 254.619 3371.42 256.279Z" fill="#F07D00"/><path d="M3477.94 205.5 3477.94 295.86 3471.06 295.86 3471.06 205.5ZM3500.42 256.279 3474.5 302.938 3448.58 256.279C3447.66 254.62 3448.25 252.527 3449.91 251.605 3451.57 250.683 3453.67 251.281 3454.59 252.94L3477.51 294.19 3471.5 294.19 3494.41 252.94C3495.33 251.281 3497.43 250.683 3499.09 251.605 3500.75 252.527 3501.34 254.619 3500.42 256.279Z" fill="#28618C"/><text fill="#00305E" font-family="Open Sans,Open Sans_MSFontService,sans-serif" font-weight="700" font-size="74" transform="matrix(1 0 0 1 2724.57 246)">Table</text></g></svg>