<svg width="906" height="731" xmlns="http://www.w3.org/2000/svg" xmlns:xlink="http://www.w3.org/1999/xlink" xml:space="preserve" overflow="hidden"><g transform="translate(-247 -1283)"><rect x="335.5" y="1412.5" width="129" height="130" stroke="#003F20" stroke-width="4.58333" stroke-miterlimit="8" fill="#004588"/><rect x="335.5" y="1542.5" width="129" height="130" stroke="#003F20" stroke-width="4.58333" stroke-miterlimit="8" fill="#E1F5CD"/><rect x="335.5" y="1672.5" width="129" height="129" stroke="#003F20" stroke-width="4.58333" stroke-miterlimit="8" fill="#E1F5CD"/><rect x="335.5" y="1801.5" width="129" height="130" stroke="#003F20" stroke-width="4.58333" stroke-miterlimit="8" fill="#E1F5CD"/><rect x="463.5" y="1412.5" width="130" height="130" stroke="#003F20" stroke-width="4.58333" stroke-miterlimit="8" fill="#E1F5CD"/><rect x="463.5" y="1542.5" width="130" height="130" stroke="#003F20" stroke-width="4.58333" stroke-miterlimit="8" fill="#BCCF02"/><rect x="463.5" y="1672.5" width="130" height="129" stroke="#003F20" stroke-width="4.58333" stroke-miterlimit="8" fill="#E1F5CD"/><rect x="463.5" y="1801.5" width="130" height="130" stroke="#003F20" stroke-width="4.58333" stroke-miterlimit="8" fill="#E1F5CD"/><rect x="593.5" y="1412.5" width="130" height="130" stroke="#003F20" stroke-width="4.58333" stroke-miterlimit="8" fill="#E1F5CD"/><rect x="593.5" y="1542.5" width="130" height="130" stroke="#003F20" stroke-width="4.58333" stroke-miterlimit="8" fill="#E1F5CD"/><rect x="593.5" y="1672.5" width="130" height="129" stroke="#003F20" stroke-width="4.58333" stroke-miterlimit="8" fill="#97CCFF"/><rect x="593.5" y="1801.5" width="130" height="130" stroke="#003F20" stroke-width="4.58333" stroke-miterlimit="8" fill="#E1F5CD"/><rect x="723.5" y="1412.5" width="130" height="130" stroke="#003F20" stroke-width="4.58333" stroke-miterlimit="8" fill="#E1F5CD"/><rect x="723.5" y="1542.5" width="130" height="130" stroke="#003F20" stroke-width="4.58333" stroke-miterlimit="8" fill="#FF0000"/><rect x="723.5" y="1672.5" width="130" height="129" stroke="#003F20" stroke-width="4.58333" stroke-miterlimit="8" fill="#F07D00"/><rect x="723.5" y="1801.5" width="130" height="130" stroke="#003F20" stroke-width="4.58333" stroke-miterlimit="8" fill="#E1F5CD"/><rect x="851.5" y="1412.5" width="130" height="130" stroke="#003F20" stroke-width="4.58333" stroke-miterlimit="8" fill="#7BC9FF"/><rect x="851.5" y="1542.5" width="130" height="130" stroke="#003F20" stroke-width="4.58333" stroke-miterlimit="8" fill="#F182DF"/><rect x="851.5" y="1672.5" width="130" height="129" stroke="#003F20" stroke-width="4.58333" stroke-miterlimit="8" fill="#65FFB4"/><rect x="851.5" y="1801.5" width="130" height="130" stroke="#003F20" stroke-width="4.58333" stroke-miterlimit="8" fill="#28618C"/><rect x="981.5" y="1412.5" width="130" height="130" stroke="#003F20" stroke-width="4.58333" stroke-miterlimit="8" fill="#DBD2ED"/><rect x="981.5" y="1542.5" width="130" height="130" stroke="#003F20" stroke-width="4.58333" stroke-miterlimit="8" fill="#93C356"/><rect x="981.5" y="1672.5" width="130" height="129" stroke="#003F20" stroke-width="4.58333" stroke-miterlimit="8" fill="#003F20"/><rect x="981.5" y="1801.5" width="130" height="130" stroke="#003F20" stroke-width="4.58333" stroke-miterlimit="8" fill="#E02D8A"/><path d="M3.4375-2.22061e-06 3.43786 551.579-3.43714 551.579-3.4375 2.22061e-06ZM25.9219 512 0.000359817 558.658-25.9213 512C-26.8432 510.34-26.2453 508.247-24.5857 507.325-22.9262 506.403-20.8334 507.001-19.9114 508.661L3.00527 549.911-3.00456 549.911 19.9121 508.661C20.8341 507.001 22.9268 506.403 24.5864 507.325 26.246 508.247 26.8439 510.34 25.9219 512Z" fill="#E02D8A" transform="matrix(1 0 0 -1 290.5 1971.16)"/><path d="M290.5 1967.06 1101.92 1967.06 1101.92 1973.94 290.5 1973.94ZM1062.34 1944.58 1109 1970.5 1062.34 1996.42C1060.68 1997.34 1058.59 1996.75 1057.67 1995.09 1056.75 1993.43 1057.34 1991.33 1059 1990.41L1100.25 1967.5 1100.25 1973.51 1059 1950.59C1057.34 1949.67 1056.75 1947.57 1057.67 1945.91 1058.59 1944.25 1060.68 1943.66 1062.34 1944.58Z" fill="#E02D8A"/><text fill="#00305E" font-family="Open Sans,Open Sans_MSFontService,sans-serif" font-weight="700" font-size="74" transform="matrix(1 0 0 1 322.704 1376)">Raster</text></g></svg>