<svg width="2692" height="1038" xmlns="http://www.w3.org/2000/svg" xmlns:xlink="http://www.w3.org/1999/xlink" xml:space="preserve" overflow="hidden"><g transform="translate(-1541 -1037)"><path d="M3.4375-2.22061e-06 3.43786 551.579-3.43714 551.579-3.4375 2.22061e-06ZM25.9219 512 0.000359817 558.658-25.9213 512C-26.8432 510.34-26.2453 508.247-24.5857 507.325-22.9262 506.403-20.8334 507.001-19.9114 508.661L3.00527 549.911-3.00456 549.911 19.9121 508.661C20.8341 507.001 22.9268 506.403 24.5864 507.325 26.246 508.247 26.8439 510.34 25.9219 512Z" fill="#E02D8A" transform="matrix(1 0 0 -1 1584.5 1793.16)"/><path d="M1584.5 1790.06 2395.92 1790.06 2395.92 1796.94 1584.5 1796.94ZM2356.34 1767.58 2403 1793.5 2356.34 1819.42C2354.68 1820.34 2352.59 1819.75 2351.67 1818.09 2350.75 1816.43 2351.34 1814.33 2353 1813.41L2394.25 1790.5 2394.25 1796.51 2353 1773.59C2351.34 1772.67 2350.75 1770.57 2351.67 1768.91 2352.59 1767.25 2354.68 1766.66 2356.34 1767.58Z" fill="#E02D8A"/><path d="M1755.5 1428.5C1755.5 1421.32 1761.32 1415.5 1768.5 1415.5 1775.68 1415.5 1781.5 1421.32 1781.5 1428.5 1781.5 1435.68 1775.68 1441.5 1768.5 1441.5 1761.32 1441.5 1755.5 1435.68 1755.5 1428.5Z" stroke="#003F20" stroke-width="4.58333" stroke-miterlimit="8" fill="#F182DF" fill-rule="evenodd"/><path d="M1726.5 1593.5C1726.5 1586.32 1732.32 1580.5 1739.5 1580.5 1746.68 1580.5 1752.5 1586.32 1752.5 1593.5 1752.5 1600.68 1746.68 1606.5 1739.5 1606.5 1732.32 1606.5 1726.5 1600.68 1726.5 1593.5Z" stroke="#003F20" stroke-width="4.58333" stroke-miterlimit="8" fill="#FF0000" fill-rule="evenodd"/><path d="M1865.5 1538.5C1865.5 1531.32 1871.32 1525.5 1878.5 1525.5 1885.68 1525.5 1891.5 1531.32 1891.5 1538.5 1891.5 1545.68 1885.68 1551.5 1878.5 1551.5 1871.32 1551.5 1865.5 1545.68 1865.5 1538.5Z" stroke="#003F20" stroke-width="4.58333" stroke-miterlimit="8" fill="#F07D00" fill-rule="evenodd"/><path d="M1879.5 1591.5C1879.5 1584.32 1885.32 1578.5 1892.5 1578.5 1899.68 1578.5 1905.5 1584.32 1905.5 1591.5 1905.5 1598.68 1899.68 1604.5 1892.5 1604.5 1885.32 1604.5 1879.5 1598.68 1879.5 1591.5Z" stroke="#003F20" stroke-width="4.58333" stroke-miterlimit="8" fill="#C3EB9B" fill-rule="evenodd"/><path d="M2181.5 1746.5C2181.5 1739.32 2187.32 1733.5 2194.5 1733.5 2201.68 1733.5 2207.5 1739.32 2207.5 1746.5 2207.5 1753.68 2201.68 1759.5 2194.5 1759.5 2187.32 1759.5 2181.5 1753.68 2181.5 1746.5Z" stroke="#003F20" stroke-width="4.58333" stroke-miterlimit="8" fill="#F182DF" fill-rule="evenodd"/><path d="M2030.5 1703.5C2030.5 1696.32 2036.32 1690.5 2043.5 1690.5 2050.68 1690.5 2056.5 1696.32 2056.5 1703.5 2056.5 1710.68 2050.68 1716.5 2043.5 1716.5 2036.32 1716.5 2030.5 1710.68 2030.5 1703.5Z" stroke="#003F20" stroke-width="4.58333" stroke-miterlimit="8" fill="#3F2968" fill-rule="evenodd"/><path d="M2085.5 1758.5C2085.5 1751.32 2091.32 1745.5 2098.5 1745.5 2105.68 1745.5 2111.5 1751.32 2111.5 1758.5 2111.5 1765.68 2105.68 1771.5 2098.5 1771.5 2091.32 1771.5 2085.5 1765.68 2085.5 1758.5Z" stroke="#003F20" stroke-width="4.58333" stroke-miterlimit="8" fill="#C3EB9B" fill-rule="evenodd"/><path d="M1810.5 1293.5C1810.5 1286.32 1816.32 1280.5 1823.5 1280.5 1830.68 1280.5 1836.5 1286.32 1836.5 1293.5 1836.5 1300.68 1830.68 1306.5 1823.5 1306.5 1816.32 1306.5 1810.5 1300.68 1810.5 1293.5Z" stroke="#003F20" stroke-width="4.58333" stroke-miterlimit="8" fill="#28618C" fill-rule="evenodd"/><path d="M1902.5 1339.5C1902.5 1332.32 1908.32 1326.5 1915.5 1326.5 1922.68 1326.5 1928.5 1332.32 1928.5 1339.5 1928.5 1346.68 1922.68 1352.5 1915.5 1352.5 1908.32 1352.5 1902.5 1346.68 1902.5 1339.5Z" stroke="#003F20" stroke-width="4.58333" stroke-miterlimit="8" fill="#92D050" fill-rule="evenodd"/><path d="M2117.5 1330.5C2117.5 1323.32 2123.32 1317.5 2130.5 1317.5 2137.68 1317.5 2143.5 1323.32 2143.5 1330.5 2143.5 1337.68 2137.68 1343.5 2130.5 1343.5 2123.32 1343.5 2117.5 1337.68 2117.5 1330.5Z" stroke="#003F20" stroke-width="4.58333" stroke-miterlimit="8" fill="#28618C" fill-rule="evenodd"/><path d="M1933.5 1460.5C1933.5 1453.32 1939.32 1447.5 1946.5 1447.5 1953.68 1447.5 1959.5 1453.32 1959.5 1460.5 1959.5 1467.68 1953.68 1473.5 1946.5 1473.5 1939.32 1473.5 1933.5 1467.68 1933.5 1460.5Z" stroke="#003F20" stroke-width="4.58333" stroke-miterlimit="8" fill="#F07D00" fill-rule="evenodd"/><path d="M2030.5 1513.5C2030.5 1506.32 2036.32 1500.5 2043.5 1500.5 2050.68 1500.5 2056.5 1506.32 2056.5 1513.5 2056.5 1520.68 2050.68 1526.5 2043.5 1526.5 2036.32 1526.5 2030.5 1520.68 2030.5 1513.5Z" stroke="#003F20" stroke-width="4.58333" stroke-miterlimit="8" fill="#F182DF" fill-rule="evenodd"/><path d="M1665.5 1365.5C1665.5 1358.32 1671.32 1352.5 1678.5 1352.5 1685.68 1352.5 1691.5 1358.32 1691.5 1365.5 1691.5 1372.68 1685.68 1378.5 1678.5 1378.5 1671.32 1378.5 1665.5 1372.68 1665.5 1365.5Z" stroke="#003F20" stroke-width="4.58333" stroke-miterlimit="8" fill="#F07D00" fill-rule="evenodd"/><path d="M2140.5 1623.5C2140.5 1616.32 2146.32 1610.5 2153.5 1610.5 2160.68 1610.5 2166.5 1616.32 2166.5 1623.5 2166.5 1630.68 2160.68 1636.5 2153.5 1636.5 2146.32 1636.5 2140.5 1630.68 2140.5 1623.5Z" stroke="#003F20" stroke-width="4.58333" stroke-miterlimit="8" fill="#C3EB9B" fill-rule="evenodd"/><path d="M1637.5 1698.5C1637.5 1691.32 1643.32 1685.5 1650.5 1685.5 1657.68 1685.5 1663.5 1691.32 1663.5 1698.5 1663.5 1705.68 1657.68 1711.5 1650.5 1711.5 1643.32 1711.5 1637.5 1705.68 1637.5 1698.5Z" stroke="#003F20" stroke-width="4.58333" stroke-miterlimit="8" fill="#FF0000" fill-rule="evenodd"/><path d="M1824.5 1703.5C1824.5 1696.32 1830.32 1690.5 1837.5 1690.5 1844.68 1690.5 1850.5 1696.32 1850.5 1703.5 1850.5 1710.68 1844.68 1716.5 1837.5 1716.5 1830.32 1716.5 1824.5 1710.68 1824.5 1703.5Z" stroke="#003F20" stroke-width="4.58333" stroke-miterlimit="8" fill="#FF0000" fill-rule="evenodd"/><path d="M1920.5 1753.5C1920.5 1746.32 1926.32 1740.5 1933.5 1740.5 1940.68 1740.5 1946.5 1746.32 1946.5 1753.5 1946.5 1760.68 1940.68 1766.5 1933.5 1766.5 1926.32 1766.5 1920.5 1760.68 1920.5 1753.5Z" stroke="#003F20" stroke-width="4.58333" stroke-miterlimit="8" fill="#3F2968" fill-rule="evenodd"/><path d="M2272.5 1348.5C2272.5 1341.32 2278.32 1335.5 2285.5 1335.5 2292.68 1335.5 2298.5 1341.32 2298.5 1348.5 2298.5 1355.68 2292.68 1361.5 2285.5 1361.5 2278.32 1361.5 2272.5 1355.68 2272.5 1348.5Z" stroke="#003F20" stroke-width="4.58333" stroke-miterlimit="8" fill="#92D050" fill-rule="evenodd"/><path d="M2030.5 1372.5C2030.5 1365.32 2036.32 1359.5 2043.5 1359.5 2050.68 1359.5 2056.5 1365.32 2056.5 1372.5 2056.5 1379.68 2050.68 1385.5 2043.5 1385.5 2036.32 1385.5 2030.5 1379.68 2030.5 1372.5Z" stroke="#003F20" stroke-width="4.58333" stroke-miterlimit="8" fill="#28618C" fill-rule="evenodd"/><path d="M2140.5 1495.5C2140.5 1488.32 2146.32 1482.5 2153.5 1482.5 2160.68 1482.5 2166.5 1488.32 2166.5 1495.5 2166.5 1502.68 2160.68 1508.5 2153.5 1508.5 2146.32 1508.5 2140.5 1502.68 2140.5 1495.5Z" stroke="#003F20" stroke-width="4.58333" stroke-miterlimit="8" fill="#3F2968" fill-rule="evenodd"/><path d="M2230.5 1610.5C2230.5 1603.32 2236.32 1597.5 2243.5 1597.5 2250.68 1597.5 2256.5 1603.32 2256.5 1610.5 2256.5 1617.68 2250.68 1623.5 2243.5 1623.5 2236.32 1623.5 2230.5 1617.68 2230.5 1610.5Z" stroke="#003F20" stroke-width="4.58333" stroke-miterlimit="8" fill="#FF0000" fill-rule="evenodd"/><path d="M3.4375-2.22061e-06 3.43786 551.579-3.43714 551.579-3.4375 2.22061e-06ZM25.9219 512 0.000359817 558.658-25.9213 512C-26.8432 510.34-26.2453 508.247-24.5857 507.325-22.9262 506.403-20.8334 507.001-19.9114 508.661L3.00527 549.911-3.00456 549.911 19.9121 508.661C20.8341 507.001 22.9268 506.403 24.5864 507.325 26.246 508.247 26.8439 510.34 25.9219 512Z" fill="#E02D8A" transform="matrix(1 0 0 -1 2479.5 1793.16)"/><path d="M2479.5 1790.06 3290.92 1790.06 3290.92 1796.94 2479.5 1796.94ZM3251.34 1767.58 3298 1793.5 3251.34 1819.42C3249.68 1820.34 3247.59 1819.75 3246.67 1818.09 3245.75 1816.43 3246.34 1814.33 3248 1813.41L3289.25 1790.5 3289.25 1796.51 3248 1773.59C3246.34 1772.67 3245.75 1770.57 3246.67 1768.91 3247.59 1767.25 3249.68 1766.66 3251.34 1767.58Z" fill="#E02D8A"/><path d="M3009.98 1652 3078.44 1580.13 3098 1410.27 2993.68 1309 2772 1309 2772 1309" stroke="#93107E" stroke-width="8.02083" stroke-miterlimit="8" fill="none" fill-rule="evenodd"/><path d="M2565.79 1317 2558 1472.4 2776.16 1524.2 2943.67 1650 3193 1687 3193 1687" stroke="#003F20" stroke-width="8.02083" stroke-miterlimit="8" fill="none" fill-rule="evenodd"/><path d="M2582 1721.95 2715.51 1730 2731.79 1629.39 2836 1565" stroke="#28618C" stroke-width="8.02083" stroke-miterlimit="8" fill="none" fill-rule="evenodd"/><path d="M2656 1330 2809.51 1450.71 2976.08 1434.4 3008.74 1532.28 3061 1591" stroke="#F07D00" stroke-width="8.02083" stroke-miterlimit="8" fill="none" fill-rule="evenodd"/><path d="M2558 1542 2610.02 1656.39 2721 1676 2721 1676 2721 1676" stroke="#02ACA8" stroke-width="8.02083" stroke-miterlimit="8" fill="none" fill-rule="evenodd"/><path d="M3.4375-2.22061e-06 3.43786 551.579-3.43714 551.579-3.4375 2.22061e-06ZM25.9219 512 0.000359817 558.658-25.9213 512C-26.8432 510.34-26.2453 508.247-24.5857 507.325-22.9262 506.403-20.8334 507.001-19.9114 508.661L3.00527 549.911-3.00456 549.911 19.9121 508.661C20.8341 507.001 22.9268 506.403 24.5864 507.325 26.246 508.247 26.8439 510.34 25.9219 512Z" fill="#E02D8A" transform="matrix(1 0 0 -1 3370.5 1794.16)"/><path d="M3370.5 1790.06 4181.92 1790.06 4181.92 1796.94 3370.5 1796.94ZM4142.34 1767.58 4189 1793.5 4142.34 1819.42C4140.68 1820.34 4138.59 1819.75 4137.67 1818.09 4136.75 1816.43 4137.34 1814.33 4139 1813.41L4180.25 1790.5 4180.25 1796.51 4139 1773.59C4137.34 1772.67 4136.75 1770.57 4137.67 1768.91 4138.59 1767.25 4140.68 1766.66 4142.34 1767.58Z" fill="#E02D8A"/><path d="M3483.23 1369.5 3411.5 1470.68 3421.28 1604.49 3541.91 1666.5 3649.5 1578.38 3561.47 1483.73 3567.99 1379.29 3483.23 1369.5Z" stroke="#003F20" stroke-width="4.58333" stroke-miterlimit="8" fill="#EB43D0" fill-rule="evenodd"/><path d="M3567.47 1379.24 3673.47 1329.5 3842.41 1362.66 3880.5 1463.79 3741.38 1430.63 3709.91 1510.21 3648.63 1581.5 3562.5 1483.68 3567.47 1379.24Z" stroke="#003F20" stroke-width="4.58333" stroke-miterlimit="8" fill="#F07D00" fill-rule="evenodd"/><path d="M3541.08 1666.37 3481.5 1706.12 3560.94 1752.5 3681.76 1716.06 3766.17 1636.55 3908.5 1648.15 3882.02 1465.94 3743 1429.5 3708.24 1512.32 3650.31 1580.23 3541.08 1666.37Z" stroke="#003F20" stroke-width="4.58333" stroke-miterlimit="8" fill="#C3EB9B" fill-rule="evenodd"/><path d="M3681.5 1719.38 3948.66 1757.5 4048.23 1711.09 4061.5 1527.13 3890.58 1520.5 3907.18 1649.77 3766.13 1634.86 3681.5 1719.38Z" stroke="#003F20" stroke-width="4.58333" stroke-miterlimit="8" fill="#28618C" fill-rule="evenodd"/><path d="M3890.71 1520.49 3839.23 1366 3759.5 1346.06 3794.38 1314.5 4093.35 1344.4 4146.5 1467.33 4056.81 1618.5 4063.45 1532.12 3890.71 1520.49Z" stroke="#003F20" stroke-width="4.58333" stroke-miterlimit="8" fill="#13A983" fill-rule="evenodd"/><text fill="#00305E" font-family="Open Sans,Open Sans_MSFontService,sans-serif" font-weight="700" font-size="74" transform="matrix(1 0 0 1 1617.29 1130)">Vector</text><text fill="#00305E" font-family="Open Sans,Open Sans_MSFontService,sans-serif" font-weight="400" font-size="74" transform="matrix(1 0 0 1 1615.95 1222)">Point</text><text fill="#00305E" font-family="Open Sans,Open Sans_MSFontService,sans-serif" font-weight="400" font-size="74" transform="matrix(1 0 0 1 2511.57 1222)">Line</text><text fill="#00305E" font-family="Open Sans,Open Sans_MSFontService,sans-serif" font-weight="400" font-size="74" transform="matrix(1 0 0 1 3403.14 1196)">Polygon</text><path d="M1584.5 2028.06 2395.92 2028.06 2395.92 2034.94 1584.5 2034.94ZM2356.34 2005.58 2403 2031.5 2356.34 2057.42C2354.68 2058.34 2352.59 2057.75 2351.67 2056.09 2350.75 2054.43 2351.34 2052.33 2353 2051.41L2394.25 2028.5 2394.25 2034.51 2353 2011.59C2351.34 2010.67 2350.75 2008.57 2351.67 2006.91 2352.59 2005.25 2354.68 2004.66 2356.34 2005.58Z" fill="#E02D8A"/><path d="M1717.5 1940.5C1717.5 1933.32 1723.32 1927.5 1730.5 1927.5 1737.68 1927.5 1743.5 1933.32 1743.5 1940.5 1743.5 1947.68 1737.68 1953.5 1730.5 1953.5 1723.32 1953.5 1717.5 1947.68 1717.5 1940.5Z" stroke="#003F20" stroke-width="4.58333" stroke-miterlimit="8" fill="#F182DF" fill-rule="evenodd"/><path d="M1683.5 1940.5C1683.5 1933.32 1689.32 1927.5 1696.5 1927.5 1703.68 1927.5 1709.5 1933.32 1709.5 1940.5 1709.5 1947.68 1703.68 1953.5 1696.5 1953.5 1689.32 1953.5 1683.5 1947.68 1683.5 1940.5Z" stroke="#003F20" stroke-width="4.58333" stroke-miterlimit="8" fill="#FF0000" fill-rule="evenodd"/><path d="M1821.5 1940.5C1821.5 1933.32 1827.32 1927.5 1834.5 1927.5 1841.68 1927.5 1847.5 1933.32 1847.5 1940.5 1847.5 1947.68 1841.68 1953.5 1834.5 1953.5 1827.32 1953.5 1821.5 1947.68 1821.5 1940.5Z" stroke="#003F20" stroke-width="4.58333" stroke-miterlimit="8" fill="#F07D00" fill-rule="evenodd"/><path d="M1856.5 1940.5C1856.5 1933.32 1862.32 1927.5 1869.5 1927.5 1876.68 1927.5 1882.5 1933.32 1882.5 1940.5 1882.5 1947.68 1876.68 1953.5 1869.5 1953.5 1862.32 1953.5 1856.5 1947.68 1856.5 1940.5Z" stroke="#003F20" stroke-width="4.58333" stroke-miterlimit="8" fill="#C3EB9B" fill-rule="evenodd"/><path d="M2238.5 1940.5C2238.5 1933.32 2244.32 1927.5 2251.5 1927.5 2258.68 1927.5 2264.5 1933.32 2264.5 1940.5 2264.5 1947.68 2258.68 1953.5 2251.5 1953.5 2244.32 1953.5 2238.5 1947.68 2238.5 1940.5Z" stroke="#003F20" stroke-width="4.58333" stroke-miterlimit="8" fill="#F182DF" fill-rule="evenodd"/><path d="M1995.5 1940.5C1995.5 1933.32 2001.32 1927.5 2008.5 1927.5 2015.68 1927.5 2021.5 1933.32 2021.5 1940.5 2021.5 1947.68 2015.68 1953.5 2008.5 1953.5 2001.32 1953.5 1995.5 1947.68 1995.5 1940.5Z" stroke="#003F20" stroke-width="4.58333" stroke-miterlimit="8" fill="#3F2968" fill-rule="evenodd"/><path d="M2099.5 1940.5C2099.5 1933.32 2105.32 1927.5 2112.5 1927.5 2119.68 1927.5 2125.5 1933.32 2125.5 1940.5 2125.5 1947.68 2119.68 1953.5 2112.5 1953.5 2105.32 1953.5 2099.5 1947.68 2099.5 1940.5Z" stroke="#003F20" stroke-width="4.58333" stroke-miterlimit="8" fill="#C3EB9B" fill-rule="evenodd"/><path d="M1752.5 1940.5C1752.5 1933.32 1758.32 1927.5 1765.5 1927.5 1772.68 1927.5 1778.5 1933.32 1778.5 1940.5 1778.5 1947.68 1772.68 1953.5 1765.5 1953.5 1758.32 1953.5 1752.5 1947.68 1752.5 1940.5Z" stroke="#003F20" stroke-width="4.58333" stroke-miterlimit="8" fill="#28618C" fill-rule="evenodd"/><path d="M1891.5 1940.5C1891.5 1933.32 1897.32 1927.5 1904.5 1927.5 1911.68 1927.5 1917.5 1933.32 1917.5 1940.5 1917.5 1947.68 1911.68 1953.5 1904.5 1953.5 1897.32 1953.5 1891.5 1947.68 1891.5 1940.5Z" stroke="#003F20" stroke-width="4.58333" stroke-miterlimit="8" fill="#92D050" fill-rule="evenodd"/><path d="M2134.5 1940.5C2134.5 1933.32 2140.32 1927.5 2147.5 1927.5 2154.68 1927.5 2160.5 1933.32 2160.5 1940.5 2160.5 1947.68 2154.68 1953.5 2147.5 1953.5 2140.32 1953.5 2134.5 1947.68 2134.5 1940.5Z" stroke="#003F20" stroke-width="4.58333" stroke-miterlimit="8" fill="#28618C" fill-rule="evenodd"/><path d="M1960.5 1940.5C1960.5 1933.32 1966.32 1927.5 1973.5 1927.5 1980.68 1927.5 1986.5 1933.32 1986.5 1940.5 1986.5 1947.68 1980.68 1953.5 1973.5 1953.5 1966.32 1953.5 1960.5 1947.68 1960.5 1940.5Z" stroke="#003F20" stroke-width="4.58333" stroke-miterlimit="8" fill="#F07D00" fill-rule="evenodd"/><path d="M2030.5 1940.5C2030.5 1933.32 2036.32 1927.5 2043.5 1927.5 2050.68 1927.5 2056.5 1933.32 2056.5 1940.5 2056.5 1947.68 2050.68 1953.5 2043.5 1953.5 2036.32 1953.5 2030.5 1947.68 2030.5 1940.5Z" stroke="#003F20" stroke-width="4.58333" stroke-miterlimit="8" fill="#F182DF" fill-rule="evenodd"/><path d="M1648.5 1940.5C1648.5 1933.32 1654.32 1927.5 1661.5 1927.5 1668.68 1927.5 1674.5 1933.32 1674.5 1940.5 1674.5 1947.68 1668.68 1953.5 1661.5 1953.5 1654.32 1953.5 1648.5 1947.68 1648.5 1940.5Z" stroke="#003F20" stroke-width="4.58333" stroke-miterlimit="8" fill="#F07D00" fill-rule="evenodd"/><path d="M2168.5 1940.5C2168.5 1933.32 2174.32 1927.5 2181.5 1927.5 2188.68 1927.5 2194.5 1933.32 2194.5 1940.5 2194.5 1947.68 2188.68 1953.5 2181.5 1953.5 2174.32 1953.5 2168.5 1947.68 2168.5 1940.5Z" stroke="#003F20" stroke-width="4.58333" stroke-miterlimit="8" fill="#C3EB9B" fill-rule="evenodd"/><path d="M1613.5 1940.5C1613.5 1933.32 1619.32 1927.5 1626.5 1927.5 1633.68 1927.5 1639.5 1933.32 1639.5 1940.5 1639.5 1947.68 1633.68 1953.5 1626.5 1953.5 1619.32 1953.5 1613.5 1947.68 1613.5 1940.5Z" stroke="#003F20" stroke-width="4.58333" stroke-miterlimit="8" fill="#FF0000" fill-rule="evenodd"/><path d="M1787.5 1940.5C1787.5 1933.32 1793.32 1927.5 1800.5 1927.5 1807.68 1927.5 1813.5 1933.32 1813.5 1940.5 1813.5 1947.68 1807.68 1953.5 1800.5 1953.5 1793.32 1953.5 1787.5 1947.68 1787.5 1940.5Z" stroke="#003F20" stroke-width="4.58333" stroke-miterlimit="8" fill="#FF0000" fill-rule="evenodd"/><path d="M1926.5 1940.5C1926.5 1933.32 1932.32 1927.5 1939.5 1927.5 1946.68 1927.5 1952.5 1933.32 1952.5 1940.5 1952.5 1947.68 1946.68 1953.5 1939.5 1953.5 1932.32 1953.5 1926.5 1947.68 1926.5 1940.5Z" stroke="#003F20" stroke-width="4.58333" stroke-miterlimit="8" fill="#3F2968" fill-rule="evenodd"/><path d="M2307.5 1940.5C2307.5 1933.32 2313.32 1927.5 2320.5 1927.5 2327.68 1927.5 2333.5 1933.32 2333.5 1940.5 2333.5 1947.68 2327.68 1953.5 2320.5 1953.5 2313.32 1953.5 2307.5 1947.68 2307.5 1940.5Z" stroke="#003F20" stroke-width="4.58333" stroke-miterlimit="8" fill="#92D050" fill-rule="evenodd"/><path d="M2064.5 1940.5C2064.5 1933.32 2070.32 1927.5 2077.5 1927.5 2084.68 1927.5 2090.5 1933.32 2090.5 1940.5 2090.5 1947.68 2084.68 1953.5 2077.5 1953.5 2070.32 1953.5 2064.5 1947.68 2064.5 1940.5Z" stroke="#003F20" stroke-width="4.58333" stroke-miterlimit="8" fill="#28618C" fill-rule="evenodd"/><path d="M2203.5 1940.5C2203.5 1933.32 2209.32 1927.5 2216.5 1927.5 2223.68 1927.5 2229.5 1933.32 2229.5 1940.5 2229.5 1947.68 2223.68 1953.5 2216.5 1953.5 2209.32 1953.5 2203.5 1947.68 2203.5 1940.5Z" stroke="#003F20" stroke-width="4.58333" stroke-miterlimit="8" fill="#3F2968" fill-rule="evenodd"/><path d="M2273.5 1940.5C2273.5 1933.32 2279.32 1927.5 2286.5 1927.5 2293.68 1927.5 2299.5 1933.32 2299.5 1940.5 2299.5 1947.68 2293.68 1953.5 2286.5 1953.5 2279.32 1953.5 2273.5 1947.68 2273.5 1940.5Z" stroke="#003F20" stroke-width="4.58333" stroke-miterlimit="8" fill="#FF0000" fill-rule="evenodd"/><path d="M3200.9 2009 3228.2 1981.76 3236 1917.38 3194.4 1879 3106 1879 3106 1879" stroke="#93107E" stroke-width="8.02083" stroke-miterlimit="8" fill="none" fill-rule="evenodd"/><path d="M2559.59 1868 2558 1922.6 2602.66 1940.8 2636.96 1985 2688 1998 2688 1998" stroke="#003F20" stroke-width="8.02083" stroke-miterlimit="8" fill="none" fill-rule="evenodd"/><path d="M2849 2002.66 2917.33 2009 2925.67 1929.73 2979 1879" stroke="#28618C" stroke-width="8.02083" stroke-miterlimit="8" fill="none" fill-rule="evenodd"/><path d="M3003 1879 3052.27 1939.12 3105.74 1931 3116.23 1979.75 3133 2009" stroke="#F07D00" stroke-width="8.02083" stroke-miterlimit="8" fill="none" fill-rule="evenodd"/><path d="M2695 1879 2736.49 1989.98 2825 2009 2825 2009 2825 2009" stroke="#02ACA8" stroke-width="8.02083" stroke-miterlimit="8" fill="none" fill-rule="evenodd"/><path d="M3469.38 1879.5 3430.5 1923.79 3435.8 1982.36 3501.19 2009.5 3559.5 1970.93 3511.79 1929.5 3515.32 1883.79 3469.38 1879.5Z" stroke="#003F20" stroke-width="4.58333" stroke-miterlimit="8" fill="#EB43D0" fill-rule="evenodd"/><path d="M3727.53 1905.16 3770.86 1879.5 3839.93 1896.61 3855.5 1948.78 3798.62 1931.67 3785.76 1972.72 3760.71 2009.5 3725.5 1959.04 3727.53 1905.16Z" stroke="#003F20" stroke-width="4.58333" stroke-miterlimit="8" fill="#F07D00" fill-rule="evenodd"/><path d="M3589.5 1974.83 3571.5 1990.83 3595.5 2009.5 3632 1994.83 3657.5 1962.83 3700.5 1967.5 3692.5 1894.17 3650.5 1879.5 3640 1912.83 3622.5 1940.17 3589.5 1974.83Z" stroke="#003F20" stroke-width="4.58333" stroke-miterlimit="8" fill="#C3EB9B" fill-rule="evenodd"/><path d="M3853.5 1988.59 3944.9 2009.5 3978.96 1984.05 3983.5 1883.14 3925.03 1879.5 3930.71 1950.41 3882.45 1942.23 3853.5 1988.59Z" stroke="#003F20" stroke-width="4.58333" stroke-miterlimit="8" fill="#28618C" fill-rule="evenodd"/><path d="M4038.58 1969.91 4021.28 1904.35 3994.5 1895.89 4006.22 1882.5 4106.65 1895.19 4124.5 1947.35 4094.37 2011.5 4096.6 1974.84 4038.58 1969.91Z" stroke="#003F20" stroke-width="4.58333" stroke-miterlimit="8" fill="#13A983" fill-rule="evenodd"/><path d="M2480.5 2028.06 3291.92 2028.06 3291.92 2034.94 2480.5 2034.94ZM3252.34 2005.58 3299 2031.5 3252.34 2057.42C3250.68 2058.34 3248.59 2057.75 3247.67 2056.09 3246.75 2054.43 3247.34 2052.33 3249 2051.41L3290.25 2028.5 3290.25 2034.51 3249 2011.59C3247.34 2010.67 3246.75 2008.57 3247.67 2006.91 3248.59 2005.25 3250.68 2004.66 3252.34 2005.58Z" fill="#E02D8A"/><path d="M3370.5 2028.06 4181.92 2028.06 4181.92 2034.94 3370.5 2034.94ZM4142.34 2005.58 4189 2031.5 4142.34 2057.42C4140.68 2058.34 4138.59 2057.75 4137.67 2056.09 4136.75 2054.43 4137.34 2052.33 4139 2051.41L4180.25 2028.5 4180.25 2034.51 4139 2011.59C4137.34 2010.67 4136.75 2008.57 4137.67 2006.91 4138.59 2005.25 4140.68 2004.66 4142.34 2005.58Z" fill="#E02D8A"/></g></svg>