<svg width="2756" height="2075" xmlns="http://www.w3.org/2000/svg" xmlns:xlink="http://www.w3.org/1999/xlink" xml:space="preserve" overflow="hidden"><g transform="translate(-848 -107)"><rect x="851.5" y="228.5" width="780" height="1949" stroke="#00305E" stroke-width="6.875" stroke-miterlimit="8" stroke-dasharray="27.5 20.625" fill="none"/><text fill="#00305E" font-family="Open Sans,Open Sans_MSFontService,sans-serif" font-weight="400" font-size="74" transform="matrix(1 0 0 1 988.986 199)">Data </text><text fill="#00305E" font-family="Open Sans,Open Sans_MSFontService,sans-serif" font-weight="400" font-size="74" transform="matrix(1 0 0 1 1171.17 199)">Structure</text><rect x="2821.5" y="228.5" width="779" height="1949" stroke="#00305E" stroke-width="6.875" stroke-miterlimit="8" stroke-dasharray="27.5 20.625" fill="none"/><text fill="#00305E" font-family="Open Sans,Open Sans_MSFontService,sans-serif" font-weight="400" font-size="74" transform="matrix(1 0 0 1 2924.13 199)">Data Fileformats</text><rect x="916.5" y="271.5" width="650" height="130" stroke="#00305E" stroke-width="6.875" stroke-miterlimit="8" fill="#F3FFFF"/><text fill="#00305E" font-family="Open Sans,Open Sans_MSFontService,sans-serif" font-weight="400" font-size="74" transform="matrix(1 0 0 1 929.258 361)">Table (Dataframe)</text><rect x="916.5" y="545.5" width="650" height="389" stroke="#00305E" stroke-width="6.875" stroke-miterlimit="8" stroke-dasharray="27.5 20.625" fill="#D5EBFF"/><text fill="#00305E" font-family="Open Sans,Open Sans_MSFontService,sans-serif" font-weight="400" font-size="74" transform="matrix(1 0 0 1 1147.97 523)">Array</text><rect x="981.5" y="580.5" width="520" height="130" stroke="#00305E" stroke-width="6.875" stroke-miterlimit="8" fill="#F3FFFF"/><text fill="#00305E" font-family="Open Sans,Open Sans_MSFontService,sans-serif" font-weight="400" font-size="74" transform="matrix(1 0 0 1 1102.71 670)">1</text><text fill="#00305E" font-family="Open Sans,Open Sans_MSFontService,sans-serif" font-weight="400" font-size="74" transform="matrix(1 0 0 1 1145.11 670)">-</text><text fill="#00305E" font-family="Open Sans,Open Sans_MSFontService,sans-serif" font-weight="400" font-size="74" transform="matrix(1 0 0 1 1188.65 670)">or</text><text fill="#00305E" font-family="Open Sans,Open Sans_MSFontService,sans-serif" font-weight="400" font-size="74" transform="matrix(1 0 0 1 1283.18 670)">2D</text><rect x="981.5" y="765.5" width="520" height="130" stroke="#00305E" stroke-width="6.875" stroke-miterlimit="8" fill="#F3FFFF"/><text fill="#00305E" font-family="Open Sans,Open Sans_MSFontService,sans-serif" font-weight="400" font-size="74" transform="matrix(1 0 0 1 1089.25 855)">3</text><text fill="#00305E" font-family="Open Sans,Open Sans_MSFontService,sans-serif" font-weight="400" font-size="74" transform="matrix(1 0 0 1 1131.64 855)">-</text><text fill="#00305E" font-family="Open Sans,Open Sans_MSFontService,sans-serif" font-weight="400" font-size="74" transform="matrix(1 0 0 1 1175.18 855)">or</text><text fill="#00305E" font-family="Open Sans,Open Sans_MSFontService,sans-serif" font-weight="400" font-size="74" transform="matrix(1 0 0 1 1269.72 855)">n</text><text fill="#00305E" font-family="Open Sans,Open Sans_MSFontService,sans-serif" font-weight="400" font-size="74" transform="matrix(1 0 0 1 1314.98 855)">-</text><text fill="#00305E" font-family="Open Sans,Open Sans_MSFontService,sans-serif" font-weight="400" font-size="74" transform="matrix(1 0 0 1 1339.04 855)">D</text><rect x="916.5" y="1078.5" width="650" height="520" stroke="#00305E" stroke-width="6.875" stroke-miterlimit="8" stroke-dasharray="27.5 20.625" fill="#D5EBFF"/><text fill="#00305E" font-family="Open Sans,Open Sans_MSFontService,sans-serif" font-weight="400" font-size="74" transform="matrix(1 0 0 1 1054.01 1056)">Timeserise</text><rect x="981.5" y="1113.5" width="520" height="130" stroke="#00305E" stroke-width="6.875" stroke-miterlimit="8" fill="#F3FFFF"/><text fill="#00305E" font-family="Open Sans,Open Sans_MSFontService,sans-serif" font-weight="400" font-size="74" transform="matrix(1 0 0 1 1111.02 1204)">Normal</text><rect x="981.5" y="1278.5" width="520" height="130" stroke="#00305E" stroke-width="6.875" stroke-miterlimit="8" fill="#F3FFFF"/><text fill="#00305E" font-family="Open Sans,Open Sans_MSFontService,sans-serif" font-weight="400" font-size="74" transform="matrix(1 0 0 1 1015.34 1368)">Vector </text><text fill="#00305E" font-family="Open Sans,Open Sans_MSFontService,sans-serif" font-weight="400" font-size="74" transform="matrix(1 0 0 1 1257.68 1368)">based</text><rect x="981.5" y="1443.5" width="520" height="130" stroke="#00305E" stroke-width="6.875" stroke-miterlimit="8" fill="#F3FFFF"/><text fill="#00305E" font-family="Open Sans,Open Sans_MSFontService,sans-serif" font-weight="400" font-size="74" transform="matrix(1 0 0 1 1016.2 1533)">Raster </text><text fill="#00305E" font-family="Open Sans,Open Sans_MSFontService,sans-serif" font-weight="400" font-size="74" transform="matrix(1 0 0 1 1256.82 1533)">based</text><rect x="916.5" y="1742.5" width="650" height="389" stroke="#00305E" stroke-width="6.875" stroke-miterlimit="8" stroke-dasharray="27.5 20.625" fill="#D5EBFF"/><text fill="#00305E" font-family="Open Sans,Open Sans_MSFontService,sans-serif" font-weight="400" font-size="74" transform="matrix(1 0 0 1 1124.77 1720)">Spatial</text><rect x="981.5" y="1777.5" width="520" height="130" stroke="#00305E" stroke-width="6.875" stroke-miterlimit="8" fill="#F3FFFF"/><text fill="#00305E" font-family="Open Sans,Open Sans_MSFontService,sans-serif" font-weight="400" font-size="74" transform="matrix(1 0 0 1 1130.5 1867)">Raster</text><rect x="981.5" y="1962.5" width="520" height="130" stroke="#00305E" stroke-width="6.875" stroke-miterlimit="8" fill="#F3FFFF"/><text fill="#00305E" font-family="Open Sans,Open Sans_MSFontService,sans-serif" font-weight="400" font-size="74" transform="matrix(1 0 0 1 1129.64 2052)">Vector</text><rect x="2886.5" y="491.5" width="649" height="520" stroke="#007D40" stroke-width="6.875" stroke-miterlimit="8" fill="#E6FFED"/><text fill="#00305E" font-family="Open Sans,Open Sans_MSFontService,sans-serif" font-weight="400" font-size="74" transform="matrix(1 0 0 1 3042.14 598)">Plain Text</text><text fill="#00305E" font-family="Open Sans,Open Sans_MSFontService,sans-serif" font-style="italic" font-weight="400" font-size="74" transform="matrix(1 0 0 1 3058.76 687)">(.</text><text fill="#00305E" font-family="Open Sans,Open Sans_MSFontService,sans-serif" font-style="italic" font-weight="400" font-size="74" transform="matrix(1 0 0 1 3098.86 687)">txt</text><text fill="#00305E" font-family="Open Sans,Open Sans_MSFontService,sans-serif" font-style="italic" font-weight="400" font-size="74" transform="matrix(1 0 0 1 3183.65 687)">, .</text><text fill="#00305E" font-family="Open Sans,Open Sans_MSFontService,sans-serif" font-style="italic" font-weight="400" font-size="74" transform="matrix(1 0 0 1 3240.37 687)">csv</text><text fill="#00305E" font-family="Open Sans,Open Sans_MSFontService,sans-serif" font-style="italic" font-weight="400" font-size="74" transform="matrix(1 0 0 1 3340.63 687)">)</text><text fill="#00305E" font-family="Open Sans,Open Sans_MSFontService,sans-serif" font-weight="400" font-size="74" transform="matrix(1 0 0 1 2949.06 954)">Excel </text><text fill="#00305E" font-family="Open Sans,Open Sans_MSFontService,sans-serif" font-style="italic" font-weight="400" font-size="74" transform="matrix(1 0 0 1 3144.99 954)">(.xlsx, .</text><text fill="#00305E" font-family="Open Sans,Open Sans_MSFontService,sans-serif" font-style="italic" font-weight="400" font-size="74" transform="matrix(1 0 0 1 3363.85 954)">lsx</text><text fill="#00305E" font-family="Open Sans,Open Sans_MSFontService,sans-serif" font-style="italic" font-weight="400" font-size="74" transform="matrix(1 0 0 1 3450.36 954)">)</text><rect x="2886.5" y="1891.5" width="649" height="259" stroke="#F07D00" stroke-width="6.875" stroke-miterlimit="8" fill="#FFF9E0"/><text fill="#00305E" font-family="Open Sans,Open Sans_MSFontService,sans-serif" font-weight="400" font-size="74" transform="matrix(1 0 0 1 2972.83 1969)">Spatial</text><text fill="#00305E" font-family="Open Sans,Open Sans_MSFontService,sans-serif" font-weight="400" font-size="74" transform="matrix(1 0 0 1 3224.92 1969)">Vector</text><text fill="#00305E" font-family="Open Sans,Open Sans_MSFontService,sans-serif" font-style="italic" font-weight="400" font-size="64" transform="matrix(1 0 0 1 3050.47 2049)">SHP, GPKG, </text><text fill="#00305E" font-family="Open Sans,Open Sans_MSFontService,sans-serif" font-style="italic" font-weight="400" font-size="64" transform="matrix(1 0 0 1 3083.98 2126)">GeoJSON</text><rect x="2886.5" y="1623.5" width="649" height="259" stroke="#00B0F0" stroke-width="6.875" stroke-miterlimit="8" fill="#E3FFFF"/><text fill="#00305E" font-family="Open Sans,Open Sans_MSFontService,sans-serif" font-weight="400" font-size="74" transform="matrix(1 0 0 1 2973.69 1701)">Spatial</text><text fill="#00305E" font-family="Open Sans,Open Sans_MSFontService,sans-serif" font-weight="400" font-size="74" transform="matrix(1 0 0 1 3225.77 1701)">Raster</text><text fill="#00305E" font-family="Open Sans,Open Sans_MSFontService,sans-serif" font-style="italic" font-weight="400" font-size="64" transform="matrix(1 0 0 1 3077.39 1781)">TIFF, ASC, </text><text fill="#00305E" font-family="Open Sans,Open Sans_MSFontService,sans-serif" font-style="italic" font-weight="400" font-size="64" transform="matrix(1 0 0 1 3066.5 1858)">JPEG,</text><text fill="#00305E" font-family="Open Sans,Open Sans_MSFontService,sans-serif" font-style="italic" font-weight="400" font-size="64" transform="matrix(1 0 0 1 3229.21 1858)">PN</text><text fill="#00305E" font-family="Open Sans,Open Sans_MSFontService,sans-serif" font-style="italic" font-weight="400" font-size="64" transform="matrix(1 0 0 1 3310.57 1858)">G</text><rect x="2886.5" y="1276.5" width="649" height="130" stroke="#E02D8A" stroke-width="6.875" stroke-miterlimit="8" fill="#FFF3FF"/><text fill="#00305E" font-family="Open Sans,Open Sans_MSFontService,sans-serif" font-weight="400" font-size="74" transform="matrix(1 0 0 1 3078.53 1366)">NetCDF</text><rect x="2886.5" y="273.5" width="649" height="130" stroke="#93107E" stroke-width="6.875" stroke-miterlimit="8" fill="#FFF5FF"/><text fill="#00305E" font-family="Open Sans,Open Sans_MSFontService,sans-serif" font-weight="400" font-size="74" transform="matrix(1 0 0 1 3047.02 363)">Database</text><path d="M1566.51 334.063 2863.22 335.951 2863.21 342.826 1566.49 340.938ZM2858.65 325.632 2886.13 339.422 2858.61 353.132Z" fill="#93107E"/><path d="M0-3.4375 429.061-3.4375 429.061 795.85 425.624 792.412 1361.67 792.412 1361.67 799.287 422.186 799.287 422.186 0 425.624 3.4375 0 3.4375ZM1357.09 782.1 1384.59 795.85 1357.09 809.6Z" fill="#93107E" transform="matrix(1 0 0 -1 1501.5 1134.35)"/><path d="M0-3.4375 428.936-3.4375 428.936 956.324 425.498 952.886 1361.67 952.886 1361.67 959.761 422.061 959.761 422.061 0 425.498 3.4375 0 3.4375ZM1357.09 942.574 1384.59 956.324 1357.09 970.074Z" fill="#93107E" transform="matrix(1 0 0 -1 1501.5 1294.82)"/><path d="M1566.5 381.063 2229.75 381.063 2229.75 751.579 2226.31 748.142 2863.21 748.142 2863.21 755.017 2222.88 755.017 2222.88 384.5 2226.31 387.938 1566.5 387.938ZM2858.63 737.829 2886.13 751.579 2858.63 765.329Z" fill="#007D40"/><path d="M0-3.4375 727.33-3.4375 727.33 427.121 723.892 423.683 1361.67 423.683 1361.67 430.558 720.455 430.558 720.455 0 723.892 3.4375 0 3.4375ZM1357.09 413.371 1384.59 427.121 1357.09 440.871Z" fill="#007D40" transform="matrix(1 0 0 -1 1501.5 1178.62)"/><path d="M0-3.4375 730.846-3.4375 730.846 592.02 727.408 588.583 1361.67 588.583 1361.67 595.458 723.971 595.458 723.971 0 727.408 3.4375 0 3.4375ZM1357.09 578.27 1384.59 592.02 1357.09 605.77Z" fill="#007D40" transform="matrix(1 0 0 -1 1501.5 1343.52)"/><path d="M0-3.4375 961.66-3.4375 961.66 190.452 958.223 187.015 1296.71 187.015 1296.71 193.89 954.785 193.89 954.785 0 958.223 3.4375 0 3.4375ZM1292.13 176.702 1319.63 190.452 1292.13 204.202Z" fill="#E02D8A" transform="matrix(1 0 0 -1 1566.5 1531.95)"/><path d="M1566.5 827.062 2528.16 827.062 2528.16 1341.3 2524.72 1337.87 2863.21 1337.87 2863.21 1344.74 2521.29 1344.74 2521.29 830.5 2524.72 833.938 1566.5 833.938ZM2858.63 1327.55 2886.13 1341.3 2858.63 1355.05Z" fill="#E02D8A"/><path d="M0-3.4375 1025.72-3.4375 1025.72 472.856 1022.28 469.418 1361.67 469.418 1361.67 476.293 1018.85 476.293 1018.85 0 1022.28 3.4375 0 3.4375ZM1357.09 459.106 1384.59 472.856 1357.09 486.606Z" fill="#E02D8A" transform="matrix(1 0 0 -1 1501.5 1814.36)"/><path d="M0-3.4375 695.733-3.4375 695.733 0.000360892 692.295-3.43714 1361.67-3.43714 1361.67 3.43786 688.858 3.43786 688.858 0 692.295 3.4375 0 3.4375ZM1357.09-13.7496 1384.59 0.000360892 1357.09 13.7504Z" fill="#F07D00" transform="matrix(1 0 0 -1 1501.5 2027.5)"/><path d="M1501.5 1839.06 2200.63 1839.06 2200.63 1842.5 2197.19 1839.06 2869.97 1839.06 2869.97 1845.94 2193.75 1845.94 2193.75 1842.5 2197.19 1845.94 1501.5 1845.94ZM2865.38 1828.75 2892.88 1842.5 2865.38 1856.25Z" fill="#00B0F0"/></g></svg>