<svg width="1478" height="807" xmlns="http://www.w3.org/2000/svg" xmlns:xlink="http://www.w3.org/1999/xlink" xml:space="preserve" overflow="hidden"><g transform="translate(-101 -328)"><rect x="926" y="571" width="130" height="130" stroke="#FF0000" stroke-width="8.02083" stroke-miterlimit="8" fill="#E1F5CD"/><rect x="926" y="701" width="130" height="130" stroke="#93107E" stroke-width="8.02083" stroke-miterlimit="8" fill="#E1F5CD"/><rect x="926" y="831" width="130" height="130" stroke="#F07D00" stroke-width="8.02083" stroke-miterlimit="8" fill="#E1F5CD"/><rect x="926" y="961" width="130" height="130" stroke="#00B0F0" stroke-width="8.02083" stroke-miterlimit="8" fill="#E1F5CD"/><rect x="1056" y="571" width="129" height="130" stroke="#FF0000" stroke-width="8.02083" stroke-miterlimit="8" fill="#8DDDFF"/><rect x="1056" y="701" width="129" height="130" stroke="#93107E" stroke-width="8.02083" stroke-miterlimit="8" fill="#8DDDFF"/><rect x="1056" y="831" width="129" height="130" stroke="#F07D00" stroke-width="8.02083" stroke-miterlimit="8" fill="#8DDDFF"/><rect x="1056" y="961" width="129" height="130" stroke="#00B0F0" stroke-width="8.02083" stroke-miterlimit="8" fill="#8DDDFF"/><rect x="1185" y="571" width="130" height="130" stroke="#FF0000" stroke-width="8.02083" stroke-miterlimit="8" fill="#F8C0EF"/><rect x="1185" y="701" width="130" height="130" stroke="#93107E" stroke-width="8.02083" stroke-miterlimit="8" fill="#F8C0EF"/><rect x="1185" y="831" width="130" height="130" stroke="#F07D00" stroke-width="8.02083" stroke-miterlimit="8" fill="#F8C0EF"/><rect x="1185" y="961" width="130" height="130" stroke="#00B0F0" stroke-width="8.02083" stroke-miterlimit="8" fill="#F8C0EF"/><path d="M995.937 481.5 995.938 552.372 989.063 552.372 989.062 481.5ZM1018.42 512.791 992.5 559.45 966.578 512.791C965.656 511.132 966.254 509.039 967.914 508.117 969.573 507.195 971.666 507.793 972.588 509.452L995.505 550.702 989.495 550.702 1012.41 509.452C1013.33 507.793 1015.43 507.195 1017.09 508.117 1018.75 509.039 1019.34 511.131 1018.42 512.791Z" fill="#C3EB9B"/><path d="M1124.94 481.5 1124.94 552.372 1118.06 552.372 1118.06 481.5ZM1147.42 512.791 1121.5 559.45 1095.58 512.791C1094.66 511.132 1095.25 509.039 1096.91 508.117 1098.57 507.195 1100.67 507.793 1101.59 509.452L1124.51 550.702 1118.5 550.702 1141.41 509.452C1142.33 507.793 1144.43 507.195 1146.09 508.117 1147.75 509.039 1148.34 511.131 1147.42 512.791Z" fill="#38AEFF"/><path d="M1253.94 481.5 1253.94 552.372 1247.06 552.372 1247.06 481.5ZM1276.42 512.791 1250.5 559.45 1224.58 512.791C1223.66 511.132 1224.25 509.039 1225.91 508.117 1227.57 507.195 1229.67 507.793 1230.59 509.452L1253.51 550.702 1247.5 550.702 1270.41 509.452C1271.33 507.793 1273.43 507.195 1275.09 508.117 1276.75 509.039 1277.34 511.131 1276.42 512.791Z" fill="#F8C0EF"/><rect x="1315" y="571" width="130" height="130" stroke="#FF0000" stroke-width="8.02083" stroke-miterlimit="8" fill="#FFC89F"/><rect x="1315" y="701" width="130" height="130" stroke="#93107E" stroke-width="8.02083" stroke-miterlimit="8" fill="#FFC89F"/><rect x="1315" y="831" width="130" height="130" stroke="#F07D00" stroke-width="8.02083" stroke-miterlimit="8" fill="#FFC89F"/><rect x="1315" y="961" width="130" height="130" stroke="#00B0F0" stroke-width="8.02083" stroke-miterlimit="8" fill="#FFC89F"/><rect x="1445" y="571" width="130" height="130" stroke="#FF0000" stroke-width="8.02083" stroke-miterlimit="8" fill="#28618C"/><rect x="1445" y="701" width="130" height="130" stroke="#93107E" stroke-width="8.02083" stroke-miterlimit="8" fill="#28618C"/><rect x="1445" y="831" width="130" height="130" stroke="#F07D00" stroke-width="8.02083" stroke-miterlimit="8" fill="#28618C"/><rect x="1445" y="961" width="130" height="130" stroke="#00B0F0" stroke-width="8.02083" stroke-miterlimit="8" fill="#28618C"/><path d="M1384.94 481.5 1384.94 552.372 1378.06 552.372 1378.06 481.5ZM1407.42 512.791 1381.5 559.45 1355.58 512.791C1354.66 511.132 1355.25 509.039 1356.91 508.117 1358.57 507.195 1360.67 507.793 1361.59 509.452L1384.51 550.702 1378.5 550.702 1401.41 509.452C1402.33 507.793 1404.43 507.195 1406.09 508.117 1407.75 509.039 1408.34 511.131 1407.42 512.791Z" fill="#FFC89F"/><path d="M1513.94 481.5 1513.94 552.372 1507.06 552.372 1507.06 481.5ZM1536.42 512.791 1510.5 559.45 1484.58 512.791C1483.66 511.132 1484.25 509.039 1485.91 508.117 1487.57 507.195 1489.67 507.793 1490.59 509.452L1513.51 550.702 1507.5 550.702 1530.41 509.452C1531.33 507.793 1533.43 507.195 1535.09 508.117 1536.75 509.039 1537.34 511.131 1536.42 512.791Z" fill="#28618C"/><path d="M660.5 636.5 925.651 637.369" stroke="#FF0000" stroke-width="6.875" stroke-miterlimit="8" stroke-dasharray="27.5 20.625 6.875 20.625" fill="none" fill-rule="evenodd"/><rect x="400" y="571" width="129" height="129" stroke="#FF0000" stroke-width="8.02083" stroke-miterlimit="8" fill="#A6E169"/><text fill="#FFFFFF" font-family="Open Sans,Open Sans_MSFontService,sans-serif" font-weight="700" font-size="74" transform="matrix(1 0 0 1 439.903 661)">X</text><rect x="400" y="700" width="129" height="130" stroke="#93107E" stroke-width="8.02083" stroke-miterlimit="8" fill="#A6E169"/><text fill="#FFFFFF" font-family="Open Sans,Open Sans_MSFontService,sans-serif" font-weight="700" font-size="74" transform="matrix(1 0 0 1 439.903 791)">X</text><rect x="400" y="830" width="129" height="130" stroke="#F07D00" stroke-width="8.02083" stroke-miterlimit="8" fill="#A6E169"/><text fill="#FFFFFF" font-family="Open Sans,Open Sans_MSFontService,sans-serif" font-weight="700" font-size="74" transform="matrix(1 0 0 1 439.903 921)">X</text><rect x="400" y="960" width="129" height="130" stroke="#009EE0" stroke-width="8.02083" stroke-miterlimit="8" fill="#A6E169"/><text fill="#FFFFFF" font-family="Open Sans,Open Sans_MSFontService,sans-serif" font-weight="700" font-size="74" transform="matrix(1 0 0 1 439.903 1051)">X</text><rect x="531" y="571" width="129" height="129" stroke="#FF0000" stroke-width="8.02083" stroke-miterlimit="8" fill="#65FFB4"/><text fill="#FFFFFF" font-family="Open Sans,Open Sans_MSFontService,sans-serif" font-weight="700" font-size="74" transform="matrix(1 0 0 1 572.325 661)">Y</text><rect x="531" y="700" width="129" height="130" stroke="#93107E" stroke-width="8.02083" stroke-miterlimit="8" fill="#65FFB4"/><text fill="#FFFFFF" font-family="Open Sans,Open Sans_MSFontService,sans-serif" font-weight="700" font-size="74" transform="matrix(1 0 0 1 572.325 791)">Y</text><rect x="531" y="830" width="129" height="130" stroke="#F07D00" stroke-width="8.02083" stroke-miterlimit="8" fill="#65FFB4"/><text fill="#FFFFFF" font-family="Open Sans,Open Sans_MSFontService,sans-serif" font-weight="700" font-size="74" transform="matrix(1 0 0 1 572.325 921)">Y</text><rect x="531" y="960" width="129" height="130" stroke="#009EE0" stroke-width="8.02083" stroke-miterlimit="8" fill="#65FFB4"/><text fill="#FFFFFF" font-family="Open Sans,Open Sans_MSFontService,sans-serif" font-weight="700" font-size="74" transform="matrix(1 0 0 1 572.325 1051)">Y</text><text fill="#A6E169" font-family="Open Sans,Open Sans_MSFontService,sans-serif" font-weight="700" font-size="74" transform="matrix(1 0 0 1 439.903 550)">X</text><text fill="#65FFB4" font-family="Open Sans,Open Sans_MSFontService,sans-serif" font-weight="700" font-size="74" transform="matrix(1 0 0 1 570.193 551)">Y</text><path d="M189.938 571.5 189.938 1084.1 183.063 1084.1 183.063 571.5ZM212.422 1044.52 186.501 1091.18 160.579 1044.52C159.657 1042.86 160.255 1040.77 161.914 1039.85 163.574 1038.93 165.667 1039.53 166.589 1041.18L189.505 1082.43 183.496 1082.43 206.412 1041.18C207.334 1039.53 209.427 1038.93 211.087 1039.85 212.746 1040.77 213.344 1042.86 212.422 1044.52Z" fill="#E02D8A"/><path d="M103.5 895.5C103.5 888.32 109.32 882.5 116.5 882.5 123.68 882.5 129.5 888.32 129.5 895.5 129.5 902.68 123.68 908.5 116.5 908.5 109.32 908.5 103.5 902.68 103.5 895.5Z" stroke="#003F20" stroke-width="4.58333" stroke-miterlimit="8" fill="#F07D00" fill-rule="evenodd"/><path d="M103.5 765.5C103.5 758.32 109.32 752.5 116.5 752.5 123.68 752.5 129.5 758.32 129.5 765.5 129.5 772.68 123.68 778.5 116.5 778.5 109.32 778.5 103.5 772.68 103.5 765.5Z" stroke="#003F20" stroke-width="4.58333" stroke-miterlimit="8" fill="#93107E" fill-rule="evenodd"/><path d="M105.5 1019.5C105.5 1012.32 111.32 1006.5 118.5 1006.5 125.68 1006.5 131.5 1012.32 131.5 1019.5 131.5 1026.68 125.68 1032.5 118.5 1032.5 111.32 1032.5 105.5 1026.68 105.5 1019.5Z" stroke="#003F20" stroke-width="4.58333" stroke-miterlimit="8" fill="#009EE0" fill-rule="evenodd"/><path d="M105.5 629.5C105.5 622.32 111.32 616.5 118.5 616.5 125.68 616.5 131.5 622.32 131.5 629.5 131.5 636.68 125.68 642.5 118.5 642.5 111.32 642.5 105.5 636.68 105.5 629.5Z" stroke="#003F20" stroke-width="4.58333" stroke-miterlimit="8" fill="#FF0000" fill-rule="evenodd"/><path d="M660.5 765.5 925.651 766.369" stroke="#93107E" stroke-width="6.875" stroke-miterlimit="8" stroke-dasharray="27.5 20.625 6.875 20.625" fill="none" fill-rule="evenodd"/><path d="M660.5 895.5 925.651 896.369" stroke="#F07D00" stroke-width="6.875" stroke-miterlimit="8" stroke-dasharray="27.5 20.625 6.875 20.625" fill="none" fill-rule="evenodd"/><path d="M660.5 1025.5 925.651 1026.37" stroke="#00B0F0" stroke-width="6.875" stroke-miterlimit="8" stroke-dasharray="27.5 20.625 6.875 20.625" fill="none" fill-rule="evenodd"/><rect x="272" y="433" width="388" height="25.9998" fill="#00305E"/><text fill="#00305E" font-family="Open Sans,Open Sans_MSFontService,sans-serif" font-weight="400" font-size="74" transform="matrix(1 0 0 1 292.049 421)">Geometry</text><rect x="922" y="434" width="647" height="25.9998" fill="#00305E"/><text fill="#00305E" font-family="Open Sans,Open Sans_MSFontService,sans-serif" font-weight="400" font-size="74" transform="matrix(1 0 0 1 1071.23 421)">Attributes</text><rect x="270" y="571" width="130" height="129" stroke="#FF0000" stroke-width="8.02083" stroke-miterlimit="8" fill="#E6FFED"/><text fill="#FF0000" font-family="Open Sans,Open Sans_MSFontService,sans-serif" font-weight="700" font-size="74" transform="matrix(1 0 0 1 314.176 661)">1</text><rect x="270" y="700" width="130" height="130" stroke="#93107E" stroke-width="8.02083" stroke-miterlimit="8" fill="#E6FFED"/><text fill="#93107E" font-family="Open Sans,Open Sans_MSFontService,sans-serif" font-weight="700" font-size="74" transform="matrix(1 0 0 1 314.176 791)">2</text><rect x="270" y="830" width="130" height="130" stroke="#F07D00" stroke-width="8.02083" stroke-miterlimit="8" fill="#E6FFED"/><text fill="#F07D00" font-family="Open Sans,Open Sans_MSFontService,sans-serif" font-weight="700" font-size="74" transform="matrix(1 0 0 1 314.176 921)">3</text><rect x="270" y="960" width="130" height="130" stroke="#009EE0" stroke-width="8.02083" stroke-miterlimit="8" fill="#E6FFED"/><text fill="#00B0F0" font-family="Open Sans,Open Sans_MSFontService,sans-serif" font-weight="700" font-size="74" transform="matrix(1 0 0 1 314.176 1051)">4</text><text fill="#E02D8A" font-family="Open Sans,Open Sans_MSFontService,sans-serif" font-weight="700" font-size="74" transform="matrix(1 0 0 1 284.083 550)">G</text><text fill="#E02D8A" font-family="Open Sans,Open Sans_MSFontService,sans-serif" font-weight="700" font-size="46" transform="matrix(1 0 0 1 337.938 550)">ID</text></g></svg>