<svg width="2453" height="1854" xmlns="http://www.w3.org/2000/svg" xmlns:xlink="http://www.w3.org/1999/xlink" xml:space="preserve" overflow="hidden"><g transform="translate(-669 -132)"><text fill="#00305E" font-family="Open Sans,Open Sans_MSFontService,sans-serif" font-weight="700" font-size="74" transform="matrix(1 0 0 1 1820.67 1922)">Variables</text><rect x="831.5" y="258.5" width="130" height="130" stroke="#E02D8A" stroke-width="4.58333" stroke-miterlimit="8" fill="#FFF3FF"/><rect x="961.5" y="258.5" width="130" height="130" stroke="#E02D8A" stroke-width="4.58333" stroke-miterlimit="8" fill="#FFF3FF"/><rect x="1091.5" y="258.5" width="130" height="130" stroke="#E02D8A" stroke-width="4.58333" stroke-miterlimit="8" fill="#FFF3FF"/><rect x="1221.5" y="258.5" width="130" height="130" stroke="#E02D8A" stroke-width="4.58333" stroke-miterlimit="8" fill="#FFF3FF"/><rect x="961.5" y="505.5" width="130" height="130" stroke="#E02D8A" stroke-width="4.58333" stroke-miterlimit="8" fill="#FFF3FF"/><rect x="1091.5" y="505.5" width="130" height="130" stroke="#E02D8A" stroke-width="4.58333" stroke-miterlimit="8" fill="#FFF3FF"/><rect x="1221.5" y="505.5" width="130" height="130" stroke="#E02D8A" stroke-width="4.58333" stroke-miterlimit="8" fill="#FFF3FF"/><rect x="961.5" y="753.5" width="130" height="130" stroke="#E02D8A" stroke-width="4.58333" stroke-miterlimit="8" fill="#FFF3FF"/><rect x="1091.5" y="753.5" width="130" height="130" stroke="#E02D8A" stroke-width="4.58333" stroke-miterlimit="8" fill="#FFF3FF"/><rect x="1221.5" y="753.5" width="130" height="130" stroke="#E02D8A" stroke-width="4.58333" stroke-miterlimit="8" fill="#FFF3FF"/><path d="M1117.94 1210.5 1117.94 1762.08 1111.06 1762.08 1111.06 1210.5ZM1140.42 1722.5 1114.5 1769.16 1088.58 1722.5C1087.66 1720.84 1088.25 1718.75 1089.91 1717.83 1091.57 1716.9 1093.67 1717.5 1094.59 1719.16L1117.51 1760.41 1111.5 1760.41 1134.41 1719.16C1135.33 1717.5 1137.43 1716.9 1139.09 1717.83 1140.75 1718.75 1141.34 1720.84 1140.42 1722.5Z" fill="#E02D8A"/><path d="M2.43068-2.43068 127.345 122.483 122.483 127.345-2.43068 2.43068ZM115.256 78.597 129.919 129.919 78.597 115.256C76.7716 114.734 75.7146 112.832 76.2361 111.006 76.7577 109.181 78.6603 108.124 80.4857 108.645L125.858 121.609 121.609 125.858 108.645 80.4857C108.124 78.6603 109.181 76.7577 111.006 76.2361 112.832 75.7146 114.734 76.7716 115.256 78.597Z" fill="#E02D8A" transform="matrix(1 0 0 -1 1112.5 1211.42)"/><rect x="1279.5" y="1125.5" width="130" height="130" stroke="#003F20" stroke-width="4.58333" stroke-miterlimit="8" fill="#E1F5CD"/><rect x="1279.5" y="1255.5" width="130" height="130" stroke="#003F20" stroke-width="4.58333" stroke-miterlimit="8" fill="#E1F5CD"/><rect x="1279.5" y="1385.5" width="130" height="130" stroke="#003F20" stroke-width="4.58333" stroke-miterlimit="8" fill="#E1F5CD"/><rect x="1279.5" y="1515.5" width="130" height="130" stroke="#003F20" stroke-width="4.58333" stroke-miterlimit="8" fill="#E1F5CD"/><rect x="1408.5" y="1125.5" width="130" height="130" stroke="#003F20" stroke-width="4.58333" stroke-miterlimit="8" fill="#E1F5CD"/><rect x="1408.5" y="1255.5" width="130" height="130" stroke="#003F20" stroke-width="4.58333" stroke-miterlimit="8" fill="#E1F5CD"/><rect x="1408.5" y="1385.5" width="130" height="130" stroke="#003F20" stroke-width="4.58333" stroke-miterlimit="8" fill="#E1F5CD"/><rect x="1408.5" y="1515.5" width="130" height="130" stroke="#003F20" stroke-width="4.58333" stroke-miterlimit="8" fill="#E1F5CD"/><rect x="1538.5" y="1125.5" width="129" height="130" stroke="#003F20" stroke-width="4.58333" stroke-miterlimit="8" fill="#E1F5CD"/><rect x="1538.5" y="1255.5" width="129" height="130" stroke="#003F20" stroke-width="4.58333" stroke-miterlimit="8" fill="#E1F5CD"/><rect x="1538.5" y="1385.5" width="129" height="130" stroke="#003F20" stroke-width="4.58333" stroke-miterlimit="8" fill="#E1F5CD"/><rect x="1538.5" y="1515.5" width="129" height="130" stroke="#003F20" stroke-width="4.58333" stroke-miterlimit="8" fill="#E1F5CD"/><rect x="1217.5" y="1184.5" width="130" height="130" stroke="#003F20" stroke-width="4.58333" stroke-miterlimit="8" fill="#E1F5CD"/><rect x="1217.5" y="1314.5" width="130" height="130" stroke="#003F20" stroke-width="4.58333" stroke-miterlimit="8" fill="#E1F5CD"/><rect x="1217.5" y="1444.5" width="130" height="130" stroke="#003F20" stroke-width="4.58333" stroke-miterlimit="8" fill="#E1F5CD"/><rect x="1217.5" y="1574.5" width="130" height="130" stroke="#003F20" stroke-width="4.58333" stroke-miterlimit="8" fill="#E1F5CD"/><rect x="1345.5" y="1184.5" width="130" height="130" stroke="#003F20" stroke-width="4.58333" stroke-miterlimit="8" fill="#E1F5CD"/><rect x="1345.5" y="1314.5" width="130" height="130" stroke="#003F20" stroke-width="4.58333" stroke-miterlimit="8" fill="#E1F5CD"/><rect x="1345.5" y="1444.5" width="130" height="130" stroke="#003F20" stroke-width="4.58333" stroke-miterlimit="8" fill="#E1F5CD"/><rect x="1345.5" y="1574.5" width="130" height="130" stroke="#003F20" stroke-width="4.58333" stroke-miterlimit="8" fill="#E1F5CD"/><rect x="1475.5" y="1184.5" width="130" height="130" stroke="#003F20" stroke-width="4.58333" stroke-miterlimit="8" fill="#E1F5CD"/><rect x="1475.5" y="1314.5" width="130" height="130" stroke="#003F20" stroke-width="4.58333" stroke-miterlimit="8" fill="#E1F5CD"/><rect x="1475.5" y="1444.5" width="130" height="130" stroke="#003F20" stroke-width="4.58333" stroke-miterlimit="8" fill="#E1F5CD"/><rect x="1475.5" y="1574.5" width="130" height="130" stroke="#003F20" stroke-width="4.58333" stroke-miterlimit="8" fill="#E1F5CD"/><rect x="1152.5" y="1249.5" width="130" height="130" stroke="#003F20" stroke-width="4.58333" stroke-miterlimit="8" fill="#E1F5CD"/><rect x="1152.5" y="1379.5" width="130" height="130" stroke="#003F20" stroke-width="4.58333" stroke-miterlimit="8" fill="#E1F5CD"/><rect x="1152.5" y="1509.5" width="130" height="130" stroke="#003F20" stroke-width="4.58333" stroke-miterlimit="8" fill="#E1F5CD"/><rect x="1152.5" y="1639.5" width="130" height="129" stroke="#003F20" stroke-width="4.58333" stroke-miterlimit="8" fill="#E1F5CD"/><rect x="1280.5" y="1249.5" width="130" height="130" stroke="#003F20" stroke-width="4.58333" stroke-miterlimit="8" fill="#E1F5CD"/><rect x="1280.5" y="1379.5" width="130" height="130" stroke="#003F20" stroke-width="4.58333" stroke-miterlimit="8" fill="#E1F5CD"/><rect x="1280.5" y="1509.5" width="130" height="130" stroke="#003F20" stroke-width="4.58333" stroke-miterlimit="8" fill="#E1F5CD"/><rect x="1280.5" y="1639.5" width="130" height="129" stroke="#003F20" stroke-width="4.58333" stroke-miterlimit="8" fill="#E1F5CD"/><rect x="1410.5" y="1249.5" width="130" height="130" stroke="#003F20" stroke-width="4.58333" stroke-miterlimit="8" fill="#E1F5CD"/><rect x="1410.5" y="1379.5" width="130" height="130" stroke="#003F20" stroke-width="4.58333" stroke-miterlimit="8" fill="#E1F5CD"/><rect x="1410.5" y="1509.5" width="130" height="130" stroke="#003F20" stroke-width="4.58333" stroke-miterlimit="8" fill="#E1F5CD"/><rect x="1410.5" y="1639.5" width="130" height="129" stroke="#003F20" stroke-width="4.58333" stroke-miterlimit="8" fill="#E1F5CD"/><path d="M1114.5 1209.06 1536.16 1209.06 1536.16 1215.94 1114.5 1215.94ZM1496.58 1186.58 1543.24 1212.5 1496.58 1238.42C1494.92 1239.34 1492.83 1238.75 1491.9 1237.09 1490.98 1235.43 1491.58 1233.33 1493.24 1232.41L1534.49 1209.5 1534.49 1215.51 1493.24 1192.59C1491.58 1191.67 1490.98 1189.57 1491.9 1187.91 1492.83 1186.25 1494.92 1185.66 1496.58 1186.58Z" fill="#E02D8A"/><path d="M1690 1638.5C1690 1566.98 1747.98 1509 1819.5 1509 1891.02 1509 1949 1566.98 1949 1638.5 1949 1710.02 1891.02 1768 1819.5 1768 1747.98 1768 1690 1710.02 1690 1638.5Z" stroke="#00B0F0" stroke-width="8.02083" stroke-miterlimit="8" fill="#E3FFFF" fill-rule="evenodd"/><text fill="#00B0F0" font-family="Open Sans,Open Sans_MSFontService,sans-serif" font-weight="400" font-size="74" transform="matrix(1 0 0 1 1767.64 1619)">Atr</text><text fill="#00B0F0" font-family="Open Sans,Open Sans_MSFontService,sans-serif" font-weight="400" font-size="74" transform="matrix(1 0 0 1 1801.72 1708)">c</text><rect x="1073.5" y="1067.5" width="897" height="727" stroke="#00305E" stroke-width="6.875" stroke-miterlimit="8" stroke-dasharray="27.5 20.625" fill="none"/><text fill="#00305E" font-family="Open Sans,Open Sans_MSFontService,sans-serif" font-weight="400" font-size="74" transform="matrix(1 0 0 1 1436.35 1046)">Var c</text><rect x="2106.5" y="1245.5" width="129" height="130" stroke="#003F20" stroke-width="4.58333" stroke-miterlimit="8" fill="#E1F5CD"/><rect x="2235.5" y="1245.5" width="130" height="130" stroke="#003F20" stroke-width="4.58333" stroke-miterlimit="8" fill="#E1F5CD"/><rect x="2365.5" y="1245.5" width="130" height="130" stroke="#003F20" stroke-width="4.58333" stroke-miterlimit="8" fill="#E1F5CD"/><rect x="2495.5" y="1245.5" width="130" height="130" stroke="#003F20" stroke-width="4.58333" stroke-miterlimit="8" fill="#E1F5CD"/><rect x="2106.5" y="1116.5" width="129" height="130" stroke="#003F20" stroke-width="4.58333" stroke-miterlimit="8" fill="#E1F5CD"/><rect x="2235.5" y="1116.5" width="130" height="130" stroke="#003F20" stroke-width="4.58333" stroke-miterlimit="8" fill="#E1F5CD"/><rect x="2365.5" y="1116.5" width="130" height="130" stroke="#003F20" stroke-width="4.58333" stroke-miterlimit="8" fill="#E1F5CD"/><rect x="2495.5" y="1116.5" width="130" height="130" stroke="#003F20" stroke-width="4.58333" stroke-miterlimit="8" fill="#E1F5CD"/><rect x="2106.5" y="987.5" width="129" height="130" stroke="#003F20" stroke-width="4.58333" stroke-miterlimit="8" fill="#E1F5CD"/><rect x="2235.5" y="987.5" width="130" height="130" stroke="#003F20" stroke-width="4.58333" stroke-miterlimit="8" fill="#E1F5CD"/><rect x="2365.5" y="987.5" width="130" height="130" stroke="#003F20" stroke-width="4.58333" stroke-miterlimit="8" fill="#E1F5CD"/><rect x="2495.5" y="987.5" width="130" height="130" stroke="#003F20" stroke-width="4.58333" stroke-miterlimit="8" fill="#E1F5CD"/><path d="M2072.94 946.5 2072.94 1368.16 2066.06 1368.16 2066.06 946.5ZM2095.42 1328.58 2069.5 1375.24 2043.58 1328.58C2042.66 1326.92 2043.25 1324.83 2044.91 1323.9 2046.57 1322.98 2048.67 1323.58 2049.59 1325.24L2072.51 1366.49 2066.5 1366.49 2089.41 1325.24C2090.33 1323.58 2092.43 1322.98 2094.09 1323.9 2095.75 1324.83 2096.34 1326.92 2095.42 1328.58Z" fill="#E02D8A"/><path d="M2067.5 945.062 2619.08 945.063 2619.08 951.938 2067.5 951.937ZM2579.5 922.579 2626.16 948.5 2579.5 974.422C2577.84 975.344 2575.75 974.746 2574.83 973.086 2573.9 971.427 2574.5 969.334 2576.16 968.412L2617.41 945.495 2617.41 951.505 2576.16 928.588C2574.5 927.666 2573.9 925.574 2574.83 923.914 2575.75 922.255 2577.84 921.657 2579.5 922.579Z" fill="#E02D8A"/><path d="M2644 1245C2644 1173.2 2702.2 1115 2774 1115 2845.8 1115 2904 1173.2 2904 1245 2904 1316.8 2845.8 1375 2774 1375 2702.2 1375 2644 1316.8 2644 1245Z" stroke="#00B0F0" stroke-width="8.02083" stroke-miterlimit="8" fill="#E3FFFF" fill-rule="evenodd"/><text fill="#00B0F0" font-family="Open Sans,Open Sans_MSFontService,sans-serif" font-weight="400" font-size="74" transform="matrix(1 0 0 1 2722.5 1226)">Atr</text><text fill="#00B0F0" font-family="Open Sans,Open Sans_MSFontService,sans-serif" font-weight="400" font-size="74" transform="matrix(1 0 0 1 2751.72 1315)">b</text><rect x="2027.5" y="907.5" width="896" height="481" stroke="#00305E" stroke-width="6.875" stroke-miterlimit="8" stroke-dasharray="27.5 20.625" fill="none"/><text fill="#00305E" font-family="Open Sans,Open Sans_MSFontService,sans-serif" font-weight="400" font-size="74" transform="matrix(1 0 0 1 2384.88 887)">Var b</text><rect x="2495.5" y="261.5" width="130" height="129" stroke="#003F20" stroke-width="4.58333" stroke-miterlimit="8" fill="#E1F5CD"/><rect x="2495.5" y="390.5" width="130" height="130" stroke="#003F20" stroke-width="4.58333" stroke-miterlimit="8" fill="#E1F5CD"/><rect x="2495.5" y="520.5" width="130" height="130" stroke="#003F20" stroke-width="4.58333" stroke-miterlimit="8" fill="#E1F5CD"/><rect x="2495.5" y="650.5" width="130" height="130" stroke="#003F20" stroke-width="4.58333" stroke-miterlimit="8" fill="#E1F5CD"/><path d="M2454.94 261.5 2454.94 774.104 2448.06 774.104 2448.06 261.5ZM2477.42 734.523 2451.5 781.182 2425.58 734.523C2424.66 732.864 2425.25 730.771 2426.91 729.849 2428.57 728.927 2430.67 729.525 2431.59 731.184L2454.51 772.434 2448.5 772.434 2471.41 731.184C2472.33 729.525 2474.43 728.927 2476.09 729.849 2477.75 730.771 2478.34 732.864 2477.42 734.523Z" fill="#E02D8A"/><path d="M2644 653C2644 581.203 2702.2 523 2774 523 2845.8 523 2904 581.203 2904 653 2904 724.797 2845.8 783 2774 783 2702.2 783 2644 724.797 2644 653Z" stroke="#00B0F0" stroke-width="8.02083" stroke-miterlimit="8" fill="#E3FFFF" fill-rule="evenodd"/><text fill="#00B0F0" font-family="Open Sans,Open Sans_MSFontService,sans-serif" font-weight="400" font-size="74" transform="matrix(1 0 0 1 2722.43 634)">Atr</text><text fill="#00B0F0" font-family="Open Sans,Open Sans_MSFontService,sans-serif" font-weight="400" font-size="74" transform="matrix(1 0 0 1 2753.64 723)">a</text><rect x="2404.5" y="245.5" width="519" height="558" stroke="#00305E" stroke-width="6.875" stroke-miterlimit="8" stroke-dasharray="27.5 20.625" fill="none"/><text fill="#00305E" font-family="Open Sans,Open Sans_MSFontService,sans-serif" font-weight="400" font-size="74" transform="matrix(1 0 0 1 2575.27 224)">Var a</text><path d="M0-2.86458 22.9167-2.86458 22.9167 2.86458 0 2.86458ZM40.1042-2.86458 63.0208-2.86458 63.0208 2.86458 40.1042 2.86458ZM80.2083-2.86458 103.125-2.86458 103.125 2.86458 80.2083 2.86458ZM120.312-2.86458 143.229-2.86458 143.229 2.86458 120.312 2.86458ZM160.417-2.86458 183.333-2.86458 183.333 2.86458 160.417 2.86458ZM200.521-2.86458 223.438-2.86458 223.438 2.86458 200.521 2.86458ZM240.625-2.86458 263.542-2.86458 263.542 2.86458 240.625 2.86458ZM280.729-2.86458 303.646-2.86458 303.646 2.86458 280.729 2.86458ZM320.833-2.86458 343.75-2.86458 343.75 2.86458 320.833 2.86458ZM360.938-2.86458 383.854-2.86458 383.854 2.86458 360.938 2.86458ZM401.042-2.86458 423.958-2.86458 423.958 2.86458 401.042 2.86458ZM441.146-2.86458 464.062-2.86458 464.062 2.86458 441.146 2.86458ZM481.25-2.86458 504.167-2.86458 504.167 2.86458 481.25 2.86458ZM521.354-2.86458 544.271-2.86458 544.271 2.86458 521.354 2.86458ZM561.458-2.86458 584.375-2.86458 584.375 2.86458 561.458 2.86458ZM601.562-2.86458 624.479-2.86458 624.479 2.86458 601.562 2.86458ZM641.667-2.86458 664.583-2.86458 664.583 2.86458 641.667 2.86458ZM681.771-2.86458 704.688-2.86458 704.688 2.86458 681.771 2.86458ZM721.875-2.86458 744.792-2.86458 744.792 2.86458 721.875 2.86458ZM761.979-2.86458 784.896-2.86458 784.896 2.86458 761.979 2.86458ZM802.083-2.86458 825-2.86458 825 2.86458 802.083 2.86458ZM842.188-2.86458 865.104-2.86458 865.104 2.86458 842.188 2.86458ZM882.292-2.86458 905.208-2.86458 905.208 2.86458 882.292 2.86458ZM918.77 6.49031 918.77 29.407 913.041 29.4069 913.041 6.49027ZM918.77 46.5945 918.77 69.5111 913.04 69.5111 913.041 46.5944ZM918.769 86.6986 918.769 109.615 913.04 109.615 913.04 86.6986ZM918.769 126.803 918.769 149.719 913.04 149.719 913.04 126.803ZM918.769 166.907 918.769 189.824 913.039 189.824 913.04 166.907ZM929.656 186.636 915.897 214.131 902.156 186.627Z" fill="#E02D8A" transform="matrix(1.83697e-16 1 1 -1.83697e-16 896 388)"/><path d="M0-2.86458 22.9167-2.86458 22.9167 2.86458 0 2.86458ZM40.1042-2.86458 63.0208-2.86458 63.0208 2.86458 40.1042 2.86458ZM80.2083-2.86458 103.125-2.86458 103.125 2.86458 80.2083 2.86458ZM120.312-2.86458 143.229-2.86458 143.229 2.86458 120.312 2.86458ZM160.417-2.86458 183.333-2.86458 183.333 2.86458 160.417 2.86458ZM200.521-2.86458 223.438-2.86458 223.438 2.86458 200.521 2.86458ZM240.625-2.86458 263.542-2.86458 263.542 2.86458 240.625 2.86458ZM268.02 15.6397 268.139 38.5561 262.41 38.5857 262.291 15.6694ZM268.228 55.7433 268.346 78.6597 262.617 78.6894 262.499 55.773ZM268.435 95.847 268.554 118.763 262.825 118.793 262.706 95.8766ZM278.691 116.689 268.901 145.835 251.458 120.516Z" fill="#E02D8A" transform="matrix(1.83697e-16 1 1 -1.83697e-16 1026 883)"/><path d="M1351 567.135 1373.92 567.135 1373.92 572.865 1351 572.865ZM1391.1 567.135 1414.02 567.135 1414.02 572.865 1391.1 572.865ZM1431.21 567.135 1454.12 567.135 1454.12 572.865 1431.21 572.865ZM1471.31 567.135 1494.23 567.135 1494.23 572.865 1471.31 572.865ZM1511.42 567.135 1534.33 567.135 1534.33 572.865 1511.42 572.865ZM1551.52 567.135 1574.44 567.135 1574.44 572.865 1551.52 572.865ZM1591.62 567.135 1614.54 567.135 1614.54 572.865 1591.62 572.865ZM1631.73 567.135 1654.65 567.135 1654.65 572.865 1631.73 572.865ZM1671.83 567.135 1694.75 567.135 1694.75 572.865 1671.83 572.865ZM1714.32 570.48 1714.32 593.397 1708.59 593.397 1708.59 570.48ZM1714.32 610.584 1714.32 633.501 1708.59 633.501 1708.59 610.584ZM1714.32 650.688 1714.32 673.605 1708.59 673.605 1708.59 650.688ZM1714.32 690.792 1714.32 713.709 1708.59 713.709 1708.59 690.792ZM1714.32 730.897 1714.32 753.813 1708.59 753.813 1708.59 730.897ZM1714.32 771.001 1714.32 793.917 1708.59 793.917 1708.59 771.001ZM1714.32 811.105 1714.32 834.022 1708.59 834.022 1708.59 811.105ZM1714.32 851.209 1714.32 874.126 1708.59 874.126 1708.59 851.209ZM1714.32 891.313 1714.32 914.23 1708.59 914.23 1708.59 891.313ZM1714.32 931.417 1714.32 954.334 1708.59 954.334 1708.59 931.417ZM1714.32 971.522 1714.32 983.72 1711.46 980.856 1722.18 980.856 1722.18 986.585 1708.59 986.585 1708.59 971.522ZM1739.36 980.856 1762.28 980.856 1762.28 986.585 1739.36 986.585ZM1779.47 980.856 1802.38 980.856 1802.38 986.585 1779.47 986.585ZM1819.57 980.856 1842.49 980.856 1842.49 986.585 1819.57 986.585ZM1859.68 980.856 1882.59 980.856 1882.59 986.585 1859.68 986.585ZM1899.78 980.856 1922.7 980.856 1922.7 986.585 1899.78 986.585ZM1939.88 980.856 1962.8 980.856 1962.8 986.585 1939.88 986.585ZM1979.99 980.856 2002.9 980.856 2002.9 986.585 1979.99 986.585ZM2020.09 980.856 2043.01 980.856 2043.01 986.585 2020.09 986.585ZM2044.41 969.97 2071.92 983.72 2044.41 997.47Z" fill="#E02D8A"/><path d="M1351 320.136 1373.92 320.136 1373.92 325.865 1351 325.865ZM1391.1 320.136 1414.02 320.136 1414.02 325.865 1391.1 325.865ZM1431.21 320.136 1454.12 320.136 1454.12 325.865 1431.21 325.865ZM1471.31 320.136 1494.23 320.136 1494.23 325.865 1471.31 325.865ZM1511.42 320.136 1534.33 320.136 1534.33 325.865 1511.42 325.865ZM1551.52 320.136 1574.44 320.136 1574.44 325.865 1551.52 325.865ZM1591.62 320.136 1614.54 320.136 1614.54 325.865 1591.62 325.865ZM1631.73 320.136 1654.65 320.136 1654.65 325.865 1631.73 325.865ZM1671.83 320.136 1694.75 320.136 1694.75 325.865 1671.83 325.865ZM1711.94 320.136 1734.85 320.136 1734.85 325.865 1711.94 325.865ZM1752.04 320.136 1774.96 320.136 1774.96 325.865 1752.04 325.865ZM1792.15 320.136 1815.06 320.136 1815.06 325.865 1792.15 325.865ZM1832.25 320.136 1855.17 320.136 1855.17 325.865 1832.25 325.865ZM1872.35 320.136 1895.27 320.136 1895.27 325.865 1872.35 325.865ZM1912.46 320.136 1935.37 320.136 1935.37 325.865 1912.46 325.865ZM1952.56 320.136 1975.48 320.136 1975.48 325.865 1952.56 325.865ZM1992.67 320.136 2015.58 320.136 2015.58 325.865 1992.67 325.865ZM2032.77 320.136 2055.69 320.136 2055.69 325.865 2032.77 325.865ZM2072.88 320.136 2095.79 320.136 2095.79 325.865 2072.88 325.865ZM2112.98 320.136 2135.9 320.136 2135.9 325.865 2112.98 325.865ZM2153.08 320.136 2176 320.136 2176 325.865 2153.08 325.865ZM2193.19 320.136 2216.1 320.136 2216.1 325.865 2193.19 325.865ZM2233.29 320.136 2256.21 320.136 2256.21 325.865 2233.29 325.865ZM2273.4 320.136 2296.31 320.136 2296.31 325.865 2273.4 325.865ZM2313.5 320.136 2336.42 320.136 2336.42 325.865 2313.5 325.865ZM2353.6 320.136 2376.52 320.136 2376.52 325.865 2353.6 325.865ZM2393.71 320.136 2416.62 320.136 2416.62 325.865 2393.71 325.865ZM2424.12 309.25 2451.62 323 2424.12 336.75Z" fill="#E02D8A"/><path d="M1351 567.135 1373.92 567.135 1373.92 572.865 1351 572.865ZM1391.1 567.135 1414.02 567.135 1414.02 572.865 1391.1 572.865ZM1423.89 580.179 1423.89 603.096 1418.16 603.096 1418.16 580.179ZM1423.89 620.283 1423.89 643.2 1418.16 643.2 1418.16 620.283ZM1423.89 660.387 1423.89 683.304 1418.16 683.304 1418.16 660.387ZM1423.89 700.491 1423.89 723.408 1418.16 723.408 1418.16 700.491ZM1423.89 740.596 1423.89 763.512 1418.16 763.512 1418.16 740.596ZM1423.89 780.7 1423.89 803.616 1418.16 803.616 1418.16 780.7ZM1423.89 820.804 1423.89 843.721 1418.16 843.721 1418.16 820.804ZM1423.89 860.908 1423.89 883.825 1418.16 883.825 1418.16 860.908ZM1423.89 901.012 1423.89 923.929 1418.16 923.929 1418.16 901.012ZM1423.89 941.116 1423.89 964.033 1418.16 964.033 1418.16 941.116ZM1423.89 981.221 1423.89 1004.14 1418.16 1004.14 1418.16 981.221ZM1423.89 1021.32 1423.89 1044.24 1418.16 1044.24 1418.16 1021.32ZM1423.89 1061.43 1423.89 1084.35 1418.16 1084.35 1418.16 1061.43ZM1423.89 1101.53 1423.89 1124.45 1418.16 1124.45 1418.16 1101.53ZM1423.89 1141.64 1423.89 1164.55 1418.16 1164.55 1418.16 1141.64ZM1423.89 1181.74 1423.89 1189.9 1418.16 1189.9 1418.16 1181.74ZM1434.78 1185.32 1421.03 1212.82 1407.28 1185.32Z" fill="#E02D8A"/><path d="M1351 320.136 1373.92 320.136 1373.92 325.865 1351 325.865ZM1391.1 320.136 1414.02 320.136 1414.02 325.865 1391.1 325.865ZM1431.21 320.136 1454.12 320.136 1454.12 325.865 1431.21 325.865ZM1471.31 320.136 1494.23 320.136 1494.23 325.865 1471.31 325.865ZM1511.42 320.136 1534.33 320.136 1534.33 325.865 1511.42 325.865ZM1551.52 320.136 1574.44 320.136 1574.44 325.865 1551.52 325.865ZM1591.62 320.136 1614.54 320.136 1614.54 325.865 1591.62 325.865ZM1631.73 320.136 1654.65 320.136 1654.65 325.865 1631.73 325.865ZM1671.83 320.136 1694.75 320.136 1694.75 325.865 1671.83 325.865ZM1711.94 320.136 1734.85 320.136 1734.85 325.865 1711.94 325.865ZM1752.04 320.136 1774.96 320.136 1774.96 325.865 1752.04 325.865ZM1792.15 320.136 1815.06 320.136 1815.06 325.865 1792.15 325.865ZM1832.25 320.136 1855.17 320.136 1855.17 325.865 1832.25 325.865ZM1872.35 320.136 1895.27 320.136 1895.27 325.865 1872.35 325.865ZM1912.46 320.136 1935.37 320.136 1935.37 325.865 1912.46 325.865ZM1952.56 320.136 1975.48 320.136 1975.48 325.865 1952.56 325.865ZM1992.67 320.136 2015.58 320.136 2015.58 325.865 1992.67 325.865ZM2032.77 320.136 2055.69 320.136 2055.69 325.865 2032.77 325.865ZM2072.88 320.136 2095.79 320.136 2095.79 325.865 2072.88 325.865ZM2112.98 320.136 2135.9 320.136 2135.9 325.865 2112.98 325.865ZM2153.08 320.136 2176 320.136 2176 325.865 2153.08 325.865ZM2179.54 339.515 2179.54 362.432 2173.81 362.433 2173.81 339.516ZM2179.55 379.619 2179.55 402.536 2173.82 402.537 2173.82 379.62ZM2179.55 419.723 2179.56 442.64 2173.83 442.641 2173.83 419.725ZM2179.56 459.828 2179.57 482.744 2173.84 482.745 2173.83 459.829ZM2179.57 499.932 2179.57 522.848 2173.84 522.849 2173.84 499.933ZM2179.58 540.036 2179.58 562.953 2173.85 562.954 2173.85 540.037ZM2179.58 580.14 2179.59 603.057 2173.86 603.058 2173.86 580.141ZM2179.59 620.244 2179.6 643.161 2173.87 643.162 2173.86 620.245ZM2179.6 660.348 2179.6 683.265 2173.88 683.266 2173.87 660.349ZM2179.61 700.453 2179.61 723.369 2173.88 723.37 2173.88 700.454ZM2179.62 740.557 2179.62 763.473 2173.89 763.474 2173.89 740.558ZM2179.62 780.661 2179.63 803.578 2173.9 803.579 2173.89 780.662ZM2179.63 820.765 2179.63 843.682 2173.91 843.683 2173.9 820.766ZM2179.64 860.869 2179.64 883.786 2173.91 883.787 2173.91 860.87ZM2179.65 900.973 2179.65 923.16 2173.92 923.161 2173.92 900.974ZM2190.42 918.24 2177.35 946.07 2162.93 918.918Z" fill="#E02D8A"/><rect x="1065" y="1831" width="1858" height="25.9998" fill="#00305E"/><path d="M2644 1638.5C2644 1566.98 2702.2 1509 2774 1509 2845.8 1509 2904 1566.98 2904 1638.5 2904 1710.02 2845.8 1768 2774 1768 2702.2 1768 2644 1710.02 2644 1638.5Z" stroke="#00B0F0" stroke-width="8.02083" stroke-miterlimit="8" fill="#E3FFFF" fill-rule="evenodd"/><text fill="#00B0F0" font-family="Open Sans,Open Sans_MSFontService,sans-serif" font-weight="400" font-size="74" transform="matrix(1 0 0 1 2722.5 1620)">Atr</text><text fill="#00B0F0" font-family="Open Sans,Open Sans_MSFontService,sans-serif" font-weight="400" font-size="60" transform="matrix(1 0 0 1 2684.69 1695)">Global</text><rect x="2956" y="520" width="26.0002" height="1252" fill="#00B0F0"/><text fill="#00B0F0" font-family="Open Sans,Open Sans_MSFontService,sans-serif" font-weight="700" font-size="74" transform="matrix(-1.83697e-16 -1 1 -1.83697e-16 3058.39 1333)">Attributes</text><text fill="#E02D8A" font-family="Open Sans,Open Sans_MSFontService,sans-serif" font-weight="400" font-size="74" transform="matrix(1 0 0 1 997.935 251)">Dim</text><text fill="#E02D8A" font-family="Open Sans,Open Sans_MSFontService,sans-serif" font-weight="400" font-size="74" transform="matrix(1 0 0 1 1158.92 251)">1</text><text fill="#E02D8A" font-family="Open Sans,Open Sans_MSFontService,sans-serif" font-weight="400" font-size="74" transform="matrix(1 0 0 1 1055.97 498)">Dim</text><text fill="#E02D8A" font-family="Open Sans,Open Sans_MSFontService,sans-serif" font-weight="400" font-size="74" transform="matrix(1 0 0 1 1216.96 498)">2</text><text fill="#E02D8A" font-family="Open Sans,Open Sans_MSFontService,sans-serif" font-weight="400" font-size="74" transform="matrix(1 0 0 1 1055.57 748)">Dim</text><text fill="#E02D8A" font-family="Open Sans,Open Sans_MSFontService,sans-serif" font-weight="400" font-size="74" transform="matrix(1 0 0 1 1216.56 748)">3</text><rect x="782" y="258" width="26.0001" height="623" fill="#E02D8A"/><text fill="#E02D8A" font-family="Open Sans,Open Sans_MSFontService,sans-serif" font-weight="700" font-size="74" transform="matrix(-1.83697e-16 -1 1 -1.83697e-16 761.68 788)">Dimensions</text></g></svg>