<svg width="3852" height="1958" xmlns="http://www.w3.org/2000/svg" xmlns:xlink="http://www.w3.org/1999/xlink" xml:space="preserve" overflow="hidden"><g transform="translate(-92 -147)"><rect x="95.5001" y="260.5" width="780" height="1819" stroke="#007D40" stroke-width="6.875" stroke-miterlimit="8" stroke-dasharray="27.5 20.625" fill="none"/><text fill="#007D40" font-family="Open Sans,Open Sans_MSFontService,sans-serif" font-weight="400" font-size="74" transform="matrix(1 0 0 1 462.194 240)">R</text><rect x="147.5" y="322.5" width="676" height="520" stroke="#007D40" stroke-width="6.875" stroke-miterlimit="8" fill="#E6FFED"/><text fill="#00305E" font-family="Symbol,Symbol_MSFontService,sans-serif" font-weight="400" font-size="73" transform="matrix(1 0 0 1 160.308 387)"></text><text fill="#00305E" font-family="Open Sans,Open Sans_MSFontService,sans-serif" font-weight="400" font-size="73" transform="matrix(1 0 0 1 263.433 387)">numeric</text><text fill="#00305E" font-family="Symbol,Symbol_MSFontService,sans-serif" font-weight="400" font-size="73" transform="matrix(1 0 0 1 160.308 475)"></text><text fill="#00305E" font-family="Open Sans,Open Sans_MSFontService,sans-serif" font-weight="400" font-size="73" transform="matrix(1 0 0 1 263.433 475)">integer</text><text fill="#00305E" font-family="Symbol,Symbol_MSFontService,sans-serif" font-weight="400" font-size="73" transform="matrix(1 0 0 1 160.308 563)"></text><text fill="#00305E" font-family="Open Sans,Open Sans_MSFontService,sans-serif" font-weight="400" font-size="73" transform="matrix(1 0 0 1 263.433 563)">complex</text><text fill="#00305E" font-family="Symbol,Symbol_MSFontService,sans-serif" font-weight="400" font-size="73" transform="matrix(1 0 0 1 160.308 651)"></text><text fill="#00305E" font-family="Open Sans,Open Sans_MSFontService,sans-serif" font-weight="400" font-size="73" transform="matrix(1 0 0 1 263.433 651)">character</text><text fill="#00305E" font-family="Symbol,Symbol_MSFontService,sans-serif" font-weight="400" font-size="73" transform="matrix(1 0 0 1 160.308 739)"></text><text fill="#00305E" font-family="Open Sans,Open Sans_MSFontService,sans-serif" font-weight="400" font-size="73" transform="matrix(1 0 0 1 263.433 739)">logical</text><text fill="#00305E" font-family="Symbol,Symbol_MSFontService,sans-serif" font-weight="400" font-size="73" transform="matrix(1 0 0 1 160.308 827)"></text><text fill="#00305E" font-family="Open Sans,Open Sans_MSFontService,sans-serif" font-weight="400" font-size="73" transform="matrix(1 0 0 1 263.433 827)">raw</text><rect x="147.5" y="1288.5" width="676" height="338" stroke="#007D40" stroke-width="6.875" stroke-miterlimit="8" fill="#E6FFED"/><text fill="#00305E" font-family="Symbol,Symbol_MSFontService,sans-serif" font-weight="400" font-size="73" transform="matrix(1 0 0 1 160.308 1359)"></text><text fill="#00305E" font-family="Open Sans,Open Sans_MSFontService,sans-serif" font-weight="400" font-size="73" transform="matrix(1 0 0 1 263.433 1359)">vector</text><text fill="#00305E" font-family="Symbol,Symbol_MSFontService,sans-serif" font-weight="400" font-size="73" transform="matrix(1 0 0 1 160.308 1447)"></text><text fill="#00305E" font-family="Open Sans,Open Sans_MSFontService,sans-serif" font-weight="400" font-size="73" transform="matrix(1 0 0 1 263.433 1447)">array</text><text fill="#00305E" font-family="Open Sans,Open Sans_MSFontService,sans-serif" font-weight="400" font-size="73" transform="matrix(1 0 0 1 459.943 1447)">(</text><text fill="#00305E" font-family="Open Sans,Open Sans_MSFontService,sans-serif" font-weight="400" font-size="73" transform="matrix(1 0 0 1 481.714 1447)">matrix</text><text fill="#00305E" font-family="Open Sans,Open Sans_MSFontService,sans-serif" font-weight="400" font-size="73" transform="matrix(1 0 0 1 703.433 1447)">)</text><text fill="#00305E" font-family="Symbol,Symbol_MSFontService,sans-serif" font-weight="400" font-size="60" transform="matrix(1 0 0 1 160.308 1522)"></text><text fill="#00305E" font-family="Open Sans,Open Sans_MSFontService,sans-serif" font-weight="400" font-size="60" transform="matrix(1 0 0 1 263.433 1522)">data.frame</text><text fill="#00305E" font-family="Open Sans,Open Sans_MSFontService,sans-serif" font-weight="400" font-size="60" transform="matrix(1 0 0 1 584.839 1522)">(</text><text fill="#00305E" font-family="Open Sans,Open Sans_MSFontService,sans-serif" font-weight="400" font-size="60" transform="matrix(1 0 0 1 602.599 1522)">tibble</text><text fill="#00305E" font-family="Open Sans,Open Sans_MSFontService,sans-serif" font-weight="400" font-size="60" transform="matrix(1 0 0 1 760.151 1522)">)</text><text fill="#00305E" font-family="Symbol,Symbol_MSFontService,sans-serif" font-weight="400" font-size="73" transform="matrix(1 0 0 1 160.308 1607)"></text><text fill="#00305E" font-family="Open Sans,Open Sans_MSFontService,sans-serif" font-weight="400" font-size="73" transform="matrix(1 0 0 1 263.433 1607)">list</text><rect x="147.5" y="876.5" width="676" height="90.0001" stroke="#007D40" stroke-width="6.875" stroke-miterlimit="8" fill="#E6FFED"/><text fill="#00305E" font-family="Symbol,Symbol_MSFontService,sans-serif" font-weight="400" font-size="64" transform="matrix(1 0 0 1 160.308 942)"></text><text fill="#00305E" font-family="Open Sans Light,Open Sans Light_MSFontService,sans-serif" font-weight="300" font-size="64" transform="matrix(1 0 0 1 263.433 942)">class</text><text fill="#00305E" font-family="Open Sans Light,Open Sans Light_MSFontService,sans-serif" font-weight="300" font-size="64" transform="matrix(1 0 0 1 401.506 942)">()</text><rect x="147.5" y="1000.5" width="676" height="221" stroke="#007D40" stroke-width="6.875" stroke-miterlimit="8" fill="#E6FFED"/><text fill="#00305E" font-family="Symbol,Symbol_MSFontService,sans-serif" font-weight="400" font-size="64" transform="matrix(1 0 0 1 160.308 1055)"></text><text fill="#00305E" font-family="Open Sans Light,Open Sans Light_MSFontService,sans-serif" font-weight="300" font-size="64" transform="matrix(1 0 0 1 263.433 1055)">as.TYP</text><text fill="#00305E" font-family="Open Sans Light,Open Sans Light_MSFontService,sans-serif" font-weight="300" font-size="64" transform="matrix(1 0 0 1 447.912 1055)">()</text><text fill="#00305E" font-family="Symbol,Symbol_MSFontService,sans-serif" font-weight="400" font-size="64" transform="matrix(1 0 0 1 308.808 1132)"></text><text fill="#00305E" font-family="Open Sans Light,Open Sans Light_MSFontService,sans-serif" font-weight="300" font-size="64" transform="matrix(1 0 0 1 411.933 1132)">as.numric</text><text fill="#00305E" font-family="Open Sans Light,Open Sans Light_MSFontService,sans-serif" font-weight="300" font-size="64" transform="matrix(1 0 0 1 693.235 1132)">()</text><text fill="#00305E" font-family="Symbol,Symbol_MSFontService,sans-serif" font-weight="400" font-size="64" transform="matrix(1 0 0 1 308.808 1209)"></text><text fill="#00305E" font-family="Open Sans Light,Open Sans Light_MSFontService,sans-serif" font-weight="300" font-size="64" transform="matrix(1 0 0 1 411.933 1209)">as.character</text><text fill="#00305E" font-family="Open Sans Light,Open Sans Light_MSFontService,sans-serif" font-weight="300" font-size="64" transform="matrix(1 0 0 1 764.276 1209)">()</text><rect x="147.5" y="1662.5" width="676" height="91.0001" stroke="#007D40" stroke-width="6.875" stroke-miterlimit="8" fill="#E6FFED"/><text fill="#00305E" font-family="Symbol,Symbol_MSFontService,sans-serif" font-weight="400" font-size="64" transform="matrix(1 0 0 1 160.308 1729)"></text><text fill="#00305E" font-family="Open Sans Light,Open Sans Light_MSFontService,sans-serif" font-weight="300" font-size="64" transform="matrix(1 0 0 1 263.433 1729)">str</text><text fill="#00305E" font-family="Open Sans Light,Open Sans Light_MSFontService,sans-serif" font-weight="300" font-size="64" transform="matrix(1 0 0 1 339.631 1729)">()</text><rect x="147.5" y="1789.5" width="676" height="221" stroke="#007D40" stroke-width="6.875" stroke-miterlimit="8" fill="#E6FFED"/><text fill="#00305E" font-family="Symbol,Symbol_MSFontService,sans-serif" font-weight="400" font-size="64" transform="matrix(1 0 0 1 160.308 1847)"></text><text fill="#00305E" font-family="Open Sans Light,Open Sans Light_MSFontService,sans-serif" font-weight="300" font-size="64" transform="matrix(1 0 0 1 263.433 1847)">as.STR</text><text fill="#00305E" font-family="Open Sans Light,Open Sans Light_MSFontService,sans-serif" font-weight="300" font-size="64" transform="matrix(1 0 0 1 449.631 1847)">()</text><text fill="#00305E" font-family="Symbol,Symbol_MSFontService,sans-serif" font-weight="400" font-size="64" transform="matrix(1 0 0 1 308.808 1924)"></text><text fill="#00305E" font-family="Open Sans Light,Open Sans Light_MSFontService,sans-serif" font-weight="300" font-size="64" transform="matrix(1 0 0 1 411.933 1924)">as.matrix</text><text fill="#00305E" font-family="Open Sans Light,Open Sans Light_MSFontService,sans-serif" font-weight="300" font-size="64" transform="matrix(1 0 0 1 674.328 1924)">()</text><text fill="#00305E" font-family="Symbol,Symbol_MSFontService,sans-serif" font-weight="400" font-size="60" transform="matrix(1 0 0 1 308.808 1997)"></text><text fill="#00305E" font-family="Open Sans Light,Open Sans Light_MSFontService,sans-serif" font-weight="300" font-size="60" transform="matrix(1 0 0 1 411.933 1997)">as.data.frame</text><text fill="#00305E" font-family="Open Sans Light,Open Sans Light_MSFontService,sans-serif" font-weight="300" font-size="60" transform="matrix(1 0 0 1 775.735 1997)">()</text><rect x="1214.5" y="260.5" width="780" height="1819" stroke="#F07D00" stroke-width="6.875" stroke-miterlimit="8" stroke-dasharray="27.5 20.625" fill="none"/><text fill="#F07D00" font-family="Open Sans,Open Sans_MSFontService,sans-serif" font-weight="400" font-size="74" transform="matrix(1 0 0 1 1482.04 240)">Python</text><rect x="1266.5" y="322.5" width="676" height="520" stroke="#F07D00" stroke-width="6.875" stroke-miterlimit="8" fill="#FFF9E0"/><text fill="#00305E" font-family="Symbol,Symbol_MSFontService,sans-serif" font-weight="400" font-size="73" transform="matrix(1 0 0 1 1278.98 387)"></text><text fill="#00305E" font-family="Open Sans,Open Sans_MSFontService,sans-serif" font-weight="400" font-size="73" transform="matrix(1 0 0 1 1382.11 387)">float</text><text fill="#00305E" font-family="Symbol,Symbol_MSFontService,sans-serif" font-weight="400" font-size="73" transform="matrix(1 0 0 1 1278.98 475)"></text><text fill="#00305E" font-family="Open Sans,Open Sans_MSFontService,sans-serif" font-weight="400" font-size="73" transform="matrix(1 0 0 1 1382.11 475)">int</text><text fill="#00305E" font-family="Symbol,Symbol_MSFontService,sans-serif" font-weight="400" font-size="73" transform="matrix(1 0 0 1 1278.98 563)"></text><text fill="#00305E" font-family="Open Sans,Open Sans_MSFontService,sans-serif" font-weight="400" font-size="73" transform="matrix(1 0 0 1 1382.11 563)">complex</text><text fill="#00305E" font-family="Symbol,Symbol_MSFontService,sans-serif" font-weight="400" font-size="73" transform="matrix(1 0 0 1 1278.98 651)"></text><text fill="#00305E" font-family="Open Sans,Open Sans_MSFontService,sans-serif" font-weight="400" font-size="73" transform="matrix(1 0 0 1 1382.11 651)">str</text><text fill="#00305E" font-family="Symbol,Symbol_MSFontService,sans-serif" font-weight="400" font-size="73" transform="matrix(1 0 0 1 1278.98 739)"></text><text fill="#00305E" font-family="Open Sans,Open Sans_MSFontService,sans-serif" font-weight="400" font-size="73" transform="matrix(1 0 0 1 1382.11 739)">bool</text><text fill="#00305E" font-family="Symbol,Symbol_MSFontService,sans-serif" font-weight="400" font-size="73" transform="matrix(1 0 0 1 1278.98 827)"></text><text fill="#00305E" font-family="Open Sans,Open Sans_MSFontService,sans-serif" font-weight="400" font-size="73" transform="matrix(1 0 0 1 1382.11 827)">bytes</text><rect x="1266.5" y="1288.5" width="676" height="338" stroke="#F07D00" stroke-width="6.875" stroke-miterlimit="8" fill="#FFF9E0"/><text fill="#00305E" font-family="Symbol,Symbol_MSFontService,sans-serif" font-weight="400" font-size="73" transform="matrix(1 0 0 1 1278.98 1359)"></text><text fill="#00305E" font-family="Open Sans,Open Sans_MSFontService,sans-serif" font-weight="400" font-size="73" transform="matrix(1 0 0 1 1382.11 1359)">list</text><text fill="#00305E" font-family="Symbol,Symbol_MSFontService,sans-serif" font-weight="400" font-size="73" transform="matrix(1 0 0 1 1278.98 1447)"></text><text fill="#00305E" font-family="Open Sans,Open Sans_MSFontService,sans-serif" font-weight="400" font-size="73" transform="matrix(1 0 0 1 1382.11 1447)">numpy.ndarray</text><text fill="#00305E" font-family="Symbol,Symbol_MSFontService,sans-serif" font-weight="400" font-size="60" transform="matrix(1 0 0 1 1278.98 1522)"></text><text fill="#00305E" font-family="Open Sans,Open Sans_MSFontService,sans-serif" font-weight="400" font-size="60" transform="matrix(1 0 0 1 1382.11 1522)">pandas.DataFrame</text><text fill="#00305E" font-family="Symbol,Symbol_MSFontService,sans-serif" font-weight="400" font-size="73" transform="matrix(1 0 0 1 1278.98 1607)"></text><text fill="#00305E" font-family="Open Sans,Open Sans_MSFontService,sans-serif" font-weight="400" font-size="73" transform="matrix(1 0 0 1 1382.11 1607)">list</text><rect x="1266.5" y="875.5" width="676" height="91.0001" stroke="#F07D00" stroke-width="6.875" stroke-miterlimit="8" fill="#FFF9E0"/><text fill="#00305E" font-family="Symbol,Symbol_MSFontService,sans-serif" font-weight="400" font-size="64" transform="matrix(1 0 0 1 1278.98 942)"></text><text fill="#00305E" font-family="Open Sans Light,Open Sans Light_MSFontService,sans-serif" font-weight="300" font-size="64" transform="matrix(1 0 0 1 1382.11 942)">type()</text><rect x="1266.5" y="999.5" width="676" height="221" stroke="#F07D00" stroke-width="6.875" stroke-miterlimit="8" fill="#FFF9E0"/><text fill="#00305E" font-family="Symbol,Symbol_MSFontService,sans-serif" font-weight="400" font-size="64" transform="matrix(1 0 0 1 1278.98 1054)"></text><text fill="#00305E" font-family="Open Sans Light,Open Sans Light_MSFontService,sans-serif" font-weight="300" font-size="64" transform="matrix(1 0 0 1 1382.11 1054)">TYP()</text><text fill="#00305E" font-family="Symbol,Symbol_MSFontService,sans-serif" font-weight="400" font-size="64" transform="matrix(1 0 0 1 1427.48 1131)"></text><text fill="#00305E" font-family="Open Sans Light,Open Sans Light_MSFontService,sans-serif" font-weight="300" font-size="64" transform="matrix(1 0 0 1 1530.61 1131)">float</text><text fill="#00305E" font-family="Open Sans Light,Open Sans Light_MSFontService,sans-serif" font-weight="300" font-size="64" transform="matrix(1 0 0 1 1657.22 1131)">()</text><text fill="#00305E" font-family="Symbol,Symbol_MSFontService,sans-serif" font-weight="400" font-size="64" transform="matrix(1 0 0 1 1427.48 1208)"></text><text fill="#00305E" font-family="Open Sans Light,Open Sans Light_MSFontService,sans-serif" font-weight="300" font-size="64" transform="matrix(1 0 0 1 1530.61 1208)">str</text><text fill="#00305E" font-family="Open Sans Light,Open Sans Light_MSFontService,sans-serif" font-weight="300" font-size="64" transform="matrix(1 0 0 1 1606.8 1208)">()</text><rect x="1266.5" y="1662.5" width="676" height="91.0001" stroke="#F07D00" stroke-width="6.875" stroke-miterlimit="8" fill="#FFF9E0"/><text fill="#00305E" font-family="Symbol,Symbol_MSFontService,sans-serif" font-weight="400" font-size="64" transform="matrix(1 0 0 1 1278.98 1729)"></text><text fill="#00305E" font-family="Open Sans Light,Open Sans Light_MSFontService,sans-serif" font-weight="300" font-size="64" transform="matrix(1 0 0 1 1382.11 1729)">type()</text><path d="M823.5 582.5 1266.58 582.501" stroke="#00305E" stroke-width="9.16667" stroke-miterlimit="8" stroke-dasharray="36.6667 27.5" fill="none" fill-rule="evenodd"/><path d="M0 0 443.082 0.810203" stroke="#00305E" stroke-width="9.16667" stroke-miterlimit="8" stroke-dasharray="36.6667 27.5" fill="none" fill-rule="evenodd" transform="matrix(1 0 0 -1 823.5 921.31)"/><path d="M0 0 443.082 1.62041" stroke="#00305E" stroke-width="9.16667" stroke-miterlimit="8" stroke-dasharray="36.6667 27.5" fill="none" fill-rule="evenodd" transform="matrix(1 0 0 -1 823.5 1111.12)"/><path d="M823.5 1457.5 1266.58 1457.5" stroke="#00305E" stroke-width="9.16667" stroke-miterlimit="8" stroke-dasharray="36.6667 27.5" fill="none" fill-rule="evenodd"/><path d="M823.5 1708.5 1266.58 1708.5" stroke="#00305E" stroke-width="9.16667" stroke-miterlimit="8" stroke-dasharray="36.6667 27.5" fill="none" fill-rule="evenodd"/><path d="M823.5 1899.5 1262.63 1899.5" stroke="#00305E" stroke-width="9.16667" stroke-miterlimit="8" stroke-dasharray="36.6667 27.5" fill="none" fill-rule="evenodd"/><text fill="#00305E" font-family="Open Sans,Open Sans_MSFontService,sans-serif" font-weight="400" font-size="74" transform="matrix(1 0 0 1 879.956 555)">Data type</text><text fill="#00305E" font-family="Open Sans Light,Open Sans Light_MSFontService,sans-serif" font-weight="300" font-size="74" transform="matrix(1 0 0 1 945.268 889)">Check</text><text fill="#00305E" font-family="Open Sans Light,Open Sans Light_MSFontService,sans-serif" font-weight="300" font-size="74" transform="matrix(1 0 0 1 915.477 1084)">Convert</text><text fill="#00305E" font-family="Open Sans,Open Sans_MSFontService,sans-serif" font-weight="400" font-size="74" transform="matrix(1 0 0 1 965.046 1345)">Data </text><text fill="#00305E" font-family="Open Sans,Open Sans_MSFontService,sans-serif" font-weight="400" font-size="74" transform="matrix(1 0 0 1 887.977 1434)">structure</text><text fill="#00305E" font-family="Open Sans Light,Open Sans Light_MSFontService,sans-serif" font-weight="300" font-size="74" transform="matrix(1 0 0 1 945.268 1686)">Check</text><text fill="#00305E" font-family="Open Sans Light,Open Sans Light_MSFontService,sans-serif" font-weight="300" font-size="74" transform="matrix(1 0 0 1 915.477 1872)">Convert</text><path d="M0 0 439.203 0.648163" stroke="#00305E" stroke-width="9.16667" stroke-miterlimit="8" stroke-dasharray="36.6667 27.5" fill="none" fill-rule="evenodd" transform="matrix(1 0 0 -1 2773.5 755.148)"/><path d="M0 0 439.203 0.810203" stroke="#00305E" stroke-width="9.16667" stroke-miterlimit="8" stroke-dasharray="36.6667 27.5" fill="none" fill-rule="evenodd" transform="matrix(1 0 0 -1 2773.5 310.31)"/><path d="M0 0 439.203 0.486122" stroke="#00305E" stroke-width="9.16667" stroke-miterlimit="8" stroke-dasharray="36.6667 27.5" fill="none" fill-rule="evenodd" transform="matrix(1 0 0 -1 2773.5 1199.99)"/><path d="M0 0 439.203 0.324081" stroke="#00305E" stroke-width="9.16667" stroke-miterlimit="8" stroke-dasharray="36.6667 27.5" fill="none" fill-rule="evenodd" transform="matrix(1 0 0 -1 2773.5 1417.82)"/><path d="M0 0 439.203 0.162041" stroke="#00305E" stroke-width="9.16667" stroke-miterlimit="8" stroke-dasharray="36.6667 27.5" fill="none" fill-rule="evenodd" transform="matrix(1 0 0 -1 2773.5 1707.66)"/><text fill="#00305E" font-family="Open Sans,Open Sans_MSFontService,sans-serif" font-weight="400" font-size="74" transform="matrix(1 0 0 1 2846.58 734)">Indexing</text><text fill="#00305E" font-family="Open Sans,Open Sans_MSFontService,sans-serif" font-weight="400" font-size="74" transform="matrix(1 0 0 1 2912.19 290)">Start</text><text fill="#00305E" font-family="Open Sans,Open Sans_MSFontService,sans-serif" font-weight="400" font-size="74" transform="matrix(1 0 0 1 2898.72 379)">Index</text><text fill="#00305E" font-family="Open Sans,Open Sans_MSFontService,sans-serif" font-weight="400" font-size="74" transform="matrix(1 0 0 1 2863.77 1177)">Negativ</text><text fill="#00305E" font-family="Open Sans,Open Sans_MSFontService,sans-serif" font-weight="400" font-size="74" transform="matrix(1 0 0 1 2898.72 1266)">Index</text><text fill="#00305E" font-family="Open Sans,Open Sans_MSFontService,sans-serif" font-weight="400" font-size="74" transform="matrix(1 0 0 1 2880.39 1396)">Create</text><text fill="#00305E" font-family="Open Sans,Open Sans_MSFontService,sans-serif" font-weight="400" font-size="74" transform="matrix(1 0 0 1 2925.93 1686)">Add</text><rect x="2046.5" y="260.5" width="779" height="1819" stroke="#007D40" stroke-width="6.875" stroke-miterlimit="8" stroke-dasharray="27.5 20.625" fill="none"/><text fill="#007D40" font-family="Open Sans,Open Sans_MSFontService,sans-serif" font-weight="400" font-size="74" transform="matrix(1 0 0 1 2412.36 240)">R</text><rect x="2097.5" y="378.5" width="676" height="753" stroke="#007D40" stroke-width="6.875" stroke-miterlimit="8" fill="#E6FFED"/><text fill="#00305E" font-family="Open Sans,Open Sans_MSFontService,sans-serif" font-weight="400" font-size="64" transform="matrix(1 0 0 1 2110.48 430)">1D</text><text fill="#00305E" font-family="Symbol,Symbol_MSFontService,sans-serif" font-weight="400" font-size="64" transform="matrix(1 0 0 1 2110.48 507)"></text><text fill="#00305E" font-family="Open Sans Light,Open Sans Light_MSFontService,sans-serif" font-weight="300" font-size="64" transform="matrix(1 0 0 1 2213.6 507)">v[1]</text><text fill="#00305E" font-family="Symbol,Symbol_MSFontService,sans-serif" font-weight="400" font-size="64" transform="matrix(1 0 0 1 2110.48 584)"></text><text fill="#00305E" font-family="Open Sans Light,Open Sans Light_MSFontService,sans-serif" font-weight="300" font-size="64" transform="matrix(1 0 0 1 2213.6 584)">v["</text><text fill="#00305E" font-family="Open Sans Light,Open Sans Light_MSFontService,sans-serif" font-weight="300" font-size="64" transform="matrix(1 0 0 1 2286.36 584)">str_Idx</text><text fill="#00305E" font-family="Open Sans Light,Open Sans Light_MSFontService,sans-serif" font-weight="300" font-size="64" transform="matrix(1 0 0 1 2475.42 584)">"]</text><text fill="#00305E" font-family="Symbol,Symbol_MSFontService,sans-serif" font-weight="400" font-size="64" transform="matrix(1 0 0 1 2110.48 661)"></text><text fill="#00305E" font-family="Open Sans Light,Open Sans Light_MSFontService,sans-serif" font-weight="300" font-size="64" transform="matrix(1 0 0 1 2213.6 661)">v[c(1, 3)] </text><text fill="#00305E" font-family="Open Sans,Open Sans_MSFontService,sans-serif" font-weight="400" font-size="64" transform="matrix(1 0 0 1 2110.48 738)">Multi</text><text fill="#00305E" font-family="Open Sans,Open Sans_MSFontService,sans-serif" font-weight="400" font-size="64" transform="matrix(1 0 0 1 2262.87 738)">-</text><text fill="#00305E" font-family="Open Sans,Open Sans_MSFontService,sans-serif" font-weight="400" font-size="64" transform="matrix(1 0 0 1 2283.5 738)">D</text><text fill="#00305E" font-family="Symbol,Symbol_MSFontService,sans-serif" font-weight="400" font-size="64" transform="matrix(1 0 0 1 2110.48 815)"></text><text fill="#00305E" font-family="Open Sans Light,Open Sans Light_MSFontService,sans-serif" font-weight="300" font-size="64" transform="matrix(1 0 0 1 2213.6 815)">a[1, 2]</text><text fill="#00305E" font-family="Symbol,Symbol_MSFontService,sans-serif" font-weight="400" font-size="64" transform="matrix(1 0 0 1 2110.48 892)"></text><text fill="#00305E" font-family="Open Sans Light,Open Sans Light_MSFontService,sans-serif" font-weight="300" font-size="64" transform="matrix(1 0 0 1 2213.6 892)">a[1, </text><text fill="#00305E" font-family="Open Sans Light,Open Sans Light_MSFontService,sans-serif" font-weight="300" font-size="64" transform="matrix(1 0 0 1 2351.67 892)">" </text><text fill="#00305E" font-family="Open Sans Light,Open Sans Light_MSFontService,sans-serif" font-weight="300" font-size="64" transform="matrix(1 0 0 1 2391.21 892)">str_Idx</text><text fill="#00305E" font-family="Open Sans Light,Open Sans Light_MSFontService,sans-serif" font-weight="300" font-size="64" transform="matrix(1 0 0 1 2580.27 892)">"]</text><text fill="#00305E" font-family="Open Sans,Open Sans_MSFontService,sans-serif" font-weight="400" font-size="64" transform="matrix(1 0 0 1 2110.48 969)">Elemen</text><text fill="#00305E" font-family="Open Sans,Open Sans_MSFontService,sans-serif" font-weight="400" font-size="64" transform="matrix(1 0 0 1 2333.34 969)">t</text><text fill="#00305E" font-family="Symbol,Symbol_MSFontService,sans-serif" font-weight="400" font-size="64" transform="matrix(1 0 0 1 2110.48 1046)"></text><text fill="#00305E" font-family="Open Sans Light,Open Sans Light_MSFontService,sans-serif" font-weight="300" font-size="64" transform="matrix(1 0 0 1 2213.6 1046)">l[[" </text><text fill="#00305E" font-family="Open Sans Light,Open Sans Light_MSFontService,sans-serif" font-weight="300" font-size="64" transform="matrix(1 0 0 1 2308.71 1046)">str_Idx</text><text fill="#00305E" font-family="Open Sans Light,Open Sans Light_MSFontService,sans-serif" font-weight="300" font-size="64" transform="matrix(1 0 0 1 2497.77 1046)">"]]</text><text fill="#00305E" font-family="Symbol,Symbol_MSFontService,sans-serif" font-weight="400" font-size="64" transform="matrix(1 0 0 1 2110.48 1123)"></text><text fill="#00305E" font-family="Open Sans Light,Open Sans Light_MSFontService,sans-serif" font-weight="300" font-size="64" transform="matrix(1 0 0 1 2213.6 1123)">l$str_Idx</text><rect x="2097.5" y="1268.5" width="676" height="299" stroke="#007D40" stroke-width="6.875" stroke-miterlimit="8" fill="#E6FFED"/><text fill="#00305E" font-family="Symbol,Symbol_MSFontService,sans-serif" font-weight="400" font-size="64" transform="matrix(1 0 0 1 2110.48 1324)"></text><text fill="#00305E" font-family="Open Sans Light,Open Sans Light_MSFontService,sans-serif" font-weight="300" font-size="64" transform="matrix(1 0 0 1 2213.6 1324)">c(1, 2)</text><text fill="#00305E" font-family="Symbol,Symbol_MSFontService,sans-serif" font-weight="400" font-size="64" transform="matrix(1 0 0 1 2110.48 1401)"></text><text fill="#00305E" font-family="Open Sans Light,Open Sans Light_MSFontService,sans-serif" font-weight="300" font-size="64" transform="matrix(1 0 0 1 2213.6 1401)">list</text><text fill="#00305E" font-family="Open Sans Light,Open Sans Light_MSFontService,sans-serif" font-weight="300" font-size="64" transform="matrix(1 0 0 1 2293.24 1401)">(1, "a</text><text fill="#00305E" font-family="Open Sans Light,Open Sans Light_MSFontService,sans-serif" font-weight="300" font-size="64" transform="matrix(1 0 0 1 2434.17 1401)">")</text><text fill="#00305E" font-family="Symbol,Symbol_MSFontService,sans-serif" font-weight="400" font-size="64" transform="matrix(1 0 0 1 2110.48 1478)"></text><text fill="#00305E" font-family="Open Sans Light,Open Sans Light_MSFontService,sans-serif" font-weight="300" font-size="64" transform="matrix(1 0 0 1 2213.6 1478)">array</text><text fill="#00305E" font-family="Open Sans Light,Open Sans Light_MSFontService,sans-serif" font-weight="300" font-size="64" transform="matrix(1 0 0 1 2360.84 1478)">(), </text><text fill="#00305E" font-family="Open Sans Light,Open Sans Light_MSFontService,sans-serif" font-weight="300" font-size="64" transform="matrix(1 0 0 1 2425.58 1478)">matrix</text><text fill="#00305E" font-family="Open Sans Light,Open Sans Light_MSFontService,sans-serif" font-weight="300" font-size="64" transform="matrix(1 0 0 1 2608.91 1478)">()</text><text fill="#00305E" font-family="Symbol,Symbol_MSFontService,sans-serif" font-weight="400" font-size="64" transform="matrix(1 0 0 1 2110.48 1555)"></text><text fill="#00305E" font-family="Open Sans Light,Open Sans Light_MSFontService,sans-serif" font-weight="300" font-size="64" transform="matrix(1 0 0 1 2213.6 1555)">data.frame</text><text fill="#00305E" font-family="Open Sans Light,Open Sans Light_MSFontService,sans-serif" font-weight="300" font-size="64" transform="matrix(1 0 0 1 2526.99 1555)">(</text><text fill="#00305E" font-family="Open Sans Light,Open Sans Light_MSFontService,sans-serif" font-weight="300" font-size="64" transform="matrix(1 0 0 1 2544.17 1555)">)</text><rect x="2097.5" y="277.5" width="676" height="65" stroke="#007D40" stroke-width="6.875" stroke-miterlimit="8" fill="#E6FFED"/><text fill="#00305E" font-family="Symbol,Symbol_MSFontService,sans-serif" font-weight="400" font-size="64" transform="matrix(1 0 0 1 2110.48 331)"></text><text fill="#00305E" font-family="Open Sans Light,Open Sans Light_MSFontService,sans-serif" font-weight="300" font-size="64" transform="matrix(1 0 0 1 2213.6 331)">1</text><rect x="2097.5" y="1167.5" width="676" height="65" stroke="#007D40" stroke-width="6.875" stroke-miterlimit="8" fill="#E6FFED"/><text fill="#00305E" font-family="Symbol,Symbol_MSFontService,sans-serif" font-weight="400" font-size="64" transform="matrix(1 0 0 1 2110.48 1221)"></text><text fill="#00305E" font-family="Open Sans,Open Sans_MSFontService,sans-serif" font-weight="400" font-size="64" transform="matrix(1 0 0 1 2213.6 1221)">Exclude</text><text fill="#00305E" font-family="Open Sans,Open Sans_MSFontService,sans-serif" font-weight="400" font-size="64" transform="matrix(1 0 0 1 2461.67 1221)">Index</text><rect x="2097.5" y="1603.5" width="676" height="208" stroke="#007D40" stroke-width="6.875" stroke-miterlimit="8" fill="#E6FFED"/><text fill="#00305E" font-family="Symbol,Symbol_MSFontService,sans-serif" font-weight="400" font-size="64" transform="matrix(1 0 0 1 2110.48 1652)"></text><text fill="#00305E" font-family="Open Sans Light,Open Sans Light_MSFontService,sans-serif" font-weight="300" font-size="64" transform="matrix(1 0 0 1 2213.6 1652)">c()</text><text fill="#00305E" font-family="Symbol,Symbol_MSFontService,sans-serif" font-weight="400" font-size="64" transform="matrix(1 0 0 1 2110.48 1729)"></text><text fill="#00305E" font-family="Open Sans Light,Open Sans Light_MSFontService,sans-serif" font-weight="300" font-size="64" transform="matrix(1 0 0 1 2213.6 1729)">append</text><text fill="#00305E" font-family="Open Sans Light,Open Sans Light_MSFontService,sans-serif" font-weight="300" font-size="64" transform="matrix(1 0 0 1 2435.89 1729)">()</text><text fill="#00305E" font-family="Symbol,Symbol_MSFontService,sans-serif" font-weight="400" font-size="64" transform="matrix(1 0 0 1 2110.48 1806)"></text><text fill="#00305E" font-family="Open Sans Light,Open Sans Light_MSFontService,sans-serif" font-weight="300" font-size="64" transform="matrix(1 0 0 1 2213.6 1806)">c(</text><text fill="#00305E" font-family="Open Sans Light,Open Sans Light_MSFontService,sans-serif" font-weight="300" font-size="64" transform="matrix(1 0 0 1 2261.15 1806)">)</text><rect x="2097.5" y="1847.5" width="676" height="208" stroke="#007D40" stroke-width="6.875" stroke-miterlimit="8" fill="#E6FFED"/><text fill="#00305E" font-family="Symbol,Symbol_MSFontService,sans-serif" font-weight="400" font-size="64" transform="matrix(1 0 0 1 2110.48 1895)"></text><text fill="#00305E" font-family="Open Sans Light,Open Sans Light_MSFontService,sans-serif" font-weight="300" font-size="64" transform="matrix(1 0 0 1 2213.6 1895)">v[</text><text fill="#00305E" font-family="Open Sans Light,Open Sans Light_MSFontService,sans-serif" font-weight="300" font-size="64" transform="matrix(1 0 0 1 2263.44 1895)">-</text><text fill="#00305E" font-family="Open Sans Light,Open Sans Light_MSFontService,sans-serif" font-weight="300" font-size="64" transform="matrix(1 0 0 1 2284.07 1895)">1]</text><text fill="#00305E" font-family="Symbol,Symbol_MSFontService,sans-serif" font-weight="400" font-size="64" transform="matrix(1 0 0 1 2110.48 1972)"></text><text fill="#00305E" font-family="Open Sans Light,Open Sans Light_MSFontService,sans-serif" font-weight="300" font-size="64" transform="matrix(1 0 0 1 2213.6 1972)">&lt;</text><text fill="#00305E" font-family="Open Sans Light,Open Sans Light_MSFontService,sans-serif" font-weight="300" font-size="64" transform="matrix(1 0 0 1 2250.27 1972)">-</text><text fill="#00305E" font-family="Open Sans Light,Open Sans Light_MSFontService,sans-serif" font-weight="300" font-size="64" transform="matrix(1 0 0 1 2287.51 1972)">NUL</text><text fill="#00305E" font-family="Open Sans Light,Open Sans Light_MSFontService,sans-serif" font-weight="300" font-size="64" transform="matrix(1 0 0 1 2412.98 1972)">L</text><rect x="3160.5" y="260.5" width="780" height="1819" stroke="#F07D00" stroke-width="6.875" stroke-miterlimit="8" stroke-dasharray="27.5 20.625" fill="none"/><text fill="#F07D00" font-family="Open Sans,Open Sans_MSFontService,sans-serif" font-weight="400" font-size="74" transform="matrix(1 0 0 1 3428.33 240)">Python</text><rect x="3212.5" y="377.5" width="676" height="754" stroke="#F07D00" stroke-width="6.875" stroke-miterlimit="8" fill="#FFF9E0"/><text fill="#00305E" font-family="Open Sans,Open Sans_MSFontService,sans-serif" font-weight="400" font-size="64" transform="matrix(1 0 0 1 3225.27 429)">1D</text><text fill="#00305E" font-family="Symbol,Symbol_MSFontService,sans-serif" font-weight="400" font-size="64" transform="matrix(1 0 0 1 3225.27 506)"></text><text fill="#00305E" font-family="Open Sans Light,Open Sans Light_MSFontService,sans-serif" font-weight="300" font-size="64" transform="matrix(1 0 0 1 3328.39 506)">v[0]</text><text fill="#00305E" font-family="Symbol,Symbol_MSFontService,sans-serif" font-weight="400" font-size="64" transform="matrix(1 0 0 1 3225.27 583)"></text><text fill="#00305E" font-family="Open Sans Light,Open Sans Light_MSFontService,sans-serif" font-weight="300" font-size="64" transform="matrix(1 0 0 1 3328.39 583)">v["</text><text fill="#00305E" font-family="Open Sans Light,Open Sans Light_MSFontService,sans-serif" font-weight="300" font-size="64" transform="matrix(1 0 0 1 3401.15 583)">str_Idx</text><text fill="#00305E" font-family="Open Sans Light,Open Sans Light_MSFontService,sans-serif" font-weight="300" font-size="64" transform="matrix(1 0 0 1 3590.22 583)">"]</text><text fill="#00305E" font-family="Symbol,Symbol_MSFontService,sans-serif" font-weight="400" font-size="64" transform="matrix(1 0 0 1 3225.27 660)"></text><text fill="#00305E" font-family="Open Sans Light,Open Sans Light_MSFontService,sans-serif" font-weight="300" font-size="64" transform="matrix(1 0 0 1 3328.39 660)">v[</text><text fill="#00305E" font-family="Open Sans Light,Open Sans Light_MSFontService,sans-serif" font-weight="300" font-size="60" transform="matrix(1 0 0 1 3378.24 660)">numpy.array</text><text fill="#00305E" font-family="Open Sans Light,Open Sans Light_MSFontService,sans-serif" font-weight="300" font-size="64" transform="matrix(1 0 0 1 3714.54 660)">(0, 2)] </text><text fill="#00305E" font-family="Open Sans,Open Sans_MSFontService,sans-serif" font-weight="400" font-size="64" transform="matrix(1 0 0 1 3225.27 737)">Multi</text><text fill="#00305E" font-family="Open Sans,Open Sans_MSFontService,sans-serif" font-weight="400" font-size="64" transform="matrix(1 0 0 1 3377.67 737)">-</text><text fill="#00305E" font-family="Open Sans,Open Sans_MSFontService,sans-serif" font-weight="400" font-size="64" transform="matrix(1 0 0 1 3398.29 737)">D</text><text fill="#00305E" font-family="Symbol,Symbol_MSFontService,sans-serif" font-weight="400" font-size="64" transform="matrix(1 0 0 1 3225.27 814)"></text><text fill="#00305E" font-family="Open Sans Light,Open Sans Light_MSFontService,sans-serif" font-weight="300" font-size="64" transform="matrix(1 0 0 1 3328.39 814)">a.iloc</text><text fill="#00305E" font-family="Open Sans Light,Open Sans Light_MSFontService,sans-serif" font-weight="300" font-size="64" transform="matrix(1 0 0 1 3474.49 814)">[0, 1]</text><text fill="#00305E" font-family="Symbol,Symbol_MSFontService,sans-serif" font-weight="400" font-size="64" transform="matrix(1 0 0 1 3225.27 891)"></text><text fill="#00305E" font-family="Open Sans Light,Open Sans Light_MSFontService,sans-serif" font-weight="300" font-size="64" transform="matrix(1 0 0 1 3328.39 891)">a.loc</text><text fill="#00305E" font-family="Open Sans Light,Open Sans Light_MSFontService,sans-serif" font-weight="300" font-size="64" transform="matrix(1 0 0 1 3460.17 891)">[0,  " </text><text fill="#00305E" font-family="Open Sans Light,Open Sans Light_MSFontService,sans-serif" font-weight="300" font-size="64" transform="matrix(1 0 0 1 3603.97 891)">str_Idx</text><text fill="#00305E" font-family="Open Sans Light,Open Sans Light_MSFontService,sans-serif" font-weight="300" font-size="64" transform="matrix(1 0 0 1 3793.03 891)">"]</text><text fill="#00305E" font-family="Open Sans,Open Sans_MSFontService,sans-serif" font-weight="400" font-size="64" transform="matrix(1 0 0 1 3225.27 968)">Element</text><text fill="#00305E" font-family="Symbol,Symbol_MSFontService,sans-serif" font-weight="400" font-size="64" transform="matrix(1 0 0 1 3225.27 1045)"></text><text fill="#00305E" font-family="Open Sans Light,Open Sans Light_MSFontService,sans-serif" font-weight="300" font-size="64" transform="matrix(1 0 0 1 3328.39 1045)">l[" </text><text fill="#00305E" font-family="Open Sans Light,Open Sans Light_MSFontService,sans-serif" font-weight="300" font-size="64" transform="matrix(1 0 0 1 3402.87 1045)">str_Idx</text><text fill="#00305E" font-family="Open Sans Light,Open Sans Light_MSFontService,sans-serif" font-weight="300" font-size="64" transform="matrix(1 0 0 1 3591.94 1045)">"]</text><text fill="#00305E" font-family="Symbol,Symbol_MSFontService,sans-serif" font-weight="400" font-size="64" transform="matrix(1 0 0 1 3225.27 1122)"></text><text fill="#00305E" font-family="Open Sans Light,Open Sans Light_MSFontService,sans-serif" font-weight="300" font-size="64" transform="matrix(1 0 0 1 3328.39 1122)">l.str_Idx</text><rect x="3212.5" y="1268.5" width="676" height="299" stroke="#F07D00" stroke-width="6.875" stroke-miterlimit="8" fill="#FFF9E0"/><text fill="#00305E" font-family="Symbol,Symbol_MSFontService,sans-serif" font-weight="400" font-size="64" transform="matrix(1 0 0 1 3225.27 1326)"></text><text fill="#00305E" font-family="Open Sans Light,Open Sans Light_MSFontService,sans-serif" font-weight="300" font-size="64" transform="matrix(1 0 0 1 3328.39 1326)">[1, 2]</text><text fill="#00305E" font-family="Symbol,Symbol_MSFontService,sans-serif" font-weight="400" font-size="64" transform="matrix(1 0 0 1 3225.27 1403)"></text><text fill="#00305E" font-family="Open Sans Light,Open Sans Light_MSFontService,sans-serif" font-weight="300" font-size="64" transform="matrix(1 0 0 1 3328.39 1403)">[1, "a</text><text fill="#00305E" font-family="Open Sans Light,Open Sans Light_MSFontService,sans-serif" font-weight="300" font-size="64" transform="matrix(1 0 0 1 3472.77 1403)">"]</text><text fill="#00305E" font-family="Symbol,Symbol_MSFontService,sans-serif" font-weight="400" font-size="64" transform="matrix(1 0 0 1 3225.27 1480)"></text><text fill="#00305E" font-family="Open Sans Light,Open Sans Light_MSFontService,sans-serif" font-weight="300" font-size="64" transform="matrix(1 0 0 1 3328.39 1480)">numpy.array</text><text fill="#00305E" font-family="Open Sans Light,Open Sans Light_MSFontService,sans-serif" font-weight="300" font-size="64" transform="matrix(1 0 0 1 3691.05 1480)">()</text><text fill="#00305E" font-family="Symbol,Symbol_MSFontService,sans-serif" font-weight="400" font-size="60" transform="matrix(1 0 0 1 3225.27 1553)"></text><text fill="#00305E" font-family="Open Sans Light,Open Sans Light_MSFontService,sans-serif" font-weight="300" font-size="60" transform="matrix(1 0 0 1 3328.39 1553)">pandas.DataFrame</text><text fill="#00305E" font-family="Open Sans Light,Open Sans Light_MSFontService,sans-serif" font-weight="300" font-size="60" transform="matrix(1 0 0 1 3833.71 1553)">(</text><text fill="#00305E" font-family="Open Sans Light,Open Sans Light_MSFontService,sans-serif" font-weight="300" font-size="60" transform="matrix(1 0 0 1 3849.75 1553)">)</text><rect x="3212.5" y="276.5" width="676" height="65" stroke="#F07D00" stroke-width="6.875" stroke-miterlimit="8" fill="#FFF9E0"/><text fill="#00305E" font-family="Symbol,Symbol_MSFontService,sans-serif" font-weight="400" font-size="64" transform="matrix(1 0 0 1 3225.27 330)"></text><text fill="#00305E" font-family="Open Sans Light,Open Sans Light_MSFontService,sans-serif" font-weight="300" font-size="64" transform="matrix(1 0 0 1 3328.39 330)">0</text><rect x="3212.5" y="1167.5" width="676" height="65" stroke="#F07D00" stroke-width="6.875" stroke-miterlimit="8" fill="#FFF9E0"/><text fill="#00305E" font-family="Symbol,Symbol_MSFontService,sans-serif" font-weight="400" font-size="64" transform="matrix(1 0 0 1 3225.27 1221)"></text><text fill="#00305E" font-family="Open Sans,Open Sans_MSFontService,sans-serif" font-weight="400" font-size="64" transform="matrix(1 0 0 1 3328.39 1221)">Index from end</text><rect x="3212.5" y="1603.5" width="676" height="208" stroke="#F07D00" stroke-width="6.875" stroke-miterlimit="8" fill="#FFF9E0"/><text fill="#00305E" font-family="Symbol,Symbol_MSFontService,sans-serif" font-weight="400" font-size="64" transform="matrix(1 0 0 1 3225.27 1651)"></text><text fill="#00305E" font-family="Open Sans Light,Open Sans Light_MSFontService,sans-serif" font-weight="300" font-size="64" transform="matrix(1 0 0 1 3328.39 1651)">append</text><text fill="#00305E" font-family="Open Sans Light,Open Sans Light_MSFontService,sans-serif" font-weight="300" font-size="64" transform="matrix(1 0 0 1 3550.69 1651)">()</text><text fill="#00305E" font-family="Symbol,Symbol_MSFontService,sans-serif" font-weight="400" font-size="64" transform="matrix(1 0 0 1 3225.27 1728)"></text><text fill="#00305E" font-family="Open Sans Light,Open Sans Light_MSFontService,sans-serif" font-weight="300" font-size="64" transform="matrix(1 0 0 1 3328.39 1728)">insert</text><text fill="#00305E" font-family="Open Sans Light,Open Sans Light_MSFontService,sans-serif" font-weight="300" font-size="64" transform="matrix(1 0 0 1 3492.25 1728)">()</text><text fill="#00305E" font-family="Symbol,Symbol_MSFontService,sans-serif" font-weight="400" font-size="64" transform="matrix(1 0 0 1 3225.27 1805)"></text><text fill="#00305E" font-family="Open Sans Light,Open Sans Light_MSFontService,sans-serif" font-weight="300" font-size="64" transform="matrix(1 0 0 1 3328.39 1805)">`+` </text><text fill="#00305E" font-family="Open Sans Light,Open Sans Light_MSFontService,sans-serif" font-weight="300" font-size="64" transform="matrix(1 0 0 1 3414.9 1805)">extend</text><text fill="#00305E" font-family="Open Sans Light,Open Sans Light_MSFontService,sans-serif" font-weight="300" font-size="64" transform="matrix(1 0 0 1 3615.43 1805)">()</text><rect x="3212.5" y="1847.5" width="676" height="208" stroke="#F07D00" stroke-width="6.875" stroke-miterlimit="8" fill="#FFF9E0"/><text fill="#00305E" font-family="Symbol,Symbol_MSFontService,sans-serif" font-weight="400" font-size="64" transform="matrix(1 0 0 1 3225.27 1895)"></text><text fill="#00305E" font-family="Open Sans Light,Open Sans Light_MSFontService,sans-serif" font-weight="300" font-size="64" transform="matrix(1 0 0 1 3328.39 1895)">pandas.drop</text><text fill="#00305E" font-family="Open Sans Light,Open Sans Light_MSFontService,sans-serif" font-weight="300" font-size="64" transform="matrix(1 0 0 1 3695.63 1895)">()</text><text fill="#00305E" font-family="Symbol,Symbol_MSFontService,sans-serif" font-weight="400" font-size="64" transform="matrix(1 0 0 1 3225.27 1972)"></text><text fill="#00305E" font-family="Open Sans Light,Open Sans Light_MSFontService,sans-serif" font-weight="300" font-size="64" transform="matrix(1 0 0 1 3328.39 1972)">pop</text><text fill="#00305E" font-family="Open Sans Light,Open Sans Light_MSFontService,sans-serif" font-weight="300" font-size="64" transform="matrix(1 0 0 1 3442.98 1972)">(), del</text><text fill="#00305E" font-family="Symbol,Symbol_MSFontService,sans-serif" font-weight="400" font-size="64" transform="matrix(1 0 0 1 3225.27 2049)"></text><text fill="#00305E" font-family="Open Sans Light,Open Sans Light_MSFontService,sans-serif" font-weight="300" font-size="64" transform="matrix(1 0 0 1 3328.39 2049)">remove</text><text fill="#00305E" font-family="Open Sans Light,Open Sans Light_MSFontService,sans-serif" font-weight="300" font-size="64" transform="matrix(1 0 0 1 3548.39 2049)">()</text><path d="M2773.5 1951.5 3212.7 1951.5" stroke="#00305E" stroke-width="9.16667" stroke-miterlimit="8" stroke-dasharray="36.6667 27.5" fill="none" fill-rule="evenodd"/><text fill="#00305E" font-family="Open Sans,Open Sans_MSFontService,sans-serif" font-weight="400" font-size="74" transform="matrix(1 0 0 1 2882.39 1934)">Delete</text></g></svg>