<svg width="2509" height="1444" xmlns="http://www.w3.org/2000/svg" xmlns:xlink="http://www.w3.org/1999/xlink" xml:space="preserve" overflow="hidden"><g transform="translate(-1776 -327)"><rect x="1807" y="432" width="1638" height="25.9998" fill="#00305E"/><text fill="#00305E" font-family="Open Sans,Open Sans_MSFontService,sans-serif" font-weight="400" font-size="74" transform="matrix(1 0 0 1 2446.6 420)">Geometry</text><rect x="3631" y="571" width="130" height="130" stroke="#FF0000" stroke-width="8.02083" stroke-miterlimit="8" fill="#E1F5CD"/><rect x="3631" y="701" width="130" height="129" stroke="#93107E" stroke-width="8.02083" stroke-miterlimit="8" fill="#E1F5CD"/><rect x="3631" y="830" width="130" height="130" stroke="#F07D00" stroke-width="8.02083" stroke-miterlimit="8" fill="#E1F5CD"/><rect x="3631" y="960" width="130" height="130" stroke="#00B0F0" stroke-width="8.02083" stroke-miterlimit="8" fill="#E1F5CD"/><rect x="3761" y="571" width="130" height="130" stroke="#FF0000" stroke-width="8.02083" stroke-miterlimit="8" fill="#8DDDFF"/><rect x="3761" y="701" width="130" height="129" stroke="#93107E" stroke-width="8.02083" stroke-miterlimit="8" fill="#8DDDFF"/><rect x="3761" y="830" width="130" height="130" stroke="#F07D00" stroke-width="8.02083" stroke-miterlimit="8" fill="#8DDDFF"/><rect x="3761" y="960" width="130" height="130" stroke="#00B0F0" stroke-width="8.02083" stroke-miterlimit="8" fill="#8DDDFF"/><rect x="3891" y="571" width="130" height="130" stroke="#FF0000" stroke-width="8.02083" stroke-miterlimit="8" fill="#F8C0EF"/><rect x="3891" y="701" width="130" height="129" stroke="#93107E" stroke-width="8.02083" stroke-miterlimit="8" fill="#F8C0EF"/><rect x="3891" y="830" width="130" height="130" stroke="#F07D00" stroke-width="8.02083" stroke-miterlimit="8" fill="#F8C0EF"/><rect x="3891" y="960" width="130" height="130" stroke="#00B0F0" stroke-width="8.02083" stroke-miterlimit="8" fill="#F8C0EF"/><path d="M3700.94 480.5 3700.94 551.372 3694.06 551.372 3694.06 480.5ZM3723.42 511.791 3697.5 558.45 3671.58 511.791C3670.66 510.132 3671.25 508.039 3672.91 507.117 3674.57 506.195 3676.67 506.793 3677.59 508.452L3700.5 549.702 3694.5 549.702 3717.41 508.452C3718.33 506.793 3720.43 506.195 3722.09 507.117 3723.75 508.039 3724.34 510.131 3723.42 511.791Z" fill="#C3EB9B"/><path d="M3830.94 480.5 3830.94 551.372 3824.06 551.372 3824.06 480.5ZM3853.42 511.791 3827.5 558.45 3801.58 511.791C3800.66 510.132 3801.25 508.039 3802.91 507.117 3804.57 506.195 3806.67 506.793 3807.59 508.452L3830.51 549.702 3824.5 549.702 3847.41 508.452C3848.33 506.793 3850.43 506.195 3852.09 507.117 3853.75 508.039 3854.34 510.131 3853.42 511.791Z" fill="#38AEFF"/><path d="M3959.94 480.5 3959.94 551.372 3953.06 551.372 3953.06 480.5ZM3982.42 511.791 3956.5 558.45 3930.58 511.791C3929.66 510.132 3930.25 508.039 3931.91 507.117 3933.57 506.195 3935.67 506.793 3936.59 508.452L3959.51 549.702 3953.5 549.702 3976.41 508.452C3977.33 506.793 3979.43 506.195 3981.09 507.117 3982.75 508.039 3983.34 510.131 3982.42 511.791Z" fill="#F8C0EF"/><rect x="4021" y="571" width="130" height="130" stroke="#FF0000" stroke-width="8.02083" stroke-miterlimit="8" fill="#FFC89F"/><rect x="4021" y="701" width="130" height="129" stroke="#93107E" stroke-width="8.02083" stroke-miterlimit="8" fill="#FFC89F"/><rect x="4021" y="830" width="130" height="130" stroke="#F07D00" stroke-width="8.02083" stroke-miterlimit="8" fill="#FFC89F"/><rect x="4021" y="960" width="130" height="130" stroke="#00B0F0" stroke-width="8.02083" stroke-miterlimit="8" fill="#FFC89F"/><rect x="4151" y="571" width="130" height="130" stroke="#FF0000" stroke-width="8.02083" stroke-miterlimit="8" fill="#28618C"/><rect x="4151" y="701" width="130" height="129" stroke="#93107E" stroke-width="8.02083" stroke-miterlimit="8" fill="#28618C"/><rect x="4151" y="830" width="130" height="130" stroke="#F07D00" stroke-width="8.02083" stroke-miterlimit="8" fill="#28618C"/><rect x="4151" y="960" width="130" height="130" stroke="#00B0F0" stroke-width="8.02083" stroke-miterlimit="8" fill="#28618C"/><path d="M4089.94 480.5 4089.94 551.372 4083.06 551.372 4083.06 480.5ZM4112.42 511.791 4086.5 558.45 4060.58 511.791C4059.66 510.132 4060.25 508.039 4061.91 507.117 4063.57 506.195 4065.67 506.793 4066.59 508.452L4089.51 549.702 4083.5 549.702 4106.41 508.452C4107.33 506.793 4109.43 506.195 4111.09 507.117 4112.75 508.039 4113.34 510.131 4112.42 511.791Z" fill="#FFC89F"/><path d="M4219.94 480.5 4219.94 551.372 4213.06 551.372 4213.06 480.5ZM4242.42 511.791 4216.5 558.45 4190.58 511.791C4189.66 510.132 4190.25 508.039 4191.91 507.117 4193.57 506.195 4195.67 506.793 4196.59 508.452L4219.51 549.702 4213.5 549.702 4236.41 508.452C4237.33 506.793 4239.43 506.195 4241.09 507.117 4242.75 508.039 4243.34 510.131 4242.42 511.791Z" fill="#28618C"/><path d="M0 0 1094.86 0.835466" stroke="#FF0000" stroke-width="6.875" stroke-miterlimit="8" stroke-dasharray="27.5 20.625 6.875 20.625" fill="none" fill-rule="evenodd" transform="matrix(1 0 0 -1 2536.5 637.336)"/><path d="M2234.94 575.5 2234.94 1088.1 2228.06 1088.1 2228.06 575.5ZM2257.42 1048.52 2231.5 1095.18 2205.58 1048.52C2204.66 1046.86 2205.25 1044.77 2206.91 1043.85 2208.57 1042.93 2210.67 1043.52 2211.59 1045.18L2234.51 1086.43 2228.5 1086.43 2251.41 1045.18C2252.33 1043.52 2254.43 1042.93 2256.09 1043.85 2257.75 1044.77 2258.34 1046.86 2257.42 1048.52Z" fill="#E02D8A"/><path d="M2833.5 765.5 3632.23 765.5" stroke="#93107E" stroke-width="6.875" stroke-miterlimit="8" stroke-dasharray="27.5 20.625 6.875 20.625" fill="none" fill-rule="evenodd"/><path d="M0 0 497.086 0.835466" stroke="#F07D00" stroke-width="6.875" stroke-miterlimit="8" stroke-dasharray="27.5 20.625 6.875 20.625" fill="none" fill-rule="evenodd" transform="matrix(1 0 0 -1 3134.5 896.335)"/><path d="M0 0 190.197 3.97487" stroke="#00B0F0" stroke-width="6.875" stroke-miterlimit="8" stroke-dasharray="27.5 20.625 6.875 20.625" fill="none" fill-rule="evenodd" transform="matrix(1 0 0 -1 3441.5 1029.47)"/><rect x="3628" y="433" width="647" height="25.9998" fill="#00305E"/><text fill="#00305E" font-family="Open Sans,Open Sans_MSFontService,sans-serif" font-weight="400" font-size="74" transform="matrix(1 0 0 1 3776.86 420)">Attributes</text><path d="M2146.9 703 2174.2 675.762 2182 611.381 2140.4 573 2052 573 2052 573" stroke="#FF0000" stroke-width="8.02083" stroke-miterlimit="8" fill="none" fill-rule="evenodd"/><path d="M2052 703 2093.49 813.975 2182 833 2182 833 2182 833" stroke="#93107E" stroke-width="8.02083" stroke-miterlimit="8" fill="none" fill-rule="evenodd"/><path d="M2090.68 833.5 2051.5 877.445 2056.84 935.566 2122.73 962.5 2181.5 924.225 2133.42 883.115 2136.98 837.753 2090.68 833.5Z" stroke="#003F20" stroke-width="4.58333" stroke-miterlimit="8" fill="#F07D00" fill-rule="evenodd"/><path d="M2072.64 1059.83 2054.5 1075.83 2078.69 1094.5 2115.47 1079.83 2141.17 1047.83 2184.5 1052.5 2176.44 979.167 2134.11 964.5 2123.53 997.833 2105.9 1025.17 2072.64 1059.83Z" stroke="#003F20" stroke-width="4.58333" stroke-miterlimit="8" fill="#00B0F0" fill-rule="evenodd"/><rect x="2572" y="701" width="130" height="129" stroke="#93107E" stroke-width="8.02083" stroke-miterlimit="8" fill="#A6E169"/><text fill="#FFFFFF" font-family="Open Sans,Open Sans_MSFontService,sans-serif" font-weight="700" font-size="74" transform="matrix(1 0 0 1 2611.95 791)">X</text><rect x="2572" y="830" width="130" height="130" stroke="#93107E" stroke-width="8.02083" stroke-miterlimit="8" fill="#A6E169"/><text fill="#FFFFFF" font-family="Open Sans,Open Sans_MSFontService,sans-serif" font-weight="700" font-size="74" transform="matrix(1 0 0 1 2611.95 921)">X</text><rect x="2572" y="960" width="130" height="130" stroke="#93107E" stroke-width="8.02083" stroke-miterlimit="8" fill="#A6E169"/><text fill="#FFFFFF" font-family="Open Sans,Open Sans_MSFontService,sans-serif" font-weight="700" font-size="74" transform="matrix(1 0 0 1 2611.95 1051)">X</text><rect x="2703" y="701" width="130" height="129" stroke="#93107E" stroke-width="8.02083" stroke-miterlimit="8" fill="#65FFB4"/><text fill="#FFFFFF" font-family="Open Sans,Open Sans_MSFontService,sans-serif" font-weight="700" font-size="74" transform="matrix(1 0 0 1 2744.37 791)">Y</text><rect x="2703" y="830" width="130" height="130" stroke="#93107E" stroke-width="8.02083" stroke-miterlimit="8" fill="#65FFB4"/><text fill="#FFFFFF" font-family="Open Sans,Open Sans_MSFontService,sans-serif" font-weight="700" font-size="74" transform="matrix(1 0 0 1 2744.37 921)">Y</text><rect x="2703" y="960" width="130" height="130" stroke="#93107E" stroke-width="8.02083" stroke-miterlimit="8" fill="#65FFB4"/><text fill="#FFFFFF" font-family="Open Sans,Open Sans_MSFontService,sans-serif" font-weight="700" font-size="74" transform="matrix(1 0 0 1 2744.37 1051)">Y</text><rect x="2276" y="571" width="129" height="130" stroke="#FF0000" stroke-width="8.02083" stroke-miterlimit="8" fill="#A6E169"/><text fill="#FFFFFF" font-family="Open Sans,Open Sans_MSFontService,sans-serif" font-weight="700" font-size="74" transform="matrix(1 0 0 1 2315.83 662)">X</text><rect x="2276" y="701" width="129" height="130" stroke="#FF0000" stroke-width="8.02083" stroke-miterlimit="8" fill="#A6E169"/><text fill="#FFFFFF" font-family="Open Sans,Open Sans_MSFontService,sans-serif" font-weight="700" font-size="74" transform="matrix(1 0 0 1 2315.83 792)">X</text><rect x="2276" y="831" width="129" height="130" stroke="#FF0000" stroke-width="8.02083" stroke-miterlimit="8" fill="#A6E169"/><text fill="#FFFFFF" font-family="Open Sans,Open Sans_MSFontService,sans-serif" font-weight="700" font-size="74" transform="matrix(1 0 0 1 2315.83 922)">X</text><rect x="2276" y="961" width="129" height="130" stroke="#FF0000" stroke-width="8.02083" stroke-miterlimit="8" fill="#A6E169"/><text fill="#FFFFFF" font-family="Open Sans,Open Sans_MSFontService,sans-serif" font-weight="700" font-size="74" transform="matrix(1 0 0 1 2315.83 1052)">X</text><rect x="2406" y="571" width="130" height="130" stroke="#FF0000" stroke-width="8.02083" stroke-miterlimit="8" fill="#65FFB4"/><text fill="#FFFFFF" font-family="Open Sans,Open Sans_MSFontService,sans-serif" font-weight="700" font-size="74" transform="matrix(1 0 0 1 2448.25 662)">Y</text><rect x="2406" y="701" width="130" height="130" stroke="#FF0000" stroke-width="8.02083" stroke-miterlimit="8" fill="#65FFB4"/><text fill="#FFFFFF" font-family="Open Sans,Open Sans_MSFontService,sans-serif" font-weight="700" font-size="74" transform="matrix(1 0 0 1 2448.25 792)">Y</text><rect x="2406" y="831" width="130" height="130" stroke="#FF0000" stroke-width="8.02083" stroke-miterlimit="8" fill="#65FFB4"/><text fill="#FFFFFF" font-family="Open Sans,Open Sans_MSFontService,sans-serif" font-weight="700" font-size="74" transform="matrix(1 0 0 1 2448.25 922)">Y</text><rect x="2406" y="961" width="130" height="130" stroke="#FF0000" stroke-width="8.02083" stroke-miterlimit="8" fill="#65FFB4"/><text fill="#FFFFFF" font-family="Open Sans,Open Sans_MSFontService,sans-serif" font-weight="700" font-size="74" transform="matrix(1 0 0 1 2448.25 1052)">Y</text><rect x="2873" y="831" width="130" height="130" stroke="#F07D00" stroke-width="8.02083" stroke-miterlimit="8" fill="#A6E169"/><text fill="#FFFFFF" font-family="Open Sans,Open Sans_MSFontService,sans-serif" font-weight="700" font-size="74" transform="matrix(1 0 0 1 2913.6 922)">X</text><rect x="2873" y="961" width="130" height="130" stroke="#F07D00" stroke-width="8.02083" stroke-miterlimit="8" fill="#A6E169"/><text fill="#FFFFFF" font-family="Open Sans,Open Sans_MSFontService,sans-serif" font-weight="700" font-size="74" transform="matrix(1 0 0 1 2913.6 1052)">X</text><rect x="2873" y="1091" width="130" height="130" stroke="#F07D00" stroke-width="8.02083" stroke-miterlimit="8" fill="#A6E169"/><text fill="#FFFFFF" font-family="Open Sans,Open Sans_MSFontService,sans-serif" font-weight="700" font-size="74" transform="matrix(1 0 0 1 2913.6 1182)">X</text><rect x="2873" y="1221" width="130" height="130" stroke="#F07D00" stroke-width="8.02083" stroke-miterlimit="8" fill="#A6E169"/><text fill="#FFFFFF" font-family="Open Sans,Open Sans_MSFontService,sans-serif" font-weight="700" font-size="74" transform="matrix(1 0 0 1 2913.6 1311)">X</text><rect x="3004" y="831" width="130" height="130" stroke="#F07D00" stroke-width="8.02083" stroke-miterlimit="8" fill="#65FFB4"/><text fill="#FFFFFF" font-family="Open Sans,Open Sans_MSFontService,sans-serif" font-weight="700" font-size="74" transform="matrix(1 0 0 1 3046.02 922)">Y</text><rect x="3004" y="961" width="130" height="130" stroke="#F07D00" stroke-width="8.02083" stroke-miterlimit="8" fill="#65FFB4"/><text fill="#FFFFFF" font-family="Open Sans,Open Sans_MSFontService,sans-serif" font-weight="700" font-size="74" transform="matrix(1 0 0 1 3046.02 1052)">Y</text><rect x="3004" y="1091" width="130" height="130" stroke="#F07D00" stroke-width="8.02083" stroke-miterlimit="8" fill="#65FFB4"/><text fill="#FFFFFF" font-family="Open Sans,Open Sans_MSFontService,sans-serif" font-weight="700" font-size="74" transform="matrix(1 0 0 1 3046.02 1182)">Y</text><rect x="3004" y="1221" width="130" height="130" stroke="#F07D00" stroke-width="8.02083" stroke-miterlimit="8" fill="#65FFB4"/><text fill="#FFFFFF" font-family="Open Sans,Open Sans_MSFontService,sans-serif" font-weight="700" font-size="74" transform="matrix(1 0 0 1 3046.02 1311)">Y</text><rect x="2873" y="1351" width="130" height="130" stroke="#F07D00" stroke-width="8.02083" stroke-miterlimit="8" fill="#A6E169"/><text fill="#FFFFFF" font-family="Open Sans,Open Sans_MSFontService,sans-serif" font-weight="700" font-size="74" transform="matrix(1 0 0 1 2913.6 1441)">X</text><rect x="3004" y="1351" width="130" height="130" stroke="#F07D00" stroke-width="8.02083" stroke-miterlimit="8" fill="#65FFB4"/><text fill="#FFFFFF" font-family="Open Sans,Open Sans_MSFontService,sans-serif" font-weight="700" font-size="74" transform="matrix(1 0 0 1 3046.02 1441)">Y</text><rect x="3180" y="964" width="130" height="130" stroke="#00B0F0" stroke-width="8.02083" stroke-miterlimit="8" fill="#A6E169"/><text fill="#FFFFFF" font-family="Open Sans,Open Sans_MSFontService,sans-serif" font-weight="700" font-size="74" transform="matrix(1 0 0 1 3220.49 1055)">X</text><rect x="3180" y="1094" width="130" height="130" stroke="#00B0F0" stroke-width="8.02083" stroke-miterlimit="8" fill="#A6E169"/><text fill="#FFFFFF" font-family="Open Sans,Open Sans_MSFontService,sans-serif" font-weight="700" font-size="74" transform="matrix(1 0 0 1 3220.49 1185)">X</text><rect x="3180" y="1224" width="130" height="130" stroke="#00B0F0" stroke-width="8.02083" stroke-miterlimit="8" fill="#A6E169"/><text fill="#FFFFFF" font-family="Open Sans,Open Sans_MSFontService,sans-serif" font-weight="700" font-size="74" transform="matrix(1 0 0 1 3220.49 1315)">X</text><rect x="3180" y="1354" width="130" height="130" stroke="#00B0F0" stroke-width="8.02083" stroke-miterlimit="8" fill="#A6E169"/><text fill="#FFFFFF" font-family="Open Sans,Open Sans_MSFontService,sans-serif" font-weight="700" font-size="74" transform="matrix(1 0 0 1 3220.49 1445)">X</text><rect x="3311" y="964" width="130" height="130" stroke="#00B0F0" stroke-width="8.02083" stroke-miterlimit="8" fill="#65FFB4"/><text fill="#FFFFFF" font-family="Open Sans,Open Sans_MSFontService,sans-serif" font-weight="700" font-size="74" transform="matrix(1 0 0 1 3352.91 1055)">Y</text><rect x="3311" y="1094" width="130" height="130" stroke="#00B0F0" stroke-width="8.02083" stroke-miterlimit="8" fill="#65FFB4"/><text fill="#FFFFFF" font-family="Open Sans,Open Sans_MSFontService,sans-serif" font-weight="700" font-size="74" transform="matrix(1 0 0 1 3352.91 1185)">Y</text><rect x="3311" y="1224" width="130" height="130" stroke="#00B0F0" stroke-width="8.02083" stroke-miterlimit="8" fill="#65FFB4"/><text fill="#FFFFFF" font-family="Open Sans,Open Sans_MSFontService,sans-serif" font-weight="700" font-size="74" transform="matrix(1 0 0 1 3352.91 1315)">Y</text><rect x="3311" y="1354" width="130" height="130" stroke="#00B0F0" stroke-width="8.02083" stroke-miterlimit="8" fill="#65FFB4"/><text fill="#FFFFFF" font-family="Open Sans,Open Sans_MSFontService,sans-serif" font-weight="700" font-size="74" transform="matrix(1 0 0 1 3352.91 1445)">Y</text><rect x="3180" y="1487" width="130" height="129" stroke="#00B0F0" stroke-width="8.02083" stroke-miterlimit="8" fill="#A6E169"/><text fill="#FFFFFF" font-family="Open Sans,Open Sans_MSFontService,sans-serif" font-weight="700" font-size="74" transform="matrix(1 0 0 1 3220.49 1577)">X</text><rect x="3180" y="1616" width="130" height="130" stroke="#00B0F0" stroke-width="8.02083" stroke-miterlimit="8" fill="#A6E169"/><text fill="#FFFFFF" font-family="Open Sans,Open Sans_MSFontService,sans-serif" font-weight="700" font-size="74" transform="matrix(1 0 0 1 3220.49 1707)">X</text><rect x="3311" y="1487" width="130" height="129" stroke="#00B0F0" stroke-width="8.02083" stroke-miterlimit="8" fill="#65FFB4"/><text fill="#FFFFFF" font-family="Open Sans,Open Sans_MSFontService,sans-serif" font-weight="700" font-size="74" transform="matrix(1 0 0 1 3352.91 1577)">Y</text><rect x="3311" y="1616" width="130" height="130" stroke="#00B0F0" stroke-width="8.02083" stroke-miterlimit="8" fill="#65FFB4"/><text fill="#FFFFFF" font-family="Open Sans,Open Sans_MSFontService,sans-serif" font-weight="700" font-size="74" transform="matrix(1 0 0 1 3352.91 1707)">Y</text><rect x="1871" y="568" width="65" height="65" stroke="#FF0000" stroke-width="8.02083" stroke-miterlimit="8" fill="#A6E169"/><text fill="#FFFFFF" font-family="Open Sans,Open Sans_MSFontService,sans-serif" font-weight="700" font-size="55" transform="matrix(1 0 0 1 1885.08 619)">X</text><rect x="1871" y="633" width="65" height="65.0003" stroke="#FF0000" stroke-width="8.02083" stroke-miterlimit="8" fill="#A6E169"/><text fill="#FFFFFF" font-family="Open Sans,Open Sans_MSFontService,sans-serif" font-weight="700" font-size="55" transform="matrix(1 0 0 1 1885.08 684)">X</text><rect x="1871" y="698" width="65" height="64.9999" stroke="#FF0000" stroke-width="8.02083" stroke-miterlimit="8" fill="#A6E169"/><text fill="#FFFFFF" font-family="Open Sans,Open Sans_MSFontService,sans-serif" font-weight="700" font-size="55" transform="matrix(1 0 0 1 1885.08 749)">X</text><rect x="1871" y="763" width="65" height="65" stroke="#FF0000" stroke-width="8.02083" stroke-miterlimit="8" fill="#A6E169"/><text fill="#FFFFFF" font-family="Open Sans,Open Sans_MSFontService,sans-serif" font-weight="700" font-size="55" transform="matrix(1 0 0 1 1885.08 814)">X</text><rect x="1871" y="828" width="65" height="65" stroke="#93107E" stroke-width="8.02083" stroke-miterlimit="8" fill="#A6E169"/><text fill="#FFFFFF" font-family="Open Sans,Open Sans_MSFontService,sans-serif" font-weight="700" font-size="55" transform="matrix(1 0 0 1 1885.08 879)">X</text><rect x="1871" y="893" width="65" height="64.9999" stroke="#93107E" stroke-width="8.02083" stroke-miterlimit="8" fill="#A6E169"/><text fill="#FFFFFF" font-family="Open Sans,Open Sans_MSFontService,sans-serif" font-weight="700" font-size="55" transform="matrix(1 0 0 1 1885.08 944)">X</text><rect x="1871" y="958" width="65" height="64.9999" stroke="#93107E" stroke-width="8.02083" stroke-miterlimit="8" fill="#A6E169"/><text fill="#FFFFFF" font-family="Open Sans,Open Sans_MSFontService,sans-serif" font-weight="700" font-size="55" transform="matrix(1 0 0 1 1885.08 1009)">X</text><rect x="1871" y="1023" width="65" height="65" stroke="#F07D00" stroke-width="8.02083" stroke-miterlimit="8" fill="#A6E169"/><text fill="#FFFFFF" font-family="Open Sans,Open Sans_MSFontService,sans-serif" font-weight="700" font-size="55" transform="matrix(1 0 0 1 1885.08 1074)">X</text><rect x="1871" y="1088" width="65" height="65" stroke="#F07D00" stroke-width="8.02083" stroke-miterlimit="8" fill="#A6E169"/><text fill="#FFFFFF" font-family="Open Sans,Open Sans_MSFontService,sans-serif" font-weight="700" font-size="55" transform="matrix(1 0 0 1 1885.08 1139)">X</text><rect x="1871" y="1153" width="65" height="65" stroke="#F07D00" stroke-width="8.02083" stroke-miterlimit="8" fill="#A6E169"/><text fill="#FFFFFF" font-family="Open Sans,Open Sans_MSFontService,sans-serif" font-weight="700" font-size="55" transform="matrix(1 0 0 1 1885.08 1204)">X</text><rect x="1871" y="1218" width="65" height="65" stroke="#F07D00" stroke-width="8.02083" stroke-miterlimit="8" fill="#A6E169"/><text fill="#FFFFFF" font-family="Open Sans,Open Sans_MSFontService,sans-serif" font-weight="700" font-size="55" transform="matrix(1 0 0 1 1885.08 1269)">X</text><rect x="1871" y="1283" width="65" height="65" stroke="#F07D00" stroke-width="8.02083" stroke-miterlimit="8" fill="#A6E169"/><text fill="#FFFFFF" font-family="Open Sans,Open Sans_MSFontService,sans-serif" font-weight="700" font-size="55" transform="matrix(1 0 0 1 1885.08 1334)">X</text><rect x="1871" y="1346" width="65" height="65" stroke="#00B0F0" stroke-width="8.02083" stroke-miterlimit="8" fill="#A6E169"/><text fill="#FFFFFF" font-family="Open Sans,Open Sans_MSFontService,sans-serif" font-weight="700" font-size="55" transform="matrix(1 0 0 1 1885.08 1398)">X</text><rect x="1871" y="1411" width="65" height="65" stroke="#00B0F0" stroke-width="8.02083" stroke-miterlimit="8" fill="#A6E169"/><text fill="#FFFFFF" font-family="Open Sans,Open Sans_MSFontService,sans-serif" font-weight="700" font-size="55" transform="matrix(1 0 0 1 1885.08 1463)">X</text><rect x="1871" y="1476" width="65" height="65" stroke="#00B0F0" stroke-width="8.02083" stroke-miterlimit="8" fill="#A6E169"/><text fill="#FFFFFF" font-family="Open Sans,Open Sans_MSFontService,sans-serif" font-weight="700" font-size="55" transform="matrix(1 0 0 1 1885.08 1528)">X</text><rect x="1871" y="1541" width="65" height="65" stroke="#00B0F0" stroke-width="8.02083" stroke-miterlimit="8" fill="#A6E169"/><text fill="#FFFFFF" font-family="Open Sans,Open Sans_MSFontService,sans-serif" font-weight="700" font-size="55" transform="matrix(1 0 0 1 1885.08 1593)">X</text><rect x="1871" y="1607" width="65" height="65" stroke="#00B0F0" stroke-width="8.02083" stroke-miterlimit="8" fill="#A6E169"/><text fill="#FFFFFF" font-family="Open Sans,Open Sans_MSFontService,sans-serif" font-weight="700" font-size="55" transform="matrix(1 0 0 1 1885.08 1659)">X</text><rect x="1871" y="1672" width="65" height="65" stroke="#00B0F0" stroke-width="8.02083" stroke-miterlimit="8" fill="#A6E169"/><text fill="#FFFFFF" font-family="Open Sans,Open Sans_MSFontService,sans-serif" font-weight="700" font-size="55" transform="matrix(1 0 0 1 1885.08 1724)">X</text><rect x="1936" y="568" width="65" height="65" stroke="#FF0000" stroke-width="8.02083" stroke-miterlimit="8" fill="#65FFB4"/><text fill="#FFFFFF" font-family="Open Sans,Open Sans_MSFontService,sans-serif" font-weight="700" font-size="55" transform="matrix(1 0 0 1 1951.45 619)">Y</text><rect x="1936" y="633" width="65" height="65.0003" stroke="#FF0000" stroke-width="8.02083" stroke-miterlimit="8" fill="#65FFB4"/><text fill="#FFFFFF" font-family="Open Sans,Open Sans_MSFontService,sans-serif" font-weight="700" font-size="55" transform="matrix(1 0 0 1 1951.45 684)">Y</text><rect x="1936" y="698" width="65" height="64.9999" stroke="#FF0000" stroke-width="8.02083" stroke-miterlimit="8" fill="#65FFB4"/><text fill="#FFFFFF" font-family="Open Sans,Open Sans_MSFontService,sans-serif" font-weight="700" font-size="55" transform="matrix(1 0 0 1 1951.45 749)">Y</text><rect x="1936" y="763" width="65" height="65" stroke="#FF0000" stroke-width="8.02083" stroke-miterlimit="8" fill="#65FFB4"/><text fill="#FFFFFF" font-family="Open Sans,Open Sans_MSFontService,sans-serif" font-weight="700" font-size="55" transform="matrix(1 0 0 1 1951.45 814)">Y</text><rect x="1936" y="828" width="65" height="65" stroke="#93107E" stroke-width="8.02083" stroke-miterlimit="8" fill="#65FFB4"/><text fill="#FFFFFF" font-family="Open Sans,Open Sans_MSFontService,sans-serif" font-weight="700" font-size="55" transform="matrix(1 0 0 1 1951.45 879)">Y</text><rect x="1936" y="893" width="65" height="64.9999" stroke="#93107E" stroke-width="8.02083" stroke-miterlimit="8" fill="#65FFB4"/><text fill="#FFFFFF" font-family="Open Sans,Open Sans_MSFontService,sans-serif" font-weight="700" font-size="55" transform="matrix(1 0 0 1 1951.45 944)">Y</text><rect x="1936" y="958" width="65" height="64.9999" stroke="#93107E" stroke-width="8.02083" stroke-miterlimit="8" fill="#65FFB4"/><text fill="#FFFFFF" font-family="Open Sans,Open Sans_MSFontService,sans-serif" font-weight="700" font-size="55" transform="matrix(1 0 0 1 1951.45 1009)">Y</text><rect x="1936" y="1023" width="65" height="65" stroke="#F07D00" stroke-width="8.02083" stroke-miterlimit="8" fill="#65FFB4"/><text fill="#FFFFFF" font-family="Open Sans,Open Sans_MSFontService,sans-serif" font-weight="700" font-size="55" transform="matrix(1 0 0 1 1951.45 1074)">Y</text><rect x="1936" y="1088" width="65" height="65" stroke="#F07D00" stroke-width="8.02083" stroke-miterlimit="8" fill="#65FFB4"/><text fill="#FFFFFF" font-family="Open Sans,Open Sans_MSFontService,sans-serif" font-weight="700" font-size="55" transform="matrix(1 0 0 1 1951.45 1139)">Y</text><rect x="1936" y="1153" width="65" height="65" stroke="#F07D00" stroke-width="8.02083" stroke-miterlimit="8" fill="#65FFB4"/><text fill="#FFFFFF" font-family="Open Sans,Open Sans_MSFontService,sans-serif" font-weight="700" font-size="55" transform="matrix(1 0 0 1 1951.45 1204)">Y</text><rect x="1936" y="1218" width="65" height="65" stroke="#F07D00" stroke-width="8.02083" stroke-miterlimit="8" fill="#65FFB4"/><text fill="#FFFFFF" font-family="Open Sans,Open Sans_MSFontService,sans-serif" font-weight="700" font-size="55" transform="matrix(1 0 0 1 1951.45 1269)">Y</text><rect x="1936" y="1283" width="65" height="65" stroke="#F07D00" stroke-width="8.02083" stroke-miterlimit="8" fill="#65FFB4"/><text fill="#FFFFFF" font-family="Open Sans,Open Sans_MSFontService,sans-serif" font-weight="700" font-size="55" transform="matrix(1 0 0 1 1951.45 1334)">Y</text><rect x="1936" y="1346" width="65" height="65" stroke="#00B0F0" stroke-width="8.02083" stroke-miterlimit="8" fill="#65FFB4"/><text fill="#FFFFFF" font-family="Open Sans,Open Sans_MSFontService,sans-serif" font-weight="700" font-size="55" transform="matrix(1 0 0 1 1951.45 1398)">Y</text><rect x="1936" y="1411" width="65" height="65" stroke="#00B0F0" stroke-width="8.02083" stroke-miterlimit="8" fill="#65FFB4"/><text fill="#FFFFFF" font-family="Open Sans,Open Sans_MSFontService,sans-serif" font-weight="700" font-size="55" transform="matrix(1 0 0 1 1951.45 1463)">Y</text><rect x="1936" y="1476" width="65" height="65" stroke="#00B0F0" stroke-width="8.02083" stroke-miterlimit="8" fill="#65FFB4"/><text fill="#FFFFFF" font-family="Open Sans,Open Sans_MSFontService,sans-serif" font-weight="700" font-size="55" transform="matrix(1 0 0 1 1951.45 1528)">Y</text><rect x="1936" y="1541" width="65" height="65" stroke="#00B0F0" stroke-width="8.02083" stroke-miterlimit="8" fill="#65FFB4"/><text fill="#FFFFFF" font-family="Open Sans,Open Sans_MSFontService,sans-serif" font-weight="700" font-size="55" transform="matrix(1 0 0 1 1951.45 1593)">Y</text><rect x="1936" y="1607" width="65" height="65" stroke="#00B0F0" stroke-width="8.02083" stroke-miterlimit="8" fill="#65FFB4"/><text fill="#FFFFFF" font-family="Open Sans,Open Sans_MSFontService,sans-serif" font-weight="700" font-size="55" transform="matrix(1 0 0 1 1951.45 1659)">Y</text><rect x="1936" y="1672" width="65" height="65" stroke="#00B0F0" stroke-width="8.02083" stroke-miterlimit="8" fill="#65FFB4"/><text fill="#FFFFFF" font-family="Open Sans,Open Sans_MSFontService,sans-serif" font-weight="700" font-size="55" transform="matrix(1 0 0 1 1951.45 1724)">Y</text><rect x="1804" y="568" width="65" height="65" stroke="#FF0000" stroke-width="8.02083" stroke-miterlimit="8" fill="#E6FFED"/><text fill="#FF0000" font-family="Open Sans,Open Sans_MSFontService,sans-serif" font-weight="700" font-size="55" transform="matrix(1 0 0 1 1820.97 619)">1</text><rect x="1804" y="633" width="65" height="65.0003" stroke="#FF0000" stroke-width="8.02083" stroke-miterlimit="8" fill="#E6FFED"/><text fill="#FF0000" font-family="Open Sans,Open Sans_MSFontService,sans-serif" font-weight="700" font-size="55" transform="matrix(1 0 0 1 1820.97 684)">1</text><rect x="1804" y="698" width="65" height="64.9999" stroke="#FF0000" stroke-width="8.02083" stroke-miterlimit="8" fill="#E6FFED"/><text fill="#FF0000" font-family="Open Sans,Open Sans_MSFontService,sans-serif" font-weight="700" font-size="55" transform="matrix(1 0 0 1 1820.97 749)">1</text><rect x="1804" y="763" width="65" height="65" stroke="#FF0000" stroke-width="8.02083" stroke-miterlimit="8" fill="#E6FFED"/><text fill="#FF0000" font-family="Open Sans,Open Sans_MSFontService,sans-serif" font-weight="700" font-size="55" transform="matrix(1 0 0 1 1820.97 814)">1</text><rect x="1804" y="828" width="65" height="65" stroke="#93107E" stroke-width="8.02083" stroke-miterlimit="8" fill="#E6FFED"/><text fill="#93107E" font-family="Open Sans,Open Sans_MSFontService,sans-serif" font-weight="700" font-size="55" transform="matrix(1 0 0 1 1820.97 879)">2</text><rect x="1804" y="893" width="65" height="64.9999" stroke="#93107E" stroke-width="8.02083" stroke-miterlimit="8" fill="#E6FFED"/><text fill="#93107E" font-family="Open Sans,Open Sans_MSFontService,sans-serif" font-weight="700" font-size="55" transform="matrix(1 0 0 1 1820.97 944)">2</text><rect x="1804" y="958" width="65" height="64.9999" stroke="#93107E" stroke-width="8.02083" stroke-miterlimit="8" fill="#E6FFED"/><text fill="#93107E" font-family="Open Sans,Open Sans_MSFontService,sans-serif" font-weight="700" font-size="55" transform="matrix(1 0 0 1 1820.97 1009)">2</text><rect x="1804" y="1023" width="65" height="65" stroke="#F07D00" stroke-width="8.02083" stroke-miterlimit="8" fill="#E6FFED"/><text fill="#F07D00" font-family="Open Sans,Open Sans_MSFontService,sans-serif" font-weight="700" font-size="55" transform="matrix(1 0 0 1 1820.97 1074)">3</text><rect x="1804" y="1088" width="65" height="65" stroke="#F07D00" stroke-width="8.02083" stroke-miterlimit="8" fill="#E6FFED"/><text fill="#F07D00" font-family="Open Sans,Open Sans_MSFontService,sans-serif" font-weight="700" font-size="55" transform="matrix(1 0 0 1 1820.97 1139)">3</text><rect x="1804" y="1153" width="65" height="65" stroke="#F07D00" stroke-width="8.02083" stroke-miterlimit="8" fill="#E6FFED"/><text fill="#F07D00" font-family="Open Sans,Open Sans_MSFontService,sans-serif" font-weight="700" font-size="55" transform="matrix(1 0 0 1 1820.97 1204)">3</text><rect x="1804" y="1218" width="65" height="65" stroke="#F07D00" stroke-width="8.02083" stroke-miterlimit="8" fill="#E6FFED"/><text fill="#F07D00" font-family="Open Sans,Open Sans_MSFontService,sans-serif" font-weight="700" font-size="55" transform="matrix(1 0 0 1 1820.97 1269)">3</text><rect x="1804" y="1283" width="65" height="65" stroke="#F07D00" stroke-width="8.02083" stroke-miterlimit="8" fill="#E6FFED"/><text fill="#F07D00" font-family="Open Sans,Open Sans_MSFontService,sans-serif" font-weight="700" font-size="55" transform="matrix(1 0 0 1 1820.97 1334)">3</text><rect x="1804" y="1346" width="65" height="65" stroke="#00B0F0" stroke-width="8.02083" stroke-miterlimit="8" fill="#E6FFED"/><text fill="#00B0F0" font-family="Open Sans,Open Sans_MSFontService,sans-serif" font-weight="700" font-size="55" transform="matrix(1 0 0 1 1820.97 1398)">4</text><rect x="1804" y="1411" width="65" height="65" stroke="#00B0F0" stroke-width="8.02083" stroke-miterlimit="8" fill="#E6FFED"/><text fill="#00B0F0" font-family="Open Sans,Open Sans_MSFontService,sans-serif" font-weight="700" font-size="55" transform="matrix(1 0 0 1 1820.97 1463)">4</text><rect x="1804" y="1476" width="65" height="65" stroke="#00B0F0" stroke-width="8.02083" stroke-miterlimit="8" fill="#E6FFED"/><text fill="#00B0F0" font-family="Open Sans,Open Sans_MSFontService,sans-serif" font-weight="700" font-size="55" transform="matrix(1 0 0 1 1820.97 1528)">4</text><rect x="1804" y="1541" width="65" height="65" stroke="#00B0F0" stroke-width="8.02083" stroke-miterlimit="8" fill="#E6FFED"/><text fill="#00B0F0" font-family="Open Sans,Open Sans_MSFontService,sans-serif" font-weight="700" font-size="55" transform="matrix(1 0 0 1 1820.97 1593)">4</text><rect x="1804" y="1607" width="65" height="65" stroke="#00B0F0" stroke-width="8.02083" stroke-miterlimit="8" fill="#E6FFED"/><text fill="#00B0F0" font-family="Open Sans,Open Sans_MSFontService,sans-serif" font-weight="700" font-size="55" transform="matrix(1 0 0 1 1820.97 1659)">4</text><rect x="1804" y="1672" width="65" height="65" stroke="#00B0F0" stroke-width="8.02083" stroke-miterlimit="8" fill="#E6FFED"/><text fill="#00B0F0" font-family="Open Sans,Open Sans_MSFontService,sans-serif" font-weight="700" font-size="55" transform="matrix(1 0 0 1 1820.97 1724)">4</text><text fill="#A6E169" font-family="Open Sans,Open Sans_MSFontService,sans-serif" font-weight="700" font-size="48" transform="matrix(1 0 0 1 1889.37 559)">X</text><text fill="#65FFB4" font-family="Open Sans,Open Sans_MSFontService,sans-serif" font-weight="700" font-size="48" transform="matrix(1 0 0 1 1954.14 559)">Y</text><text fill="#E02D8A" font-family="Open Sans,Open Sans_MSFontService,sans-serif" font-weight="700" font-size="48" transform="matrix(1 0 0 1 1805.09 557)">G</text><text fill="#E02D8A" font-family="Open Sans,Open Sans_MSFontService,sans-serif" font-weight="700" font-size="23" transform="matrix(1 0 0 1 1840.04 557)">ID</text></g></svg>