<svg width="3192" height="1001" xmlns="http://www.w3.org/2000/svg" xmlns:xlink="http://www.w3.org/1999/xlink" xml:space="preserve" overflow="hidden"><g transform="translate(-624 -713)"><rect x="2048.5" y="826.5" width="494" height="884" stroke="#00305E" stroke-width="6.875" stroke-miterlimit="8" fill="none"/><text fill="#00305E" font-family="Open Sans,Open Sans_MSFontService,sans-serif" font-weight="400" font-size="74" transform="matrix(1 0 0 1 2081.45 986)">Metadaten</text><text fill="#00305E" font-family="Symbol,Symbol_MSFontService,sans-serif" font-weight="400" font-size="64" transform="matrix(1 0 0 1 2081.45 1065)"></text><text fill="#00305E" font-family="Open Sans Light,Open Sans Light_MSFontService,sans-serif" font-weight="300" font-size="64" transform="matrix(1 0 0 1 2184.57 1065)">as</text><text fill="#00305E" font-family="Open Sans Light,Open Sans Light_MSFontService,sans-serif" font-weight="300" font-size="64" transform="matrix(1 0 0 1 2264.78 1065)">Table</text><text fill="#00305E" font-family="Symbol,Symbol_MSFontService,sans-serif" font-weight="400" font-size="64" transform="matrix(1 0 0 1 2081.45 1142)"></text><text fill="#00305E" font-family="Open Sans Light,Open Sans Light_MSFontService,sans-serif" font-weight="300" font-size="64" transform="matrix(1 0 0 1 2184.57 1142)">as</text><text fill="#00305E" font-family="Open Sans Light,Open Sans Light_MSFontService,sans-serif" font-weight="300" font-size="64" transform="matrix(1 0 0 1 2264.78 1142)">Text</text><text fill="#00305E" font-family="Symbol,Symbol_MSFontService,sans-serif" font-weight="400" font-size="64" transform="matrix(1 0 0 1 2081.45 1219)"></text><text fill="#00305E" font-family="Open Sans Light,Open Sans Light_MSFontService,sans-serif" font-weight="300" font-size="64" transform="matrix(1 0 0 1 2184.57 1219)">ignore</text><text fill="#00305E" font-family="Open Sans,Open Sans_MSFontService,sans-serif" font-weight="400" font-size="64" transform="matrix(1 0 0 1 2081.45 1373)">Title</text><text fill="#00305E" font-family="Symbol,Symbol_MSFontService,sans-serif" font-weight="400" font-size="64" transform="matrix(1 0 0 1 2081.45 1450)"></text><text fill="#00305E" font-family="Open Sans Light,Open Sans Light_MSFontService,sans-serif" font-weight="300" font-size="64" transform="matrix(1 0 0 1 2184.57 1450)">Header / </text><text fill="#00305E" font-family="Open Sans Light,Open Sans Light_MSFontService,sans-serif" font-weight="300" font-size="64" transform="matrix(1 0 0 1 2184.57 1527)">Colnames</text><text fill="#00305E" font-family="Symbol,Symbol_MSFontService,sans-serif" font-weight="400" font-size="64" transform="matrix(1 0 0 1 2081.45 1604)"></text><text fill="#00305E" font-family="Open Sans Light,Open Sans Light_MSFontService,sans-serif" font-weight="300" font-size="64" transform="matrix(1 0 0 1 2184.57 1604)">Rownames</text><text fill="#00305E" font-family="Open Sans,Open Sans_MSFontService,sans-serif" font-weight="400" font-size="74" transform="matrix(1 0 0 1 2091.34 806)">Pre</text><text fill="#00305E" font-family="Open Sans,Open Sans_MSFontService,sans-serif" font-weight="400" font-size="74" transform="matrix(1 0 0 1 2208.21 806)">-</text><text fill="#00305E" font-family="Open Sans,Open Sans_MSFontService,sans-serif" font-weight="400" font-size="74" transform="matrix(1 0 0 1 2232.28 806)">Analyse</text><rect x="830.5" y="826.5" width="468" height="884" stroke="#007D40" stroke-width="6.875" stroke-miterlimit="8" stroke-dasharray="27.5 20.625" fill="none"/><text fill="#007D40" font-family="Open Sans,Open Sans_MSFontService,sans-serif" font-weight="400" font-size="74" transform="matrix(1 0 0 1 1041.03 806)">R</text><rect x="868.5" y="911.5" width="390" height="234" stroke="#007D40" stroke-width="6.875" stroke-miterlimit="8" fill="#E6FFED"/><text fill="#00305E" font-family="Open Sans,Open Sans_MSFontService,sans-serif" font-weight="400" font-size="73" transform="matrix(1 0 0 1 881.088 976)">r</text><text fill="#00305E" font-family="Open Sans,Open Sans_MSFontService,sans-serif" font-weight="400" font-size="73" transform="matrix(1 0 0 1 910.88 976)">eadr</text><text fill="#00305E" font-family="Open Sans,Open Sans_MSFontService,sans-serif" font-weight="400" font-size="73" transform="matrix(1 0 0 1 1067.29 976)">::</text><text fill="#00305E" font-family="Open Sans Light,Open Sans Light_MSFontService,sans-serif" font-weight="300" font-size="64" transform="matrix(1 0 0 1 881.088 1055)">read</text><text fill="#00305E" font-family="Open Sans Light,Open Sans Light_MSFontService,sans-serif" font-weight="300" font-size="64" transform="matrix(1 0 0 1 1014 1055)">_</text><text fill="#00305E" font-family="Open Sans Light,Open Sans Light_MSFontService,sans-serif" font-weight="300" font-size="64" transform="matrix(1 0 0 1 1040.36 1055)">table</text><text fill="#00305E" font-family="Open Sans Light,Open Sans Light_MSFontService,sans-serif" font-weight="300" font-size="64" transform="matrix(1 0 0 1 1183.59 1055)">()</text><text fill="#00305E" font-family="Open Sans Light,Open Sans Light_MSFontService,sans-serif" font-weight="300" font-size="64" transform="matrix(1 0 0 1 881.088 1132)">read</text><text fill="#00305E" font-family="Open Sans Light,Open Sans Light_MSFontService,sans-serif" font-weight="300" font-size="64" transform="matrix(1 0 0 1 1014 1132)">_</text><text fill="#00305E" font-family="Open Sans Light,Open Sans Light_MSFontService,sans-serif" font-weight="300" font-size="64" transform="matrix(1 0 0 1 1040.36 1132)">csv</text><text fill="#00305E" font-family="Open Sans Light,Open Sans Light_MSFontService,sans-serif" font-weight="300" font-size="64" transform="matrix(1 0 0 1 1129.73 1132)">()</text><rect x="868.5" y="1391.5" width="390" height="234" stroke="#007D40" stroke-width="6.875" stroke-miterlimit="8" fill="#E6FFED"/><text fill="#00305E" font-family="Open Sans,Open Sans_MSFontService,sans-serif" font-weight="400" font-size="73" transform="matrix(1 0 0 1 881.088 1495)">readxl</text><text fill="#00305E" font-family="Open Sans,Open Sans_MSFontService,sans-serif" font-weight="400" font-size="73" transform="matrix(1 0 0 1 1094.21 1495)">::</text><text fill="#00305E" font-family="Open Sans Light,Open Sans Light_MSFontService,sans-serif" font-weight="300" font-size="64" transform="matrix(1 0 0 1 881.088 1574)">read_excel</text><text fill="#00305E" font-family="Open Sans Light,Open Sans Light_MSFontService,sans-serif" font-weight="300" font-size="64" transform="matrix(1 0 0 1 1188.17 1574)">()</text><rect x="1439.5" y="826.5" width="468" height="884" stroke="#F07D00" stroke-width="6.875" stroke-miterlimit="8" stroke-dasharray="27.5 20.625" fill="none"/><text fill="#F07D00" font-family="Open Sans,Open Sans_MSFontService,sans-serif" font-weight="400" font-size="74" transform="matrix(1 0 0 1 1551.38 806)">Python</text><rect x="1478.5" y="911.5" width="390" height="234" stroke="#F07D00" stroke-width="6.875" stroke-miterlimit="8" fill="#FFF9E0"/><text fill="#00305E" font-family="Open Sans,Open Sans_MSFontService,sans-serif" font-weight="400" font-size="73" transform="matrix(1 0 0 1 1491.24 1015)">pandas</text><text fill="#00305E" font-family="Open Sans,Open Sans_MSFontService,sans-serif" font-weight="400" font-size="73" transform="matrix(1 0 0 1 1742.17 1015)">.</text><text fill="#00305E" font-family="Open Sans Light,Open Sans Light_MSFontService,sans-serif" font-weight="300" font-size="64" transform="matrix(1 0 0 1 1491.24 1094)">read</text><text fill="#00305E" font-family="Open Sans Light,Open Sans Light_MSFontService,sans-serif" font-weight="300" font-size="64" transform="matrix(1 0 0 1 1624.15 1094)">_</text><text fill="#00305E" font-family="Open Sans Light,Open Sans Light_MSFontService,sans-serif" font-weight="300" font-size="64" transform="matrix(1 0 0 1 1650.51 1094)">table</text><text fill="#00305E" font-family="Open Sans Light,Open Sans Light_MSFontService,sans-serif" font-weight="300" font-size="64" transform="matrix(1 0 0 1 1793.74 1094)">()</text><rect x="1478.5" y="1391.5" width="390" height="234" stroke="#F07D00" stroke-width="6.875" stroke-miterlimit="8" fill="#FFF9E0"/><text fill="#00305E" font-family="Open Sans,Open Sans_MSFontService,sans-serif" font-weight="400" font-size="73" transform="matrix(1 0 0 1 1491.24 1495)">pandas</text><text fill="#00305E" font-family="Open Sans,Open Sans_MSFontService,sans-serif" font-weight="400" font-size="73" transform="matrix(1 0 0 1 1742.17 1495)">.</text><text fill="#00305E" font-family="Open Sans Light,Open Sans Light_MSFontService,sans-serif" font-weight="300" font-size="64" transform="matrix(1 0 0 1 1491.24 1574)">read_excel</text><text fill="#00305E" font-family="Open Sans Light,Open Sans Light_MSFontService,sans-serif" font-weight="300" font-size="64" transform="matrix(1 0 0 1 1798.32 1574)">()</text><rect x="2684.5" y="827.5" width="493" height="403" stroke="#00305E" stroke-width="6.875" stroke-miterlimit="8" fill="none"/><text fill="#00305E" font-family="Symbol,Symbol_MSFontService,sans-serif" font-weight="400" font-size="64" transform="matrix(1 0 0 1 2716.61 935)"></text><text fill="#00305E" font-family="Open Sans Light,Open Sans Light_MSFontService,sans-serif" font-weight="300" font-size="64" transform="matrix(1 0 0 1 2819.74 935)">N </text><text fill="#00305E" font-family="Open Sans Light,Open Sans Light_MSFontService,sans-serif" font-weight="300" font-size="64" transform="matrix(1 0 0 1 2882.76 935)">of</text><text fill="#00305E" font-family="Open Sans Light,Open Sans Light_MSFontService,sans-serif" font-weight="300" font-size="64" transform="matrix(1 0 0 1 2956.67 935)">skip</text><text fill="#00305E" font-family="Symbol,Symbol_MSFontService,sans-serif" font-weight="400" font-size="64" transform="matrix(1 0 0 1 2716.61 1012)"></text><text fill="#00305E" font-family="Open Sans Light,Open Sans Light_MSFontService,sans-serif" font-weight="300" font-size="64" transform="matrix(1 0 0 1 2819.74 1012)">N </text><text fill="#00305E" font-family="Open Sans Light,Open Sans Light_MSFontService,sans-serif" font-weight="300" font-size="64" transform="matrix(1 0 0 1 2882.76 1012)">of</text><text fill="#00305E" font-family="Open Sans Light,Open Sans Light_MSFontService,sans-serif" font-weight="300" font-size="64" transform="matrix(1 0 0 1 2956.67 1012)">read</text><text fill="#00305E" font-family="Symbol,Symbol_MSFontService,sans-serif" font-weight="400" font-size="64" transform="matrix(1 0 0 1 2716.61 1089)"></text><text fill="#00305E" font-family="Open Sans Light,Open Sans Light_MSFontService,sans-serif" font-weight="300" font-size="64" transform="matrix(1 0 0 1 2819.74 1089)">Separate </text><text fill="#00305E" font-family="Open Sans Light,Open Sans Light_MSFontService,sans-serif" font-weight="300" font-size="64" transform="matrix(1 0 0 1 2819.74 1166)">character</text><text fill="#00305E" font-family="Open Sans,Open Sans_MSFontService,sans-serif" font-weight="400" font-size="74" transform="matrix(1 0 0 1 2845.39 807)">Load</text><rect x="2684.5" y="1307.5" width="493" height="403" stroke="#00305E" stroke-width="6.875" stroke-miterlimit="8" fill="none"/><text fill="#00305E" font-family="Symbol,Symbol_MSFontService,sans-serif" font-weight="400" font-size="64" transform="matrix(1 0 0 1 2716.61 1491)"></text><text fill="#00305E" font-family="Open Sans Light,Open Sans Light_MSFontService,sans-serif" font-weight="300" font-size="64" transform="matrix(1 0 0 1 2819.74 1491)">Range </text><text fill="#00305E" font-family="Open Sans Light,Open Sans Light_MSFontService,sans-serif" font-weight="300" font-size="64" transform="matrix(1 0 0 1 2819.74 1568)">(A1:Z9)</text><rect x="3319.5" y="826.5" width="493" height="884" stroke="#00305E" stroke-width="6.875" stroke-miterlimit="8" fill="none"/><text fill="#00305E" font-family="Symbol,Symbol_MSFontService,sans-serif" font-weight="400" font-size="64" transform="matrix(1 0 0 1 3351.78 1142)"></text><text fill="#00305E" font-family="Open Sans,Open Sans_MSFontService,sans-serif" font-weight="400" font-size="64" transform="matrix(1 0 0 1 3454.9 1142)">Define</text><text fill="#00305E" font-family="Open Sans Light,Open Sans Light_MSFontService,sans-serif" font-weight="300" font-size="64" transform="matrix(1 0 0 1 3667.46 1142)">by</text><text fill="#00305E" font-family="Open Sans Light,Open Sans Light_MSFontService,sans-serif" font-weight="300" font-size="64" transform="matrix(1 0 0 1 3454.9 1219)">loading</text><text fill="#00305E" font-family="Symbol,Symbol_MSFontService,sans-serif" font-weight="400" font-size="64" transform="matrix(1 0 0 1 3351.78 1373)"></text><text fill="#00305E" font-family="Open Sans,Open Sans_MSFontService,sans-serif" font-weight="400" font-size="64" transform="matrix(1 0 0 1 3454.9 1373)">Convert</text><text fill="#00305E" font-family="Open Sans Light,Open Sans Light_MSFontService,sans-serif" font-weight="300" font-size="64" transform="matrix(1 0 0 1 3454.9 1450)">after </text><text fill="#00305E" font-family="Open Sans Light,Open Sans Light_MSFontService,sans-serif" font-weight="300" font-size="64" transform="matrix(1 0 0 1 3606.73 1450)">load</text><text fill="#00305E" font-family="Open Sans,Open Sans_MSFontService,sans-serif" font-weight="400" font-size="74" transform="matrix(1 0 0 1 3399.2 806)">Data type</text><path d="M1258.5 1028.5 1478.88 1028.5" stroke="#E02D8A" stroke-width="9.16667" stroke-miterlimit="8" stroke-dasharray="36.6667 27.5" fill="none" fill-rule="evenodd"/><path d="M1868.5 1023.92 2031.96 1023.92 2031.96 1033.08 1868.5 1033.08ZM1992.94 1001.58 2041.4 1028.5 1992.94 1055.42C1990.72 1056.65 1987.93 1055.86 1986.7 1053.64 1985.48 1051.43 1986.27 1048.64 1988.49 1047.41L2029.74 1024.49 2029.74 1032.51 1988.49 1009.59C1986.27 1008.36 1985.48 1005.57 1986.7 1003.36 1987.93 1001.14 1990.72 1000.35 1992.94 1001.58Z" fill="#E02D8A"/><path d="M2550.52 1023.92 2675 1024.36 2674.97 1033.52 2550.48 1033.08ZM2636.06 1001.88 2684.42 1028.97 2635.87 1055.73C2633.65 1056.95 2630.86 1056.14 2629.64 1053.92 2628.42 1051.71 2629.23 1048.92 2631.44 1047.7L2672.77 1024.93 2672.75 1032.94 2631.58 1009.88C2629.37 1008.64 2628.58 1005.85 2629.82 1003.64 2631.06 1001.43 2633.85 1000.64 2636.06 1001.88Z" fill="#E02D8A"/><path d="M0.0162411-4.5833 124.501-4.14219 124.469 5.02442-0.0162411 4.5833ZM85.5563-26.6202 133.922 0.474559 85.3655 27.2259C83.1484 28.4473 80.3609 27.6402 79.1395 25.4231 77.918 23.206 78.7251 20.4185 80.9422 19.1971L122.273-3.5733 122.245 4.43976 81.0762-18.6229C78.8679-19.8601 78.0805-22.6532 79.3177-24.8616 80.5548-27.07 83.348-27.8574 85.5563-26.6202Z" fill="#E02D8A" transform="matrix(1 0 0 -1 3177.5 1028.97)"/><path d="M1258.5 1508.5 1478.88 1508.5" stroke="#E02D8A" stroke-width="9.16667" stroke-miterlimit="8" stroke-dasharray="36.6667 27.5" fill="none" fill-rule="evenodd"/><path d="M1868.5 1503.92 2031.29 1503.92 2031.29 1513.08 1868.5 1513.08ZM1992.27 1481.58 2040.73 1508.5 1992.27 1535.42C1990.06 1536.65 1987.27 1535.86 1986.04 1533.64 1984.81 1531.43 1985.6 1528.64 1987.82 1527.41L2029.07 1504.49 2029.07 1512.51 1987.82 1489.59C1985.6 1488.36 1984.81 1485.57 1986.04 1483.36 1987.27 1481.14 1990.06 1480.35 1992.27 1481.58Z" fill="#E02D8A"/><path d="M2549.5 1503.92 2674.65 1503.92 2674.65 1513.08 2549.5 1513.08ZM2635.63 1481.58 2684.09 1508.5 2635.63 1535.42C2633.42 1536.65 2630.63 1535.86 2629.4 1533.64 2628.17 1531.43 2628.96 1528.64 2631.18 1527.41L2672.43 1504.49 2672.43 1512.51 2631.18 1489.59C2628.96 1488.36 2628.17 1485.57 2629.4 1483.36 2630.63 1481.14 2633.42 1480.35 2635.63 1481.58Z" fill="#E02D8A"/><path d="M3177.5 1503.92 3301.32 1503.92 3301.32 1513.08 3177.5 1513.08ZM3262.29 1481.58 3310.75 1508.5 3262.29 1535.42C3260.08 1536.65 3257.29 1535.86 3256.06 1533.64 3254.83 1531.43 3255.63 1528.64 3257.84 1527.41L3299.09 1504.49 3299.09 1512.51 3257.84 1489.59C3255.63 1488.36 3254.83 1485.57 3256.06 1483.36 3257.29 1481.14 3260.08 1480.35 3262.29 1481.58Z" fill="#E02D8A"/><rect x="730" y="1327" width="25.9998" height="362" fill="#E02D8A"/><text fill="#E02D8A" font-family="Open Sans,Open Sans_MSFontService,sans-serif" font-weight="400" font-size="74" transform="matrix(-1.83697e-16 -1 1 -1.83697e-16 717.799 1597)">Excel</text><path d="M756.5 1508.5 868.206 1508.5" stroke="#E02D8A" stroke-width="9.16667" stroke-miterlimit="8" stroke-dasharray="36.6667 27.5" fill="none" fill-rule="evenodd"/><rect x="730" y="845" width="25.9998" height="362" fill="#E02D8A"/><text fill="#E02D8A" font-family="Open Sans,Open Sans_MSFontService,sans-serif" font-weight="400" font-size="74" transform="matrix(-1.83697e-16 -1 1 -1.83697e-16 717.006 1196)">Plain Text</text><path d="M756.5 1026.5 868.999 1026.5" stroke="#E02D8A" stroke-width="9.16667" stroke-miterlimit="8" stroke-dasharray="36.6667 27.5" fill="none" fill-rule="evenodd"/></g></svg>