<svg width="1639" height="880" xmlns="http://www.w3.org/2000/svg" xmlns:xlink="http://www.w3.org/1999/xlink" xml:space="preserve" overflow="hidden"><g transform="translate(-428 -4)"><rect x="532.5" y="320.5" width="130" height="130" stroke="#003F20" stroke-width="4.58333" stroke-miterlimit="8" fill="#E1F5CD"/><rect x="532.5" y="450.5" width="130" height="130" stroke="#003F20" stroke-width="4.58333" stroke-miterlimit="8" fill="#E1F5CD"/><rect x="532.5" y="580.5" width="130" height="130" stroke="#003F20" stroke-width="4.58333" stroke-miterlimit="8" fill="#E1F5CD"/><rect x="532.5" y="710.5" width="130" height="130" stroke="#003F20" stroke-width="4.58333" stroke-miterlimit="8" fill="#E1F5CD"/><path d="M498.937 320.5 498.938 833.104 492.063 833.104 492.062 320.5ZM521.422 793.523 495.5 840.182 469.579 793.523C468.657 791.864 469.255 789.771 470.914 788.849 472.574 787.927 474.666 788.525 475.588 790.184L498.505 831.434 492.495 831.434 515.412 790.184C516.334 788.525 518.427 787.927 520.086 788.849 521.746 789.771 522.344 791.864 521.422 793.523Z" fill="#E02D8A"/><rect x="903.5" y="320.5" width="130" height="130" stroke="#003F20" stroke-width="4.58333" stroke-miterlimit="8" fill="#E1F5CD"/><rect x="903.5" y="450.5" width="130" height="130" stroke="#003F20" stroke-width="4.58333" stroke-miterlimit="8" fill="#E1F5CD"/><rect x="903.5" y="580.5" width="130" height="130" stroke="#003F20" stroke-width="4.58333" stroke-miterlimit="8" fill="#E1F5CD"/><rect x="903.5" y="710.5" width="130" height="130" stroke="#003F20" stroke-width="4.58333" stroke-miterlimit="8" fill="#E1F5CD"/><rect x="1032.5" y="320.5" width="129" height="130" stroke="#003F20" stroke-width="4.58333" stroke-miterlimit="8" fill="#E1F5CD"/><rect x="1032.5" y="450.5" width="129" height="130" stroke="#003F20" stroke-width="4.58333" stroke-miterlimit="8" fill="#E1F5CD"/><rect x="1032.5" y="580.5" width="129" height="130" stroke="#003F20" stroke-width="4.58333" stroke-miterlimit="8" fill="#E1F5CD"/><rect x="1032.5" y="710.5" width="129" height="130" stroke="#003F20" stroke-width="4.58333" stroke-miterlimit="8" fill="#E1F5CD"/><rect x="1161.5" y="320.5" width="130" height="130" stroke="#003F20" stroke-width="4.58333" stroke-miterlimit="8" fill="#E1F5CD"/><rect x="1161.5" y="450.5" width="130" height="130" stroke="#003F20" stroke-width="4.58333" stroke-miterlimit="8" fill="#E1F5CD"/><rect x="1161.5" y="580.5" width="130" height="130" stroke="#003F20" stroke-width="4.58333" stroke-miterlimit="8" fill="#E1F5CD"/><rect x="1161.5" y="710.5" width="130" height="130" stroke="#003F20" stroke-width="4.58333" stroke-miterlimit="8" fill="#E1F5CD"/><path d="M866.938 281.5 866.938 833.079 860.063 833.079 860.062 281.5ZM889.422 793.5 863.5 840.158 837.579 793.5C836.657 791.84 837.255 789.747 838.914 788.825 840.574 787.903 842.667 788.501 843.589 790.161L866.505 831.411 860.495 831.411 883.412 790.161C884.334 788.501 886.427 787.903 888.086 788.825 889.746 789.747 890.344 791.84 889.422 793.5Z" fill="#E02D8A"/><path d="M861.5 281.063 1283.16 281.063 1283.16 287.938 861.5 287.938ZM1243.58 258.579 1290.24 284.5 1243.58 310.422C1241.92 311.344 1239.83 310.746 1238.9 309.087 1237.98 307.427 1238.58 305.334 1240.24 304.412L1281.49 281.496 1281.49 287.505 1240.24 264.589C1238.58 263.667 1237.98 261.574 1238.9 259.914 1239.83 258.255 1241.92 257.657 1243.58 258.579Z" fill="#E02D8A"/><path d="M1513.94 281.5 1513.94 833.079 1507.06 833.079 1507.06 281.5ZM1536.42 793.5 1510.5 840.158 1484.58 793.5C1483.66 791.84 1484.25 789.747 1485.91 788.825 1487.57 787.903 1489.67 788.501 1490.59 790.161L1513.51 831.411 1507.5 831.411 1530.41 790.161C1531.33 788.501 1533.43 787.903 1535.09 788.825 1536.75 789.747 1537.34 791.84 1536.42 793.5Z" fill="#E02D8A"/><path d="M2.43068-2.43068 127.345 122.483 122.483 127.345-2.43068 2.43068ZM115.256 78.597 129.919 129.919 78.597 115.256C76.7716 114.734 75.7146 112.832 76.2361 111.006 76.7577 109.181 78.6603 108.124 80.4857 108.645L125.858 121.609 121.609 125.858 108.645 80.4857C108.124 78.6603 109.181 76.7577 111.006 76.2361 112.832 75.7146 114.734 76.7716 115.256 78.597Z" fill="#E02D8A" transform="matrix(1 0 0 -1 1509.5 283.421)"/><rect x="1676.5" y="197.5" width="130" height="130" stroke="#003F20" stroke-width="4.58333" stroke-miterlimit="8" fill="#E1F5CD"/><rect x="1676.5" y="327.5" width="130" height="130" stroke="#003F20" stroke-width="4.58333" stroke-miterlimit="8" fill="#E1F5CD"/><rect x="1676.5" y="457.5" width="130" height="130" stroke="#003F20" stroke-width="4.58333" stroke-miterlimit="8" fill="#E1F5CD"/><rect x="1676.5" y="587.5" width="130" height="129" stroke="#003F20" stroke-width="4.58333" stroke-miterlimit="8" fill="#E1F5CD"/><rect x="1804.5" y="197.5" width="130" height="130" stroke="#003F20" stroke-width="4.58333" stroke-miterlimit="8" fill="#E1F5CD"/><rect x="1804.5" y="327.5" width="130" height="130" stroke="#003F20" stroke-width="4.58333" stroke-miterlimit="8" fill="#E1F5CD"/><rect x="1804.5" y="457.5" width="130" height="130" stroke="#003F20" stroke-width="4.58333" stroke-miterlimit="8" fill="#E1F5CD"/><rect x="1804.5" y="587.5" width="130" height="129" stroke="#003F20" stroke-width="4.58333" stroke-miterlimit="8" fill="#E1F5CD"/><rect x="1934.5" y="197.5" width="130" height="130" stroke="#003F20" stroke-width="4.58333" stroke-miterlimit="8" fill="#E1F5CD"/><rect x="1934.5" y="327.5" width="130" height="130" stroke="#003F20" stroke-width="4.58333" stroke-miterlimit="8" fill="#E1F5CD"/><rect x="1934.5" y="457.5" width="130" height="130" stroke="#003F20" stroke-width="4.58333" stroke-miterlimit="8" fill="#E1F5CD"/><rect x="1934.5" y="587.5" width="130" height="129" stroke="#003F20" stroke-width="4.58333" stroke-miterlimit="8" fill="#E1F5CD"/><rect x="1613.5" y="255.5" width="130" height="130" stroke="#003F20" stroke-width="4.58333" stroke-miterlimit="8" fill="#E1F5CD"/><rect x="1613.5" y="385.5" width="130" height="130" stroke="#003F20" stroke-width="4.58333" stroke-miterlimit="8" fill="#E1F5CD"/><rect x="1613.5" y="515.5" width="130" height="130" stroke="#003F20" stroke-width="4.58333" stroke-miterlimit="8" fill="#E1F5CD"/><rect x="1613.5" y="645.5" width="130" height="130" stroke="#003F20" stroke-width="4.58333" stroke-miterlimit="8" fill="#E1F5CD"/><rect x="1742.5" y="255.5" width="130" height="130" stroke="#003F20" stroke-width="4.58333" stroke-miterlimit="8" fill="#E1F5CD"/><rect x="1742.5" y="385.5" width="130" height="130" stroke="#003F20" stroke-width="4.58333" stroke-miterlimit="8" fill="#E1F5CD"/><rect x="1742.5" y="515.5" width="130" height="130" stroke="#003F20" stroke-width="4.58333" stroke-miterlimit="8" fill="#E1F5CD"/><rect x="1742.5" y="645.5" width="130" height="130" stroke="#003F20" stroke-width="4.58333" stroke-miterlimit="8" fill="#E1F5CD"/><rect x="1872.5" y="255.5" width="130" height="130" stroke="#003F20" stroke-width="4.58333" stroke-miterlimit="8" fill="#E1F5CD"/><rect x="1872.5" y="385.5" width="130" height="130" stroke="#003F20" stroke-width="4.58333" stroke-miterlimit="8" fill="#E1F5CD"/><rect x="1872.5" y="515.5" width="130" height="130" stroke="#003F20" stroke-width="4.58333" stroke-miterlimit="8" fill="#E1F5CD"/><rect x="1872.5" y="645.5" width="130" height="130" stroke="#003F20" stroke-width="4.58333" stroke-miterlimit="8" fill="#E1F5CD"/><rect x="1548.5" y="320.5" width="130" height="130" stroke="#003F20" stroke-width="4.58333" stroke-miterlimit="8" fill="#E1F5CD"/><rect x="1548.5" y="450.5" width="130" height="130" stroke="#003F20" stroke-width="4.58333" stroke-miterlimit="8" fill="#E1F5CD"/><rect x="1548.5" y="580.5" width="130" height="130" stroke="#003F20" stroke-width="4.58333" stroke-miterlimit="8" fill="#E1F5CD"/><rect x="1548.5" y="710.5" width="130" height="130" stroke="#003F20" stroke-width="4.58333" stroke-miterlimit="8" fill="#E1F5CD"/><rect x="1677.5" y="320.5" width="130" height="130" stroke="#003F20" stroke-width="4.58333" stroke-miterlimit="8" fill="#E1F5CD"/><rect x="1677.5" y="450.5" width="130" height="130" stroke="#003F20" stroke-width="4.58333" stroke-miterlimit="8" fill="#E1F5CD"/><rect x="1677.5" y="580.5" width="130" height="130" stroke="#003F20" stroke-width="4.58333" stroke-miterlimit="8" fill="#E1F5CD"/><rect x="1677.5" y="710.5" width="130" height="130" stroke="#003F20" stroke-width="4.58333" stroke-miterlimit="8" fill="#E1F5CD"/><rect x="1807.5" y="320.5" width="130" height="130" stroke="#003F20" stroke-width="4.58333" stroke-miterlimit="8" fill="#E1F5CD"/><rect x="1807.5" y="450.5" width="130" height="130" stroke="#003F20" stroke-width="4.58333" stroke-miterlimit="8" fill="#E1F5CD"/><rect x="1807.5" y="580.5" width="130" height="130" stroke="#003F20" stroke-width="4.58333" stroke-miterlimit="8" fill="#E1F5CD"/><rect x="1807.5" y="710.5" width="130" height="130" stroke="#003F20" stroke-width="4.58333" stroke-miterlimit="8" fill="#E1F5CD"/><path d="M1510.5 281.063 1932.16 281.063 1932.16 287.938 1510.5 287.938ZM1892.58 258.579 1939.24 284.5 1892.58 310.422C1890.92 311.344 1888.83 310.746 1887.9 309.087 1886.98 307.427 1887.58 305.334 1889.24 304.412L1930.49 281.496 1930.49 287.505 1889.24 264.589C1887.58 263.667 1886.98 261.574 1887.9 259.914 1888.83 258.255 1890.92 257.657 1892.58 258.579Z" fill="#E02D8A"/><text fill="#00305E" font-family="Open Sans,Open Sans_MSFontService,sans-serif" font-weight="700" font-size="74" transform="matrix(1 0 0 1 476.645 96)">Array</text><text fill="#00305E" font-family="Open Sans,Open Sans_MSFontService,sans-serif" font-weight="400" font-size="74" transform="matrix(1 0 0 1 472.737 180)">1D</text><text fill="#00305E" font-family="Open Sans,Open Sans_MSFontService,sans-serif" font-weight="400" font-size="74" transform="matrix(1 0 0 1 850.053 180)">2D</text><text fill="#00305E" font-family="Open Sans,Open Sans_MSFontService,sans-serif" font-weight="400" font-size="74" transform="matrix(1 0 0 1 1490.44 180)">3D</text></g></svg>